<?xml version="1.0" standalone="no"?>
<!DOCTYPE svg PUBLIC "-//W3C//DTD SVG 1.1//EN" "http://www.w3.org/Graphics/SVG/1.1/DTD/svg11.dtd" >
<svg>
<metadata>
Created by FontForge 20090914 at Fri Aug 20 18:40:52 2021
 By www-data
Copyright (c) 2010-13 by Vernon Adams
</metadata>
<defs>
<font id="Oswald-MediumItalic" horiz-adv-x="869" >
  <font-face 
    font-family="Oswald"
    font-weight="500"
    font-style="italic"
    font-stretch="normal"
    units-per-em="2048"
    panose-1="2 0 6 3 0 0 0 0 0 0"
    ascent="1638"
    descent="-410"
    x-height="1184"
    cap-height="1658"
    bbox="-175.001 -663 2725 2266"
    underline-thickness="35"
    underline-position="-67"
    unicode-range="U+0020-U+FB04"
  />
<missing-glyph horiz-adv-x="748" 
d="M136 68h408v1229h-408v-1229zM68 0v1365h544v-1365h-544z" />
    <glyph glyph-name=".notdef" horiz-adv-x="748" 
d="M136 68h408v1229h-408v-1229zM68 0v1365h544v-1365h-544z" />
    <glyph glyph-name="space" unicode=" " horiz-adv-x="478" 
 />
    <glyph glyph-name="exclam" unicode="!" horiz-adv-x="465" 
d="M45 0l28 266h267l-28 -266h-267zM171 380l50 1276h273l-227 -1276h-96z" />
    <glyph glyph-name="quotedbl" unicode="&#x22;" horiz-adv-x="767" 
d="M197 1105l58 553h239l-160 -553h-137zM535 1105l58 553h239l-160 -553h-137z" />
    <glyph glyph-name="numbersign" unicode="#" horiz-adv-x="1039" 
d="M41 0l136 577h-94l23 189h119l46 199h-143l21 191h171l120 502h230l-119 -502h170l120 502h229l-120 -502h89l-22 -191h-115l-48 -199h141l-22 -189h-166l-137 -577h-230l137 577h-170l-137 -577h-229zM453 766h172l47 199h-171z" />
    <glyph glyph-name="dollar" unicode="$" horiz-adv-x="1010" 
d="M428 -178l16.002 159.002c-253.333 8.66699 -380 156 -380 442c0 20 0.666992 40.333 2 61l265 56c-2 -26.667 -3 -51.667 -3 -75c0 -171.333 53.333 -257 160 -257c47.333 0 84 14.167 110 42.5s41.333 67.166 46 116.499c1.33301 13.333 2 26.333 2 39
c0 32 -4.66699 61.333 -14 88c-13.333 38.667 -29.333 69.667 -48 93s-46.667 53.333 -84 90l-203 195c-57.333 55.333 -98.333 113 -123 173c-17.333 42.667 -26 93 -26 151c0 23.333 1.33301 48 4 74c12.667 122.667 57.5 219.167 134.5 289.5
s177.167 109.166 300.5 116.499l15 151h85l-16 -152c64 -4.66699 117.833 -19.167 161.5 -43.5s76.834 -57.5 99.501 -99.5c22.667 -42.667 38 -88 46 -136c7.33301 -41.333 10.666 -88 9.99902 -140v-26l-259 -52c2.66699 22.667 4 44.667 4 66c0 14 -0.666992 28 -2 42
c-2.66699 34 -8 64 -16 90s-22.667 46 -44 60c-18.667 12 -42.334 18 -71.001 18h-12c-46.667 -2.66699 -83.667 -17.667 -111 -45s-43.333 -64.333 -48 -111c-1.33301 -12.667 -2 -25 -2 -37c0 -36.667 6.33301 -67.667 19 -93c16.667 -34 44.667 -70.333 84 -109l204 -194
c68 -67.333 120 -139 156 -215c27.333 -58 41.333 -123.333 42 -196c0 -22 -1.33301 -44.667 -4 -68c-12 -110.667 -54.333 -202.5 -127 -275.5s-163.334 -115.5 -272.001 -127.5l-17 -161h-84z" />
    <glyph glyph-name="percent" unicode="%" horiz-adv-x="1971" 
d="M487 939c26 0 47.833 5.5 65.5 16.5s31.667 27.667 42 50s18 45.5 23 69.5s9.5 53.667 13.5 89l10 94c3.33301 38 5 71 5 99v14c-0.666992 31.333 -9.33398 55.833 -26.001 73.5s-42.667 26.5 -78 26.5c-21.333 0 -39.833 -3.5 -55.5 -10.5s-28.334 -16 -38.001 -27
s-17.667 -26.5 -24 -46.5s-11.166 -39.333 -14.499 -58s-6.33301 -42.667 -9 -72l-10 -94c-3.33301 -36.667 -5 -69.667 -5 -99v-15c0.666992 -33.333 9.33398 -60 26.001 -80s41.667 -30 75 -30zM467 747c-126 -0.666992 -213.666 34.333 -262.999 105
c-38.667 54 -57.667 128.333 -57 223c0 28 1.66699 57.667 5 89l10 90c14.667 140 53 243.5 115 310.5s157.333 100.5 286 100.5c127.333 0.666992 215.666 -31.666 264.999 -96.999c38 -50.667 57.333 -123.334 58 -218.001c0 -27.333 -1.66699 -56.333 -5 -87l-11 -104
c-14.667 -137.333 -54 -240.333 -118 -309s-159 -103 -285 -103zM1502 185c26 0 47.833 5.49902 65.5 16.499s31.5 27.667 41.5 50s17.5 45.333 22.5 69s9.5 53.5 13.5 89.5l10 94c4 40.667 6 76 6 106c-0.666992 2.66699 -1 5 -1 7c0 31.333 -8.16699 55.833 -24.5 73.5
s-42.166 26.5 -77.499 26.5c-22 0 -40.833 -3.5 -56.5 -10.5s-28.334 -16 -38.001 -27s-17.667 -26.5 -24 -46.5s-11.166 -39.333 -14.499 -58s-6.33301 -42.667 -9 -72l-10 -94c-2.66699 -35.333 -4 -67.666 -4 -96.999v-17c0.666992 -33.333 9.16699 -60 25.5 -80
s41.166 -30 74.499 -30zM1481 -7.00098c-124.667 -0.666992 -211.666 34.3311 -260.999 104.998c-38.667 54.667 -58.334 130 -59.001 226c0 26.667 1.66699 55.334 5 86.001l10 90c14.667 140 53.167 243.5 115.5 310.5s157.833 100.5 286.5 100.5
c128 0.666992 216.667 -31.666 266 -96.999c38 -50 56.667 -121.667 56 -215c0 -28 -1.66699 -58 -5 -90l-11 -104c-14.667 -137.333 -54 -240.333 -118 -309s-159 -103 -285 -103zM605.002 -0.00292969l638 1658h198l-638 -1658h-198z" />
    <glyph glyph-name="ampersand" unicode="&#x26;" horiz-adv-x="1214" 
d="M416 -20c-110.667 0 -195.331 34.6689 -253.998 104.002c-49.333 58.667 -74 132.334 -74 221.001c0 17.333 1 35 3 53c10.667 97.333 42.5 187.666 95.5 270.999s117.167 156.666 192.5 219.999c-8 20 -22.5 54.5 -43.5 103.5s-36.833 87.667 -47.5 116
s-20 64.833 -28 109.5c-5.33301 28.667 -8.33301 56.334 -9 83.001c0 15.333 1 30.333 3 45c11.333 108.667 52.666 197.667 123.999 267s161 104 269 104c104 -0.666992 187 -30.334 249 -89.001c52.667 -50.667 79 -115.667 79 -195c0 -14 -0.666992 -28.333 -2 -43
c-2.66699 -28 -7.66699 -55.333 -15 -82s-18 -53.5 -32 -80.5l-37.5 -70.5c-11 -20 -27.833 -43.667 -50.5 -71l-50 -60.5c-10.667 -13 -30 -33.167 -58 -60.5l-52 -50.5l-52 -49.5l178 -363c38 64.667 71 173 99 325h235c-10 -89.333 -33 -176 -69 -260
s-78 -159.667 -126 -227c13.333 -19.333 32.833 -36.333 58.5 -51s52.5 -22.334 80.5 -23.001l-26 -245c-17.333 -2.66699 -30.333 -4 -39 -4c-16 0 -31.333 1.5 -46 4.5s-29.167 8.33301 -43.5 16l-36.5 20c-10 5.66699 -21.833 15 -35.5 28l-29 28l-30.5 32
c-14.667 15.667 -23.334 25.167 -26.001 28.5c-42 -48 -93.5 -85.667 -154.5 -113s-127.5 -41 -199.5 -41zM440.003 187.002c72.667 0 138.667 34.001 198 102.001c-115.333 235.333 -174.333 358.666 -177 369.999c-31.333 -39.333 -57.833 -85 -79.5 -137
s-35.167 -103.667 -40.5 -155c-1.33301 -12.667 -2 -25 -2 -37c0 -36.667 6.33301 -67.667 19 -93c16.667 -33.333 44 -50 82 -50zM554.003 971.003c38 47.333 74.6689 108 110.002 182s56.333 141.667 63 203c0.666992 6 1 12 1 18c0 25.333 -7.33301 46 -22 62
c-18 20 -43 30.333 -75 31c-35.333 0 -64.166 -15 -86.499 -45s-35.5 -66.667 -39.5 -110c-1.33301 -14 -2 -29 -2 -45s0.5 -31 1.5 -45s2.66699 -29.667 5 -47s4.66602 -32.333 6.99902 -45s5.5 -27.667 9.5 -45l9.5 -41c2.33301 -10 5.66602 -23.167 9.99902 -39.5
s7.16602 -27.5 8.49902 -33.5z" />
    <glyph glyph-name="quotesingle" unicode="'" horiz-adv-x="670" 
d="M209 1105l58 553h234l-151 -553h-141z" />
    <glyph glyph-name="parenleft" unicode="(" horiz-adv-x="648" 
d="M492 -396c-58.667 0 -110.168 10.665 -154.501 31.998s-80.166 48.666 -107.499 81.999s-49 78 -65 134c-16 57.333 -27 112 -33 164c-4.66699 40.667 -7 89.334 -7 146.001c0.666992 16 1 32.667 1 50c1.33301 78.667 4.33301 147.167 9 205.5s11.667 130.833 21 217.5
c9.33301 88.667 18 163 26 223s19.333 129.667 34 209s30.667 145.333 48 198s39.833 107.167 67.5 163.5s58.667 100.833 93 133.5s75.666 59.667 123.999 81s102.166 32 161.499 32l-20 -187c-17.333 0 -33.833 -3.66699 -49.5 -11s-30 -19 -43 -35
s-25.167 -33.667 -36.5 -53s-21.833 -43.666 -31.5 -72.999s-18.5 -58.166 -26.5 -86.499s-15.667 -62.333 -23 -102s-13.666 -76.5 -18.999 -110.5s-11 -74.667 -17 -122s-11.167 -89.666 -15.5 -126.999s-9.16602 -81.666 -14.499 -132.999
c-6.66699 -64.667 -12.167 -120.334 -16.5 -167.001s-8.5 -98.334 -12.5 -155.001c-4.66699 -56.667 -7 -105 -7 -145v-24c0 -32.667 0.666992 -66 2 -100c1.33301 -42.667 5.33301 -78 12 -106s15 -53.833 25 -77.5s23 -41.167 39 -52.5s34.667 -17 56 -17z" />
    <glyph glyph-name="parenright" unicode=")" horiz-adv-x="585" 
d="M-27 -396l19.998 187.997c21.333 0 41.166 5.66699 59.499 17s35 29 50 53s28.667 50.167 41 78.5s23.666 64 33.999 107s19.5 84.5 27.5 124.5s16 88.333 24 145s14.833 108.167 20.5 154.5s11.834 101.833 18.501 166.5l13.5 134
c3.66699 37.333 7.5 79.666 11.5 126.999s6.83301 88 8.5 122s3.16699 71 4.5 111v34c0 25.333 -0.666992 47.333 -2 66c-2.66699 28 -5.66699 56.667 -9 86s-8.66602 53.5 -15.999 72.5s-15.833 36.333 -25.5 52s-21.5 27.167 -35.5 34.5s-29.667 11 -47 11l19 187
c59.333 0 111 -10.5 155 -31.5s79.667 -47.833 107 -80.5s49 -77 65 -133c15.333 -57.333 26.333 -112 33 -164c4.66699 -40 7.33398 -87.333 8.00098 -142c0 -17.333 -0.333008 -35.666 -1 -54.999c-2 -79.333 -5.33301 -148.666 -10 -207.999
s-11.667 -133.666 -21 -222.999c-6.66699 -66 -13 -122.5 -19 -169.5s-13.833 -101.667 -23.5 -164s-19.667 -115.833 -30 -160.5s-23.666 -93 -39.999 -145s-34 -96 -53 -132s-41.5 -71.667 -67.5 -107s-54.333 -63.666 -85 -84.999s-66 -38.5 -106 -51.5
s-83 -19.5 -129 -19.5z" />
    <glyph glyph-name="asterisk" unicode="*" horiz-adv-x="843" 
d="M379 940l-151 97l176 217l-221 89l81 168l204 -117l1 263h206l-54 -263l229 118l46 -170l-241 -89l133 -216l-174 -97l-92 241z" />
    <glyph glyph-name="plus" unicode="+" horiz-adv-x="887" 
d="M337 424l35 335h-290l20 185h290l34 331h194l-34 -331h298l-20 -185h-298l-35 -335h-194z" />
    <glyph glyph-name="comma" unicode="," horiz-adv-x="424" 
d="M43 -281l-20.002 105c40.667 10 74.834 30.333 102.501 61s43.834 69 48.501 115h-144l29 267h270l-26 -250c-17.333 -166 -104 -265.333 -260 -298z" />
    <glyph glyph-name="hyphen" unicode="-" horiz-adv-x="717" 
d="M121 551l20 192h490l-20 -192h-490z" />
    <glyph glyph-name="period" unicode="." horiz-adv-x="432" 
d="M44 0l29 274h267l-29 -274h-267z" />
    <glyph glyph-name="slash" unicode="/" horiz-adv-x="806" 
d="M22 0l639 1658h196l-640 -1658h-195z" />
    <glyph glyph-name="zero" unicode="0" horiz-adv-x="1054" 
d="M500 216c99.333 0 157.332 83.3301 173.999 249.997l75 719c3.33301 22.667 5 45.667 5 69v20c-1.33301 30.667 -5 58.334 -11 83.001s-18.667 44.667 -38 60s-44.666 23 -75.999 23s-58.333 -7.33301 -81 -22s-40 -35.667 -52 -63s-21 -53.666 -27 -78.999
s-11 -55.666 -15 -90.999l-75 -719c-2.66699 -26 -4 -49.667 -4 -71c0 -119.333 41.667 -179 125 -179zM474.999 -22.0029c-139.333 0 -241 44.001 -305 132.001c-52 71.333 -77.667 161.666 -77 270.999c0 26 1.33301 53 4 81l76 727c16 152 64.333 271.333 145 358
s192.667 130 336 130c142 0 244.333 -43.667 307 -131c50 -69.333 75 -159 75 -269c0 -28 -1.66699 -57.333 -5 -88l-76 -727c-15.333 -146.667 -64.5 -264 -147.5 -352s-193.833 -132 -332.5 -132z" />
    <glyph glyph-name="one" unicode="1" horiz-adv-x="1055" 
d="M403 0l140.001 1339l-278 -69l22 209c175.333 53.333 293.666 113 354.999 179h213l-174 -1658h-278z" />
    <glyph glyph-name="two" unicode="2" horiz-adv-x="1055" 
d="M49 0l20.999 196l473 636l48.5 65l49.5 65.5c11.333 15 25.333 35.5 42 61.5s29.5 49 38.5 69s17.667 43.5 26 70.5s13.833 54.167 16.5 81.5c2 18.667 3 35.667 3 51c0 42 -7 75.667 -21 101c-18 32.667 -49.667 49 -95 49h-8c-104 -4.66699 -165.667 -94.667 -185 -270
l-7 -68h-274l8 70c16.667 156.667 63.834 279.167 141.501 367.5s190.5 132.5 338.5 132.5c139.333 0 240.333 -38 303 -114c51.333 -61.333 77 -143.333 77 -246c0 -24 -1.33301 -49 -4 -75c-2 -20.667 -5.16699 -41.334 -9.5 -62.001s-8.5 -39.167 -12.5 -55.5
s-10.5 -34.666 -19.5 -54.999s-15.833 -36.333 -20.5 -48s-13.5 -28 -26.5 -49l-27 -44c-5 -8.33301 -15.667 -23.666 -32 -45.999l-31 -42.5c-4.33301 -6 -16 -21.333 -35 -46s-30.167 -39.334 -33.5 -44.001l-401 -526h499l-24 -225h-819z" />
    <glyph glyph-name="three" unicode="3" horiz-adv-x="1055" 
d="M474 -22c-146 0 -249.999 40.665 -311.999 121.998c-50 64.667 -75 151 -75 259c0 26.667 1.66699 54.667 5 84l6 59h278c-2.66699 -24 -4 -39 -4 -45c-2 -28 -3 -53.667 -3 -77c0 -20 0.666992 -38.333 2 -55c3.33301 -36.667 15.5 -65.167 36.5 -85.5
s52.167 -30.5 93.5 -30.5c26.667 0 49.667 4.5 69 13.5s35.166 20.5 47.499 34.5s22.666 33.167 30.999 57.5s14.666 48.333 18.999 72s8.5 53.167 12.5 88.5c2.66699 26.667 4 51 4 73c0 26.667 -2 50.667 -6 72c-7.33301 38.667 -24.333 70 -51 94
s-64.334 37.333 -113.001 40c-4 0.666992 -17.667 1 -41 1l26 238h36c73.333 2.66699 126.833 22 160.5 58s55.167 96 64.5 180c2 20.667 3 40 3 58c0 46 -6.66699 82.333 -20 109c-18.667 37.333 -56.667 55.666 -114 54.999c-58.667 0 -100.5 -20.333 -125.5 -61
s-42.5 -100.334 -52.5 -179.001l-6 -54h-278l8 75c14.667 140.667 63.334 249.834 146.001 327.501s192.667 116.5 330 116.5c139.333 0 242.333 -38 309 -114c54 -62 81 -146 81 -252c0 -23.333 -1.33301 -47.666 -4 -72.999c-10 -93.333 -38.667 -171.166 -86 -233.499
s-106 -103.5 -176 -123.5c68.667 -25.333 119 -71.666 151 -138.999c23.333 -49.333 35 -110 35 -182c0 -26 -1.33301 -53.333 -4 -82c-8 -77.333 -23.167 -145.833 -45.5 -205.5s-52.666 -112 -90.999 -157s-86.666 -79.333 -144.999 -103s-125.5 -35.5 -201.5 -35.5z" />
    <glyph glyph-name="four" unicode="4" horiz-adv-x="1055" 
d="M509 0l43 408h-486l28 262l524 989h329l-107 -1017h173l-24 -234h-173l-43 -408h-264zM336 642h240l74 705z" />
    <glyph glyph-name="five" unicode="5" horiz-adv-x="1055" 
d="M481 -22c-80.667 0 -147.667 11.6641 -201 34.9971s-92.666 57 -117.999 101s-42 96.667 -50 158c-4 28 -6 57.333 -6 88c0 37.333 2.66699 77 8 119h274c-4 -35.333 -6.66699 -65.666 -8 -90.999v-16c0 -20 1.33301 -40.333 4 -61c4 -26.667 10.667 -48 20 -64
s23.166 -29.167 41.499 -39.5s41.166 -15.5 68.499 -15.5c21.333 0 40.333 3.66699 57 11s30.834 16 42.501 26s22.167 24.833 31.5 44.5s16.833 37.834 22.5 54.501s11 40.167 16 70.5s8.83301 56 11.5 77s6 50.167 10 87.5c6 67.333 9 123.666 9 168.999
c0 46.667 -10.667 83.334 -32 110.001c-21.333 27.333 -55 41 -101 41c-39.333 0 -74.166 -13.333 -104.499 -40s-53.5 -60.667 -69.5 -102h-239l108 917h750l-27 -257h-511l-58 -395c25.333 24.667 58.166 44.334 98.499 59.001s84.5 23 132.5 25h19
c118 0 200.667 -42 248 -126c37.333 -66.667 56 -154 56 -262c0 -36 -2 -74 -6 -114c-8 -73.333 -18.5 -138.5 -31.5 -195.5s-31.833 -112.333 -56.5 -166s-54.667 -98 -90 -133s-80 -63 -134 -84s-115.667 -31.5 -185 -31.5z" />
    <glyph glyph-name="six" unicode="6" horiz-adv-x="1055" 
d="M488 -20c-74 0 -137.504 14.168 -190.504 42.501s-93.833 67.666 -122.5 117.999s-47.667 108.166 -57 173.499c-5.33301 36 -8 73.667 -8 113c0 32.667 1.66699 66.667 5 102l58 556c7.33301 68.667 17.833 131 31.5 187s33.334 109.667 59.001 161
s56.334 94.5 92.001 129.5s79.834 62.833 132.501 83.5s112 31 178 31c252 0 378 -117.667 378 -353c0 -20 -1 -41 -3 -63c0 -2 -0.333008 -6.16699 -1 -12.5s-1 -10.166 -1 -11.499h-270c2 23.333 3 45 3 65c0 44 -5.33301 78 -16 102c-16 36 -53.333 54 -112 54
c-54 0 -95.667 -27.167 -125 -81.5s-50.666 -142.5 -63.999 -264.5l-21 -202c49.333 71.333 128 107.666 236 108.999h6c204.667 0 307 -121 307 -363c0 -34.667 -2 -72 -6 -112c-8.66699 -82.667 -24 -157 -46 -223s-52.167 -125.167 -90.5 -177.5
s-87.333 -92.666 -147 -120.999s-128.167 -42.5 -205.5 -42.5zM512.996 198.001c29.333 0 55.002 7.33203 77.002 21.999s39.667 36 53 64s24 58.167 32 90.5s14 69.833 18 112.5c2.66699 24 4.66699 42.667 6 56c1.33301 14 2.66602 31.667 3.99902 53
c0.666992 14.667 1 27 1 37v13c-0.666992 12 -1.83398 26.667 -3.50098 44s-4.33398 31 -8.00098 41s-8.83398 20.667 -15.501 32s-14.5 19.833 -23.5 25.5s-20 10.5 -33 14.5s-27.833 6 -44.5 6c-34.667 0 -66 -9.66699 -94 -29s-50.667 -42.666 -68 -69.999l-27 -250
c-2 -24 -3 -47 -3 -69c0 -20 0.666992 -39 2 -57c2.66699 -38.667 14.834 -71 36.501 -97s51.834 -39 90.501 -39z" />
    <glyph glyph-name="seven" unicode="7" horiz-adv-x="1055" 
d="M255 0l471 1444h-480l22 214h753l-16 -183l-481 -1475h-269z" />
    <glyph glyph-name="eight" unicode="8" horiz-adv-x="1054" 
d="M483 -21c-77.333 0 -142.833 11.666 -196.5 34.999s-94.834 57.5 -123.501 102.5s-47.667 97.5 -57 157.5c-4.66699 30.667 -6.66699 63.667 -6 99c0 34 2 70 6 108c20.667 187.333 99.334 318.333 236.001 393c-90 72.667 -135 174.334 -135 305.001
c0 19.333 1 39.333 3 60c14 138.667 59.333 246.334 136 323.001s182 115 316 115c133.333 0 230 -38.333 290 -115c47.333 -60.667 71.333 -141.334 72 -242.001c0 -26 -1.66699 -53 -5 -81c-18.667 -161.333 -88 -283 -208 -365
c105.333 -67.333 158 -174.666 158 -321.999c0 -22.667 -1.33301 -46.334 -4 -71.001c-32 -334.667 -192.667 -502 -482 -502zM506 191.999c33.333 0 62.001 7.83203 86.001 23.499s42.667 38 56 67s23.333 57.667 30 86s12 61.5 16 99.5c2.66699 28 4 53.667 4 77
c0 132.667 -44.667 199 -134 199c-107.333 0 -171 -92 -191 -276c-4 -24 -6 -48 -6 -72c0 -9.33301 0.333008 -18.666 1 -27.999c2 -33.333 6.5 -62.833 13.5 -88.5s21.167 -46.667 42.5 -63s48.666 -24.5 81.999 -24.5zM589.001 987.998c92 0 146.667 88.001 164 264.001
c2 17.333 3 33.666 3 48.999c0 41.333 -6.66699 76.333 -20 105c-17.333 39.333 -49.333 59 -96 59c-48.667 0 -86 -19.5 -112 -58.5s-42.333 -90.5 -49 -154.5c-3.33301 -30 -5 -57.333 -5 -82c0 -121.333 38.333 -182 115 -182z" />
    <glyph glyph-name="nine" unicode="9" horiz-adv-x="1055" 
d="M471 -20c-251.333 0 -376.997 117.667 -376.997 353c0 22 1 44.667 3 68c0 1.33301 0.333008 4.5 1 9.5s1.33398 8.16699 2.00098 9.5h270c-2.66699 -24.667 -4 -47 -4 -67c0 -42 5.66699 -75 17 -99c16.667 -36 54 -54 112 -54c54 0 95.167 26.833 123.5 80.5
s49.166 142.167 62.499 265.5l21 201c-48.667 -70.667 -127 -106.667 -235 -108h-6c-203.333 0 -305 123 -305 369c0 35.333 2 73 6 113c8.66699 82 24.334 155.833 47.001 221.5s53.167 124 91.5 175s87.166 90.333 146.499 118s127 41.5 203 41.5
c74 0 137.667 -13.833 191 -41.5s94.166 -66.167 122.499 -115.5s47.5 -106 57.5 -170c5.33301 -36 8 -74 8 -114c0 -32 -1.66699 -65.333 -5 -100l-59 -563c-7.33301 -68 -18 -130.167 -32 -186.5s-33.833 -110.333 -59.5 -162s-56.334 -95 -92.001 -130
s-79.834 -62.833 -132.501 -83.5s-112 -31 -178 -31zM564.003 849c63.333 0 116.334 33.002 159.001 99.002l26 249c2.66699 27.333 4 52.666 4 75.999c0 124.667 -42 187 -126 187c-56 0 -97.333 -25.667 -124 -77s-45.334 -122.333 -56.001 -213l-6 -63
c-1.33301 -12.667 -2.66602 -31.667 -3.99902 -57c-0.666992 -12.667 -1 -23.667 -1 -33c0 -8.66699 0.333008 -16.334 1 -23.001c1.33301 -12 3.33301 -27.5 6 -46.5s7.16699 -33.167 13.5 -42.5s14.166 -19 23.499 -29s21 -17 35 -21s30.333 -6 49 -6z" />
    <glyph glyph-name="colon" unicode=":" horiz-adv-x="467" 
d="M92 171l28 265h267l-28 -265h-267zM163 843l29 266h266l-28 -266h-267z" />
    <glyph glyph-name="semicolon" unicode=";" horiz-adv-x="497" 
d="M99 -156l-20.001 106.001c88.667 4 138.334 52.667 149.001 146h-144l28 267h271l-27 -250c-18 -178.667 -103.667 -268.334 -257 -269.001zM166.999 896.001l29 274h266l-28 -274h-267z" />
    <glyph glyph-name="less" unicode="&#x3c;" horiz-adv-x="787" 
d="M631 114l-563 424l26 247l652 425l-27 -258l-437 -289l376 -292z" />
    <glyph glyph-name="equal" unicode="=" horiz-adv-x="877" 
d="M126 545l19 188h641l-20 -188h-640zM165 921l20 188h640l-20 -188h-640z" />
    <glyph glyph-name="greater" unicode="&#x3e;" horiz-adv-x="787" 
d="M77 114l27 257l438 292l-377 289l27 258l565 -425l-26 -247z" />
    <glyph glyph-name="question" unicode="?" horiz-adv-x="999" 
d="M297 424l27.001 257.999c56 46 104.667 88.833 146 128.5s82.666 84.5 123.999 134.5s74.166 102.333 98.499 157s38.833 110 43.5 166c0.666992 8 1 15.667 1 23c0.666992 42.667 -10.333 77.667 -33 105c-26.667 32 -63.667 48 -111 48c-48 0 -85.5 -15 -112.5 -45
s-40.167 -69.333 -39.5 -118c-0.666992 -8 -0.333984 -22.333 0.999023 -43s2.66602 -35 3.99902 -43l-257 -51c-5.33301 48 -8 81.333 -8 100v10c-0.666992 8 -1 16 -1 24c0 116.667 36.667 212 110 286c78.667 78.667 187.334 118 326.001 118c140 0 243.333 -37 310 -111
c55.333 -61.333 83 -143.333 83 -246c0 -21.333 -1.33301 -43.666 -4 -66.999c-5.33301 -51.333 -17.666 -102 -36.999 -152s-42 -95.167 -68 -135.5s-58.667 -82.333 -98 -126s-76.666 -81.667 -111.999 -114s-77.333 -68.833 -126 -109.5l-20 -197h-247z
M242.001 -0.000976562l28 268h272l-29 -268h-271z" />
    <glyph glyph-name="at" unicode="@" horiz-adv-x="1910" 
d="M890 -276c-272 0 -476.665 78.002 -613.998 234.002c-104.667 119.333 -157 276.666 -157 471.999c0 59.333 5 122.333 15 189c22.667 167.333 65.167 316.833 127.5 448.5s140.166 240.5 233.499 326.5s200.666 151.5 321.999 196.5s253 67.5 395 67.5
c74 0 142.833 -7.66699 206.5 -23s119.167 -37 166.5 -65s89.833 -61.5 127.5 -100.5s67.667 -82.167 90 -129.5s40.5 -98.166 54.5 -152.499s21 -110.666 21 -168.999s-3.66699 -118.166 -11 -179.499c-10 -80 -30.5 -157.667 -61.5 -233s-70.333 -143.833 -118 -205.5
s-106.5 -111.334 -176.5 -149.001s-145 -56.5 -225 -56.5c-60 0 -109.667 15.5 -149 46.5s-60.333 73.5 -63 127.5c-18 -43.333 -44.5 -80.333 -79.5 -111s-77.5 -48.334 -127.5 -53.001c-11.333 -1.33301 -22.333 -2 -33 -2c-57.333 0 -106 15.333 -146 46
c-48 36 -80 84 -96 144c-11.333 40 -17 82.667 -17 128c0 23.333 1.33301 47.666 4 72.999c6.66699 55.333 19.834 112.666 39.501 171.999s46 117.5 79 174.5s70.5 108 112.5 153s90.667 81.333 146 109s112.666 41.5 171.999 41.5c44 0 87 -28.667 129 -86l28 70h207
l-184 -729l-7.5 -32.5c-1.66699 -7 -3.83398 -17.667 -6.50098 -32s-3.83398 -25.333 -3.50098 -33s1.33301 -16.167 3 -25.5s5.33398 -16.333 11.001 -21s12.834 -7.33398 21.501 -8.00098h12c73.333 0 142 45 206 135c68 95.333 110.667 209 128 341
c7.33301 42.667 11 84.334 11 125.001c0 13.333 -0.333008 27 -1 41c-3.33301 54 -10.833 104.833 -22.5 152.5s-31.167 91.5 -58.5 131.5s-60.166 74.5 -98.499 103.5s-85.5 51.5 -141.5 67.5s-118.667 24 -188 24c-146.667 0 -277.834 -36 -393.501 -108
s-208.667 -170.833 -279 -296.5s-116.833 -271.5 -139.5 -437.5c-9.33301 -59.333 -14 -115 -14 -167c0 -147.333 36.333 -267 109 -359c98 -124 258 -185.667 480 -185c126 0 256 20.333 390 61l20 -185c-164.667 -44.667 -316.667 -67 -456 -67zM945.002 403.002
c26.667 4.66699 54 19.5 82 44.5s49.333 61.167 64 108.5l117 472c-7.33301 10 -23.333 15 -48 15c-52.667 0 -103.5 -21.5 -152.5 -64.5s-89.5 -98.833 -121.5 -167.5s-52 -141.334 -60 -218.001c-2 -15.333 -3 -29.666 -3 -42.999c0 -40 7.33301 -74 22 -102
c16 -31.333 42 -47 78 -47c6.66699 0 14 0.666992 22 2z" />
    <glyph glyph-name="A" unicode="A" horiz-adv-x="1058" 
d="M-12 0l513 1658h305l165 -1658h-276l-28 388h-291l-110 -388h-278zM429 583h227l-42 685z" />
    <glyph glyph-name="B" unicode="B" horiz-adv-x="1131" 
d="M74 0l173.998 1658h404c76.667 0 142.667 -7 198 -21s103.333 -37 144 -69c40 -30.667 68 -74 84 -130c10.667 -36.667 16.334 -78 17.001 -124c0 -24.667 -1.66699 -50.667 -5 -78c-23.333 -206.667 -116.666 -321.334 -279.999 -344.001
c96 -20 164.667 -63.333 206 -130c31.333 -51.333 46.666 -118.333 45.999 -201c0 -25.333 -1.33301 -52.333 -4 -81c-15.333 -156 -66.666 -275 -153.999 -357s-206.333 -123 -357 -123h-473zM391.998 209.001l114.001 0.000976562c62.667 0 112.667 10 150 30
s65 49.167 83 87.5s30.333 90.166 37 155.499c2 22.667 3 44 3 64c0 68 -13.333 120 -40 156c-34.667 45.333 -98.334 68.333 -191.001 69h-97zM472.999 980.002l95.998 -0.000976562c90 0 154 19.333 192 58s61.667 103.667 71 195c2 16.667 3 32 3 46
c0 19.333 -1.66699 36.333 -5 51c-5.33301 26.667 -14 47.834 -26 63.501s-30.667 27.667 -56 36s-51.666 13.833 -78.999 16.5s-62.666 4 -105.999 4h-41z" />
    <glyph glyph-name="C" unicode="C" horiz-adv-x="1097" 
d="M514 -20c-71.333 0 -133.333 8.99805 -186 26.998s-94.667 43.333 -126 76s-56 72.334 -74 119.001c-17.333 46.667 -27.333 98 -30 154c-0.666992 16 -0.666992 32 0 48c0 42.667 2 87.334 6 134.001l61 577c9.33301 90 25 168 47 234s53 124.333 93 175
s92.333 88.834 157 114.501s141.667 38.5 231 38.5c82 0 151 -11 207 -33s98.667 -54.333 128 -97c29.333 -42 48.666 -91.667 57.999 -149c5.33301 -30.667 8 -64.334 8 -101.001c0 -31.333 -2 -64.333 -6 -99l-15 -142h-285l15 139c5.33301 52 8 93.333 8 124
c0 18.667 -1 33.667 -3 45c-10.667 54 -45.334 84.667 -104.001 92c-10 1.33301 -21 2 -33 2c-31.333 0 -58.333 -5 -81 -15s-40.667 -22.5 -54 -37.5s-24.666 -36 -33.999 -63s-16.166 -52.5 -20.499 -76.5s-8.5 -55.333 -12.5 -94l-72 -694c-4 -36 -6 -68.333 -6 -97
c0 -52 6.66699 -91.333 20 -118c20.667 -42 63.334 -63 128.001 -63c19.333 0 36.666 1.66699 51.999 5s29 9 41 17s22.333 16 31 24s16.167 19.5 22.5 34.5s11.666 28.333 15.999 40s8.33301 27.667 12 48s6.33398 37.5 8.00098 51.5s3.83398 33.333 6.50098 58l15 144h284
l-14 -135c-6.66699 -62 -16.834 -117.833 -30.501 -167.5s-33.334 -96.167 -59.001 -139.5s-56.667 -79.333 -93 -108s-81.166 -51.167 -134.499 -67.5s-114 -24.5 -182 -24.5z" />
    <glyph glyph-name="D" unicode="D" horiz-adv-x="1126" 
d="M392 208l89 -0.00195312c42.667 0 78.667 5.33301 108 16s52.333 23.167 69 37.5s30.5 38.833 41.5 73.5s18.5 65.334 22.5 92.001s9 68.334 15 125.001l63 596c5.33301 46 8 86.333 8 121c0 18 -0.666992 35 -2 51c-4 44 -21.167 76 -51.5 96s-79.5 30 -147.5 30h-85z
M74 -0.00195312l173.999 1658h383c99.333 0 181.333 -10 246 -30s115 -51.667 151 -95s59.333 -96.333 70 -159c6 -33.333 9 -71 9 -113c0 -36.667 -2.33301 -76.334 -7 -119.001l-63 -598c-10 -94.667 -27.167 -175 -51.5 -241s-58.666 -122.167 -102.999 -168.5
s-100.333 -80.333 -168 -102s-149.167 -32.5 -244.5 -32.5h-396z" />
    <glyph glyph-name="E" unicode="E" 
d="M74 0l174 1658h689l-22 -210h-393l-51 -482h312l-21 -209h-312l-59 -552h399l-22 -205h-694z" />
    <glyph glyph-name="F" unicode="F" horiz-adv-x="835" 
d="M74 0l174 1658h678l-21 -205h-382l-52 -489h304l-22 -208h-304l-79 -756h-296z" />
    <glyph glyph-name="G" unicode="G" horiz-adv-x="1136" 
d="M484 -22c-79.333 0 -146.333 12.998 -201 38.998s-96.334 63.667 -125.001 113c-28 50.667 -46.667 111.334 -56 182.001c-4.66699 33.333 -7 68.333 -7 105c0 42.667 3 88 9 136l57 539c8 76.667 19.667 144.334 35 203.001s36.5 112.5 63.5 161.5s60 89.333 99 121
s86.167 56.167 141.5 73.5s119 26 191 26c163.333 -0.666992 276.333 -41 339 -121c49.333 -62.667 74 -151 74 -265c0 -31.333 -2 -65 -6 -101l-9 -78h-282l8 81c4.66699 42.667 7 80.334 7 113.001c0 10.667 -0.333008 21 -1 31c-2 39.333 -14.667 69.333 -38 90
s-60 31 -110 31c-27.333 0 -51.5 -3.33301 -72.5 -10s-38.5 -17.5 -52.5 -32.5s-25.667 -30.333 -35 -46s-17.166 -36.5 -23.499 -62.5s-11 -49.333 -14 -70s-6.16699 -47.334 -9.5 -80.001l-69 -660c-4 -35.333 -6 -67.333 -6 -96
c0.666992 -54.667 7.66699 -97.667 21 -129c20 -47.333 65.333 -71 136 -71c71.333 0 123.333 25.833 156 77.5s54.667 131.167 66 238.5l14 131h-182l20 192h449l-89 -840h-191l-4 171c-64 -128.667 -165 -193 -303 -193z" />
    <glyph glyph-name="H" unicode="H" horiz-adv-x="1185" 
d="M74 0l174 1658h296l-73 -695h346l73 695h295l-174 -1658h-295l79 752h-346l-79 -752h-296z" />
    <glyph glyph-name="I" unicode="I" horiz-adv-x="557" 
d="M84 0l174 1658h291l-174 -1658h-291z" />
    <glyph glyph-name="J" unicode="J" horiz-adv-x="662" 
d="M-35 -35l21 209.002h6c86 0 145 13.333 177 40c32.667 28 53.667 85.667 63 173l133 1271h295l-134 -1279c-8.66699 -72.667 -21.5 -133.834 -38.5 -183.501s-41.5 -92.334 -73.5 -128.001s-73.167 -61.667 -123.5 -78s-111.833 -24.5 -184.5 -24.5h-141z" />
    <glyph glyph-name="K" unicode="K" horiz-adv-x="1077" 
d="M74 0l174 1658h296l-76 -725l407 725h281l-396 -741l257 -917h-294l-209 784l-73 -113l-71 -671h-296z" />
    <glyph glyph-name="L" unicode="L" horiz-adv-x="851" 
d="M74 0l174 1658h296l-153 -1453h399l-22 -205h-694z" />
    <glyph glyph-name="M" unicode="M" horiz-adv-x="1390" 
d="M70 0l202 1658h302l120 -1185l376 1185h296l-146 -1658h-225l102 1147l-364 -1147h-172l-124 1149l-139 -1149h-228z" />
    <glyph glyph-name="N" unicode="N" horiz-adv-x="1109" 
d="M74 0l174 1658h203l312 -954l100 954h245l-174 -1658h-192l-312 1000l-105 -1000h-251z" />
    <glyph glyph-name="O" unicode="O" horiz-adv-x="1146" 
d="M543 200c30 0 56.333 4.50391 79 13.5039s41 20.5 55 34.5s25.833 32.667 35.5 56s17 46.666 22 69.999s9.16699 51.333 12.5 84l78 748c2.66699 30 4 57.667 4 83c0 16.667 -0.666992 32.667 -2 48c-2.66699 37.333 -16.334 66.833 -41.001 88.5
s-61.334 32.5 -110.001 32.5c-37.333 0 -68.666 -5.83301 -93.999 -17.5s-45.166 -29.834 -59.499 -54.501s-25 -50.667 -32 -78s-12.5 -61.333 -16.5 -102l-78 -748c-2.66699 -32 -4 -61.333 -4 -88c0 -14.667 0.333008 -29.334 1 -44.001
c2.66699 -38.667 16.167 -69.334 40.5 -92.001s60.833 -34 109.5 -34zM520 -19.9961c-86.667 0 -159.5 12.332 -218.5 36.999s-104.333 61.167 -136 109.5s-52.5 105.166 -62.5 170.499c-5.33301 34 -8 70.667 -8 110c0 37.333 2.33301 77 7 119l65 613
c18 177.333 68.667 311.333 152 402s210 136 380 136s287 -45.667 351 -137c50 -70.667 74.667 -167 74 -289c0 -35.333 -2 -72.666 -6 -111.999l-65 -613c-18.667 -177.333 -70 -312.666 -154 -405.999s-210.333 -140 -379 -140z" />
    <glyph glyph-name="P" unicode="P" horiz-adv-x="1049" 
d="M74 0l174 1658h469c146 0 249 -40 309 -120c47.333 -62.667 70.666 -147.667 69.999 -255c0 -30 -1.66699 -61.667 -5 -95c-16 -152 -66.167 -263.833 -150.5 -335.5s-196.166 -107.5 -335.499 -107.5h-157l-78 -745h-296zM470 953h95.002
c87.333 0 148.166 16.833 182.499 50.5s56.166 95.834 65.499 186.501c4.66699 37.333 7 70.666 7 99.999c0 20 -1 37.333 -3 52c-5.33301 38.667 -23 66.167 -53 82.5s-78.333 24.5 -145 24.5h-97z" />
    <glyph glyph-name="Q" unicode="Q" horiz-adv-x="1146" 
d="M836 -343c-43.333 28.667 -92.668 75.001 -148.001 139.001s-99.666 125.667 -132.999 185c-7.33301 -0.666992 -19 -1 -35 -1c-86.667 0 -159.5 12.333 -218.5 37s-104.333 61.167 -136 109.5s-52.5 105.166 -62.5 170.499c-5.33301 34 -8 70.667 -8 110
c0 37.333 2.33301 77 7 119l65 613c18 177.333 68.667 311.333 152 402s210 136 380 136s287 -45.667 351 -137c50 -70.667 74.667 -167 74 -289c0 -35.333 -2 -72.666 -6 -111.999l-65 -613c-26.667 -258 -121 -424 -283 -498c24 -40.667 57.667 -85.334 101 -134.001
s79 -84 107 -106zM542.998 200.001c30 0 56.333 4.50391 79 13.5039s41 20.5 55 34.5s25.833 32.667 35.5 56s17 46.666 22 69.999s9.16699 51.333 12.5 84l78 748c2.66699 30 4 57.667 4 83c0 16.667 -0.666992 32.667 -2 48c-2.66699 37.333 -16.334 66.833 -41.001 88.5
s-61.334 32.5 -110.001 32.5c-37.333 0 -68.666 -5.83301 -93.999 -17.5s-45.166 -29.834 -59.499 -54.501s-25 -50.667 -32 -78s-12.5 -61.333 -16.5 -102l-78 -748c-2.66699 -32 -4 -61.333 -4 -88c0 -14.667 0.333008 -29.334 1 -44.001
c2.66699 -38.667 16.167 -69.334 40.5 -92.001s60.833 -34 109.5 -34z" />
    <glyph glyph-name="R" unicode="R" horiz-adv-x="1121" 
d="M74 0l173.999 1658h373c87.333 0 161.5 -7.33301 222.5 -22s112.833 -38.834 155.5 -72.501s72.334 -79.167 89.001 -136.5c10.667 -38 16 -81.333 16 -130c0 -25.333 -1.33301 -52.333 -4 -81c-22 -209.333 -104.667 -342 -248 -398l153 -818h-291l-127 758h-137
l-80 -758h-296zM469.999 950.001h69.998c90.667 0 157.334 18.833 200.001 56.5s69 103.167 79 196.5c2 22 3 42.333 3 61c0 58.667 -11 102.667 -33 132c-29.333 38.667 -88.666 58 -177.999 58h-88z" />
    <glyph glyph-name="S" unicode="S" horiz-adv-x="1003" 
d="M486 -20c-271.333 0 -407.004 146.332 -407.004 438.999c0 20.667 0.666992 42.334 2 65.001l264 56c-2 -26.667 -3 -51.667 -3 -75c0 -171.333 53.667 -257 161 -257c47.333 0 83.833 14.167 109.5 42.5s41.167 67.166 46.5 116.499c1.33301 12.667 2 24.667 2 36
c0 32.667 -4.66699 63 -14 91c-12.667 38.667 -28.667 69.834 -48 93.501s-47.666 53.5 -84.999 89.5l-203 195c-56.667 55.333 -97.334 113 -122.001 173c-18 43.333 -27 94.666 -27 153.999c0 22.667 1.33301 46.334 4 71.001c13.333 128 61.333 227.5 144 298.5
s189.334 107.167 320.001 108.5h8c56.667 0.666992 106.334 -6.33301 149.001 -21c44.667 -14.667 80.834 -35.167 108.501 -61.5s49.834 -59.166 66.501 -98.499c17.333 -38.667 28.666 -79.334 33.999 -122.001c4.66699 -34.667 6.66699 -72.667 6 -114v-30l-258 -52
c2 22 3 43 3 63c0.666992 15.333 0.333984 30.333 -0.999023 45c-2.66699 34 -8.16699 64 -16.5 90s-23.166 46 -44.499 60c-18.667 12 -42 18 -70 18h-12c-46.667 -2.66699 -83.667 -17.667 -111 -45s-43.666 -64.333 -48.999 -111c-1.33301 -12.667 -2 -24.667 -2 -36
c-0.666992 -36 5.66602 -67.333 18.999 -94c17.333 -34.667 45.666 -71 84.999 -109l203 -194c68 -67.333 120 -139 156 -215c27.333 -58 41.333 -123.333 42 -196c0 -22 -1.33301 -44.667 -4 -68c-12.667 -120.667 -61 -218.5 -145 -293.5s-187.667 -112.5 -311 -112.5z
" />
    <glyph glyph-name="T" unicode="T" horiz-adv-x="860" 
d="M237 0l151 1440h-280l23 218h847l-23 -218h-272l-151 -1440h-295z" />
    <glyph glyph-name="U" unicode="U" horiz-adv-x="1149" 
d="M523 -20c-91.333 0 -166.498 13.334 -225.498 40.001s-102.333 65 -130 115s-45.5 111 -53.5 183c-3.33301 28.667 -4.66602 59 -3.99902 91c0 47.333 3.33301 97.666 10 150.999l115 1098h286l-118 -1126c-4 -40 -6.66699 -74 -8 -102
c-0.666992 -7.33301 -1 -14.666 -1 -21.999c0 -22 1.66699 -44.333 5 -67c4 -30.667 11.167 -55.334 21.5 -74.001s26.166 -34 47.499 -46s47.666 -18 78.999 -18s58.666 6.16699 81.999 18.5s42.166 27.666 56.499 45.999s26.5 42.833 36.5 73.5s17.333 60 22 88
s9.33398 62.333 14.001 103l118 1126h286l-116 -1098c-8 -76 -19 -142.5 -33 -199.5s-34 -110.167 -60 -159.5s-57.833 -89.666 -95.5 -120.999s-84.5 -55.833 -140.5 -73.5s-120.667 -26.5 -194 -26.5z" />
    <glyph glyph-name="V" unicode="V" horiz-adv-x="1053" 
d="M335 0l-166 1658h264l101 -1158l331 1158h268l-515 -1658h-283z" />
    <glyph glyph-name="W" unicode="W" horiz-adv-x="1473" 
d="M259 0l-68 1658h249l26 -1080l296 1080h199l72 -1081l253 1081h244l-415 -1658h-233l-75 1118l-308 -1118h-240z" />
    <glyph glyph-name="X" unicode="X" horiz-adv-x="1018" 
d="M-29 0l427 879l-244 779h277l164 -520l243 520h261l-410 -828l259 -830h-276l-176 562l-265 -562h-260z" />
    <glyph glyph-name="Y" unicode="Y" horiz-adv-x="998" 
d="M309 0l66 626l-231 1032h275l139 -674l272 674h274l-447 -1032l-65 -626h-283z" />
    <glyph glyph-name="Y" unicode="&#x4ae;" horiz-adv-x="998" 
d="M309 0l66 626l-231 1032h275l139 -674l272 674h274l-447 -1032l-65 -626h-283z" />
    <glyph glyph-name="Z" unicode="Z" 
d="M25 0l20 195l576 1258h-421l21 205h725l-15 -143l-603 -1310h467l-22 -205h-748z" />
    <glyph glyph-name="bracketleft" unicode="[" horiz-adv-x="705" 
d="M27 -387l216 2045h490l-12 -123h-244l-189 -1798h243l-13 -124h-491z" />
    <glyph glyph-name="backslash" unicode="\" horiz-adv-x="806" 
d="M488 0l-292 1658h196l291 -1658h-195z" />
    <glyph glyph-name="bracketright" unicode="]" horiz-adv-x="654" 
d="M-45 -387l13 124h244l188 1797h-244l13 124h491l-215 -2045h-490z" />
    <glyph glyph-name="asciicircum" unicode="^" horiz-adv-x="951" 
d="M121 980l354 678h248l213 -678h-249l-111 459l-207 -459h-248z" />
    <glyph glyph-name="underscore" unicode="_" horiz-adv-x="727" 
d="M-82 -310l20 196h727l-20 -196h-727z" />
    <glyph glyph-name="grave" unicode="`" horiz-adv-x="608" 
d="M432 1249l-203 409h278l78 -409h-153z" />
    <glyph glyph-name="a" unicode="a" horiz-adv-x="922" 
d="M282 -18c-74 0.666992 -131.673 29.668 -173.006 87.001c-35.333 48.667 -53 103 -53 163c0 10.667 0.666992 21.334 2 32.001c4.66699 40.667 13.334 78.5 26.001 113.5s28.167 65.667 46.5 92s40 51 65 74s50.5 42.667 76.5 59s55 32.166 87 47.499
s62.167 28.666 90.5 39.999s59.166 23 92.499 35l41 15l10 98c2 22 3 42 3 60v26c-1.33301 24 -8.66602 42.167 -21.999 54.5s-33 18.5 -59 18.5c-65.333 0 -102.666 -44.667 -111.999 -134l-11 -73l-264 11l3.5 22c1.66699 10.667 2.83398 17.667 3.50098 21
c20.667 123.333 66.334 213.833 137.001 271.5s166 86.5 286 86.5c116.667 0 199.667 -31.667 249 -95c39.333 -50.667 59 -118 59 -202c0 -21.333 -1.33301 -44 -4 -68l-57 -540c-6.66699 -62.667 -10 -133 -10 -211c0 -28 0.333008 -56.667 1 -86h-248
c-8 75.333 -12 133.333 -12 174c-21.333 -54 -53.666 -99.5 -96.999 -136.5s-95.666 -55.5 -156.999 -55.5zM409.994 197.001c21.333 0 43.833 8.33203 67.5 24.999s42.5 33.334 56.5 50.001l34 325c-148 -76.667 -227.333 -163.667 -238 -261
c-1.33301 -10.667 -2 -21 -2 -31c0 -29.333 5.33301 -53 16 -71c14 -24.667 36 -37 66 -37z" />
    <glyph glyph-name="b" unicode="b" horiz-adv-x="973" 
d="M551 -18c-74 0 -143 35.001 -207 105.001l-9 -87h-274l174 1658h274l-59 -565c80 72.667 162 109 246 109h2c30.667 0 58.334 -5.16699 83.001 -15.5s45.167 -23.833 61.5 -40.5s30.166 -36.5 41.499 -59.5s19.666 -46.5 24.999 -70.5
c4.66699 -23.333 8.33398 -48.666 11.001 -75.999c2 -24 3.33301 -46 4 -66v-9c0 -22.667 -1.66699 -45.334 -5 -68.001l-40 -377c-6 -60.667 -16.667 -116.167 -32 -166.5s-35.833 -96.333 -61.5 -138s-58.5 -74.334 -98.5 -98.001s-85.333 -35.5 -136 -35.5zM481 180.001
c21.333 0 39.666 6.00195 54.999 18.002s27.333 29.833 36 53.5s15.334 47.667 20.001 72s8.66699 54.166 12 89.499l42 394c2 26 3 50.667 3 74c-0.666992 8.66699 -1 17 -1 25c-1.33301 29.333 -9 54 -23 74c-14 19.333 -34.333 29 -61 29h-3
c-39.333 -0.666992 -81 -16.667 -125 -48l-79 -743c36.667 -24.667 78 -37.334 124 -38.001z" />
    <glyph glyph-name="c" unicode="c" horiz-adv-x="893" 
d="M407 -18c-69.333 0 -127.331 10.334 -173.998 31.001s-81.834 50.167 -105.501 88.5s-39.5 84.833 -47.5 139.5c-4 26.667 -6.33301 55 -7 85c0 31.333 2.33301 64.333 7 99l35 334c15.333 145.333 55.666 255.5 120.999 330.5s165.333 112.5 300 112.5
c126 0 213.667 -29.667 263 -89c38.667 -46.667 58 -113.667 58 -201c0 -24 -1.33301 -49.333 -4 -76l-10 -94h-255l10 98c2.66699 22 4 42 4 60c0 30.667 -4 53.667 -12 69c-12 24.667 -36 37 -72 37c-40.667 0 -69.5 -14.5 -86.5 -43.5s-29.5 -82.833 -37.5 -161.5
l-44 -425c-3.33301 -30.667 -5 -57.334 -5 -80.001c-0.666992 -36 3 -62 11 -78c12 -26.667 37.167 -40 75.5 -40s65.5 13 81.5 39s27 66 33 120l13 124h255l-11 -109c-13.333 -123.333 -51.833 -215.833 -115.5 -277.5s-157.167 -92.5 -280.5 -92.5z" />
    <glyph glyph-name="d" unicode="d" horiz-adv-x="963" 
d="M326 -18h-3.00293c-96.667 0 -165 34.333 -205 103c-28.667 49.333 -43 120 -43 212c0 36.667 2.33301 76.667 7 120l34 330c6.66699 64.667 17.334 123 32.001 175s34.834 99.667 60.501 143s58.834 77 99.501 101s87.667 36 141 36c74 0 140.333 -30.333 199 -91
l57 547h274l-174 -1658h-274l9 80c-70.667 -65.333 -142 -98 -214 -98zM439.997 180c34 0 72 10.667 114 32l79 757c-36 24.667 -71.667 37 -107 37c-72 0 -114.667 -62 -128 -186l-44 -424c-2.66699 -33.333 -4 -64 -4 -92v-16c0.666992 -32 8.5 -58 23.5 -78
s37.167 -30 66.5 -30z" />
    <glyph glyph-name="e" unicode="e" horiz-adv-x="909" 
d="M412 -18c-136 0 -229.33 37.333 -279.997 112c-38.667 57.333 -57.667 136 -57 236c0 30.667 1.66699 63.334 5 98.001l35 326c15.333 148.667 56.333 260.5 123 335.5s166.667 112.5 300 112.5c71.333 0 130.166 -10.833 176.499 -32.5s80.166 -52.834 101.499 -93.501
c22.667 -41.333 36.667 -91.333 42 -150c2 -22 3 -45.333 3 -70c0 -40 -3 -83.333 -9 -130l-16 -148h-467l-19 -174c-4 -40 -6.66699 -76.667 -8 -110v-11c0 -28.667 6.33301 -52.334 19 -71.001c14 -21.333 37.333 -31.666 70 -30.999c39.333 0 67.666 13.5 84.999 40.5
s28.333 66.5 33 118.5l10 91h261l-8 -70c-12.667 -122.667 -52.5 -216.5 -119.5 -281.5s-160.5 -97.5 -280.5 -97.5zM384.003 717l205 -0.000976562l12 113c2 20.667 3 39.334 3 56.001c0 33.333 -4 58.666 -12 75.999c-12 26.667 -37.333 40.334 -76 41.001
c-40 0 -68.667 -15 -86 -45s-30.333 -85.333 -39 -166z" />
    <glyph glyph-name="f" unicode="f" horiz-adv-x="621" 
d="M117 0l104.001 987.999h-130l20 196h130l7 61c5.33301 48.667 11.666 89.834 18.999 123.501s18.5 66.5 33.5 98.5s34 57.5 57 76.5s52.667 34.167 89 45.5s79.166 17 128.499 17c38 0 88.333 -3.66699 151 -11l-22 -204c-4.66699 0.666992 -16.167 2.5 -34.5 5.5
s-32.166 4.5 -41.499 4.5c-33.333 0 -58 -10.833 -74 -32.5s-26 -53.167 -30 -94.5l-10 -90h168l-20 -196h-168l-104 -988h-273z" />
    <glyph glyph-name="g" unicode="g" horiz-adv-x="943" 
d="M425 -359c-35.333 0 -66.166 0.332031 -92.499 0.999023s-56.666 2.5 -90.999 5.5s-63.5 7.16699 -87.5 12.5s-48.5 12.833 -73.5 22.5s-45 21.334 -60 35.001s-26.5 30.834 -34.5 51.501c-6 15.333 -9 32.333 -9 51c0 6 0.333008 12.333 1 19
c11.333 102.667 75.666 186.667 192.999 252c-74 26.667 -111 69.667 -111 129c0 44 13 82.333 39 115c24.667 30.667 64.334 66.667 119.001 108c-40.667 33.333 -69.334 75.333 -86.001 126c-10.667 32.667 -16 72.334 -16 119.001c0 26 1.66699 54.333 5 85
c30 286 166 429 408 429c123.333 0 203.333 -39 240 -117c16 17.333 40.167 38.333 72.5 63s65.833 45 100.5 61l41 18l48 -156c-24 -6 -60.833 -18 -110.5 -36s-82.5 -31.667 -98.5 -41c9.33301 -23.333 16.333 -56.333 21 -99c2.66699 -22.667 4 -45.334 4 -68.001
c0 -19.333 -1 -38.666 -3 -57.999c-29.333 -271.333 -160.666 -407 -393.999 -407c-18.667 0 -44.334 2.66699 -77.001 8s-53.334 10 -62.001 14c-26 -33.333 -39.333 -59 -40 -77c-0.666992 -14.667 6.83301 -26 22.5 -34s41.167 -13.667 76.5 -17
c5.33301 -0.666992 38.5 -4 99.5 -10s97.5 -10 109.5 -12c96.667 -10.667 165.667 -39.334 207 -86.001c33.333 -38 50.333 -89.667 51 -155c0 -14.667 -1 -30.334 -3 -47.001c-12 -105.333 -49.5 -182.5 -112.5 -231.5s-161.833 -73.5 -296.5 -73.5zM444 -164.001
c57.333 0 99.667 7.49902 127 22.499s43.666 39.167 48.999 72.5c1.33301 8 2 15.333 2 22c0 24 -7.33301 42.667 -22 56c-18.667 16.667 -54 27.334 -106 32.001l-187 17c-47.333 -49.333 -72.666 -93.333 -75.999 -132c-0.666992 -4 -1 -8 -1 -12
c0 -16.667 3.66699 -29.667 11 -39c8.66699 -12 29.167 -21.5 61.5 -28.5s79.5 -10.5 141.5 -10.5zM462.001 541.998c47.333 0 80.001 17.3311 98.001 51.998s32 96.334 42 185.001c5.33301 50 8 92 8 126v11c-0.666992 36 -8.33398 63 -23.001 81s-38.667 27 -72 27
c-48 0 -81 -18 -99 -54s-31.667 -99.667 -41 -191c-4.66699 -41.333 -7 -77.666 -7 -108.999v-18c1.33301 -34.667 9.5 -61.667 24.5 -81s38.167 -29 69.5 -29z" />
    <glyph glyph-name="h" unicode="h" horiz-adv-x="973" 
d="M62 0l174.001 1658h274l-61 -590c104 89.333 207 134 309 134c46 0 82.5 -13 109.5 -39s44.167 -57 51.5 -93c4 -21.333 6 -44 6 -68c0 -17.333 -1 -35.333 -3 -54l-99 -948h-274l92 885c1.33301 12.667 2 24.334 2 35.001c-0.666992 20 -3.66699 36 -9 48
c-9.33301 18.667 -29.333 28 -60 28c-36.667 -0.666992 -83.334 -20.667 -140.001 -60l-98 -936h-274z" />
    <glyph glyph-name="i" unicode="i" horiz-adv-x="505" 
d="M67 0l124 1184h274l-124 -1184h-274zM211 1370l25 236h275l-25 -236h-275z" />
    <glyph glyph-name="j" unicode="j" horiz-adv-x="513" 
d="M-113 -304l19.999 196.999c18.667 -4.66699 38.334 -7 59.001 -7c71.333 0 111.333 40.667 120 122l123 1176h274l-126 -1207c-10 -93.333 -44 -166.666 -102 -219.999s-134 -80 -228 -80c-56 0 -102.667 6.33301 -140 19zM227.999 1370l25 236h277l-25 -236h-277z" />
    <glyph glyph-name="k" unicode="k" horiz-adv-x="975" 
d="M61 2l174 1658h273l-100 -952l346 475l296 1l-338 -473l209 -711h-286l-149 584l-105 -130l-47 -452h-273z" />
    <glyph glyph-name="l" unicode="l" horiz-adv-x="514" 
d="M75 0l174 1658h275l-174 -1658h-275z" />
    <glyph glyph-name="m" unicode="m" horiz-adv-x="1440" 
d="M58 0l123.996 1184h273l-10 -107c98 83.333 198 125 300 125c89.333 0 143 -47 161 -141c105.333 94 211.333 141 318 141c34.667 0 64.334 -7.33301 89.001 -22s42.334 -34 53.001 -58s18.334 -51.333 23.001 -82c2.66699 -15.333 3.83398 -30.666 3.50098 -45.999
s-1.5 -30.666 -3.5 -45.999l-100 -948h-273l92 885c1.33301 12.667 2 24.334 2 35.001c0 20 -2.66699 36 -8 48c-9.33301 18.667 -30 28 -62 28c-35.333 -0.666992 -79.333 -18.667 -132 -54c0 -7.33301 -0.333008 -11.333 -1 -12l-98 -930h-272l92 885
c1.33301 11.333 2 22 2 32c0.666992 22 -2.33301 39 -9 51c-9.33301 18.667 -30 28 -62 28c-34 -0.666992 -77.333 -18.334 -130 -53.001l-99 -943h-273z" />
    <glyph glyph-name="n" unicode="n" horiz-adv-x="963" 
d="M58 0l123.999 1184h274l-12 -116c105.333 89.333 206.333 134 303 134c34.667 0 64.334 -7.33301 89.001 -22s42.5 -34 53.5 -58s18.833 -51.333 23.5 -82c2 -14 3 -28.333 3 -43c0 -16.667 -1.33301 -33 -4 -49l-99 -948h-274l92 885c1.33301 12 2 23 2 33
c0 21.333 -3 38 -9 50c-8.66699 18.667 -28.667 28 -60 28c-36.667 -0.666992 -81 -19.334 -133 -56.001l-99 -940h-274z" />
    <glyph glyph-name="o" unicode="o" horiz-adv-x="923" 
d="M429 176c19.333 0 36.001 3.83008 50.001 11.4971s25.167 17.167 33.5 28.5s15.5 26.833 21.5 46.5s10.167 37.834 12.5 54.501s4.83301 37.667 7.5 63l45 423c2 36.667 3.66699 70.334 5 101.001c0 2 0.333008 3.66699 1 5c-0.666992 27.333 -7.66699 50.333 -21 69
c-14.667 20 -37 30 -67 30c-18.667 0 -35.167 -4 -49.5 -12s-25.666 -17.667 -33.999 -29s-15.333 -27 -21 -47s-9.83398 -38.167 -12.501 -54.5s-5.33398 -37.166 -8.00098 -62.499l-45 -423c-3.33301 -46 -5 -80.667 -5 -104c0 -28 6.66699 -51.333 20 -70
c14 -20 36.333 -30 67 -30zM408.001 -18.0029c-128 0 -218.667 36.002 -272 108.002c-42.667 57.333 -63.667 134 -63 230c0 25.333 1.33301 51.666 4 78.999l40 386c14.667 133.333 56.5 236.166 125.5 308.499s167.167 108.5 294.5 108.5s218.333 -36 273 -108
c43.333 -57.333 65 -133.333 65 -228c0 -25.333 -1.66699 -52.333 -5 -81l-40 -386c-14.667 -134 -56.667 -237 -126 -309s-168 -108 -296 -108z" />
    <glyph glyph-name="p" unicode="p" horiz-adv-x="970" 
d="M17 -390l165.001 1574h274l-9 -91c80 72.667 162 109 246 109h2c30.667 0 58.334 -5.16699 83.001 -15.5s45.167 -23.833 61.5 -40.5s30.166 -36.5 41.499 -59.5s19.666 -46.333 24.999 -70s9.33301 -49.167 12 -76.5c2 -24 3 -46 3 -66
c-0.666992 -2.66699 -1 -5.66699 -1 -9c0 -22.667 -1.33301 -45.334 -4 -68.001l-39 -377c-6 -60.667 -16.667 -116.167 -32 -166.5s-35.833 -96.333 -61.5 -138s-58.667 -74.334 -99 -98.001s-85.833 -35.5 -136.5 -35.5c-74 0 -143 35.333 -207 106l-50 -478h-274z
M477.001 180.002c21.333 0 39.668 6.00195 55.001 18.002s27.5 29.833 36.5 53.5s15.833 47.667 20.5 72s8.66699 54.166 12 89.499l42 394c2 26 3 50.667 3 74v25c-1.33301 29.333 -9.33301 54 -24 74c-14 19.333 -34.333 29 -61 29h-3
c-36.667 -0.666992 -78.334 -16.334 -125.001 -47.001l-79 -743c38 -25.333 79 -38.333 123 -39z" />
    <glyph glyph-name="q" unicode="q" horiz-adv-x="965" 
d="M493 -390l50.001 472c-72 -66.667 -144 -100 -216 -100h-3c-96 0 -164 34.333 -204 103c-28.667 49.333 -43.334 120 -44.001 212c0 36.667 2.33301 76.667 7 120l34 330c31.333 303.333 142.333 455 333 455c74 0 141 -31 201 -93l7 75h274l-165 -1574h-274z
M442.001 180c32.667 0 71.002 11 115.002 33l79 755c-36.667 25.333 -73 38 -109 38c-38.667 0 -68.167 -17.5 -88.5 -52.5s-33.5 -79.5 -39.5 -133.5l-45 -424c-2.66699 -30.667 -4 -59 -4 -85v-23c1.33301 -32 9.66602 -58 24.999 -78s37.666 -30 66.999 -30z" />
    <glyph glyph-name="r" unicode="r" horiz-adv-x="705" 
d="M62 0l124.001 1184h274l-18 -180c87.333 130 177.333 195 270 195c14 0 28 -1.66699 42 -5l-30 -274c-31.333 12 -64.333 18 -99 18c-39.333 -1.33301 -74.833 -10.833 -106.5 -28.5s-63.834 -48.167 -96.501 -91.5l-86 -818h-274z" />
    <glyph glyph-name="s" unicode="s" horiz-adv-x="807" 
d="M359 -18c-98 0 -175.333 27.498 -232 82.498s-90.334 133.833 -101.001 236.5l218 75c14.667 -133.333 60.334 -200 137.001 -200h3c30.667 1.33301 56.667 12.333 78 33s32.666 46.334 33.999 77.001v5c0 42.667 -31.667 94 -95 154l-150 141
c-90.667 84.667 -136 173.667 -136 267c0 12.667 1 25.667 3 39c12 94.667 51.5 170 118.5 226s148.833 84 245.5 84c92 0 163.833 -28.167 215.5 -84.5s80.5 -131.166 86.5 -224.499l-189 -75c-11.333 123.333 -51.666 185.333 -120.999 186h-3
c-28.667 0 -52.667 -9.33301 -72 -28c-20 -18.667 -31.333 -41.334 -34 -68.001v-7c0 -34.667 26 -78 78 -130l153 -154c51.333 -48.667 90.333 -97.667 117 -147c21.333 -39.333 32 -84.666 32 -135.999c0 -12.667 -0.666992 -25.667 -2 -39
c-10.667 -100 -51.667 -177.167 -123 -231.5s-158.333 -81.5 -261 -81.5z" />
    <glyph glyph-name="t" unicode="t" horiz-adv-x="676" 
d="M385 -16c-53.333 0.666992 -97.8311 9.66699 -133.498 27s-61.834 40.833 -78.501 70.5s-27.667 65.167 -33 106.5c-2.66699 20 -4.33398 41.333 -5.00098 64c0 23.333 1.66699 48 5 74l72 676h-117l19 182h116l37 347h275l-36 -347h181l-19 -182h-181l-73 -689
c-0.666992 -8 -1 -15.667 -1 -23c-0.666992 -26.667 5 -47.334 17 -62.001c14.667 -17.333 41.334 -26.666 80.001 -27.999c25.333 0 53.666 2.33301 84.999 7l-22 -210c-80.667 -8.66699 -140.667 -13 -180 -13h-8z" />
    <glyph glyph-name="u" unicode="u" horiz-adv-x="960" 
d="M239 -18c-34.667 0 -64.168 7.16797 -88.501 21.501s-42.166 34.166 -53.499 59.499c-11.333 26 -19 53 -23 81c-2 14.667 -2.66699 30 -2 46c0 14.667 0.666992 30 2 46l99 948h274l-93 -889c-1.33301 -10.667 -2 -20.667 -2 -30c0 -22 3.33301 -39.667 10 -53
c9.33301 -18 29 -27 59 -27h3c34 0 76.333 17.333 127 52l100 947h274l-124 -1184h-274l11 111c-103.333 -86 -203 -129 -299 -129z" />
    <glyph glyph-name="v" unicode="v" horiz-adv-x="822" 
d="M207 0l-106 1184h269l29 -869l209 869h264l-351 -1184h-314z" />
    <glyph glyph-name="w" unicode="w" horiz-adv-x="1216" 
d="M184 0l-58 1184h226l23 -777l210 777h202l41 -780l192 780h219l-314 -1184h-231l-55 748l-217 -748h-238z" />
    <glyph glyph-name="x" unicode="x" horiz-adv-x="841" 
d="M-32 0l323 633l-193 551h268l117 -331l165 331h242l-317 -589l209 -595h-269l-127 362l-174 -362h-244z" />
    <glyph glyph-name="y" unicode="y" horiz-adv-x="849" 
d="M28 -314l21 199.001c86.667 0.666992 144.334 9 173.001 25c24.667 14 37 41.667 37 83c0 6.66699 -0.333008 13.667 -1 21c-2.66699 28.667 -10 86 -22 172l-148 998h270l65 -787l212 787h270l-412 -1245c-30.667 -92.667 -82 -158.334 -154 -197.001
c-70.667 -38 -161.334 -56.667 -272.001 -56h-6h-33z" />
    <glyph glyph-name="z" unicode="z" horiz-adv-x="750" 
d="M17 0l19 180l427 801h-311l21 203h601l-16 -156l-429 -824h339l-21 -204h-630z" />
    <glyph glyph-name="braceleft" unicode="{" horiz-adv-x="687" 
d="M540 -403c-50.667 0 -94.001 1.16504 -130.001 3.49805s-68.667 7 -98 14s-53.333 14.833 -72 23.5s-34.5 21.834 -47.5 39.501s-22.5 35.834 -28.5 54.501c-6.66699 17.333 -10.667 42 -12 74c-0.666992 14.667 -1 29 -1 43c0 16.667 0.666992 33.667 2 51
c2 30.667 5.66699 70.667 11 120l26 245c4.66699 44.667 8 80.667 10 108c1.33301 16.667 2 32.334 2 47.001c0 10 -0.333008 19.333 -1 28c-1.33301 22.667 -3.83301 39.5 -7.5 50.5s-10.167 20.333 -19.5 28s-19.833 12.5 -31.5 14.5s-27.5 3 -47.5 3l20 191
c29.333 0 51.666 2.5 66.999 7.5s29 18.167 41 39.5s20.833 48.666 26.5 81.999s12.167 83.333 19.5 150l26 245c4.66699 48 9.33398 87.667 14.001 119s11 62.833 19 94.5s17 56.667 27 75s23.333 36.333 40 54s35.334 30.834 56.001 39.501s46.334 16.5 77.001 23.5
s64.334 11.667 101.001 14s80.334 3.5 131.001 3.5l-21 -194c-24.667 0 -44.5 -0.666992 -59.5 -2s-28.833 -5.66602 -41.5 -12.999s-22.167 -15.166 -28.5 -23.499s-12.5 -22.833 -18.5 -43.5s-10.333 -41.667 -13 -63s-6 -51.666 -10 -90.999l-30 -273
c-10.667 -106.667 -31.334 -186.834 -62.001 -240.501s-73.334 -86.834 -128.001 -99.501c52 -12.667 87.667 -45.667 107 -99c12 -34 18 -78.333 18 -133c0 -32 -2 -67.667 -6 -107l-28 -273c-3.33301 -29.333 -5.83301 -53 -7.5 -71s-2.5 -36.167 -2.5 -54.5
s0.666992 -32.333 2 -42s4.16602 -19.334 8.49902 -29.001s9.5 -16.5 15.5 -20.5s14.333 -7.83301 25 -11.5s22.167 -5.83398 34.5 -6.50098s27.833 -1 46.5 -1z" />
    <glyph glyph-name="bar" unicode="|" horiz-adv-x="516" 
d="M52 -330l210 1989h241l-210 -1989h-241z" />
    <glyph glyph-name="braceright" unicode="}" horiz-adv-x="722" 
d="M-4 -403l21 194.002c24.667 0 44.5 0.666992 59.5 2s28.833 5.66602 41.5 12.999s22.167 15.166 28.5 23.499s12.5 22.833 18.5 43.5s10.333 41.5 13 62.5s6.33398 51.5 11.001 91.5l28 273c11.333 106 32.5 186 63.5 240s73.833 87 128.5 99
c-51.333 12.667 -87 46 -107 100c-12.667 34 -19 78.667 -19 134c0 32 2 67.333 6 106l29 273c4 40 6.66699 70.333 8 91s1.33301 41.5 0 62.5s-4.33301 35.667 -9 44s-12.5 16.166 -23.5 23.499s-24 11.666 -39 12.999s-34.833 2 -59.5 2l21 194
c40 0 75.333 -0.666992 106 -2s59.167 -4.16602 85.5 -8.49902s49 -9.16602 68 -14.499s36 -13.166 51 -23.499s27.333 -20.833 37 -31.5s17.667 -25 24 -43s10.666 -36 12.999 -54s3.5 -40.667 3.5 -68s-1 -54.166 -3 -80.499s-5 -58.833 -9 -97.5l-26 -245
c-4.66699 -44.667 -8 -80.667 -10 -108c-1.33301 -16.667 -2 -32.334 -2 -47.001c0 -10 0.333008 -19.333 1 -28c1.33301 -22.667 3.83301 -39.5 7.5 -50.5s10.167 -20.333 19.5 -28s19.833 -12.5 31.5 -14.5s27.5 -3 47.5 -3l-20 -191c-24 0 -42.833 -2 -56.5 -6
s-26.167 -10.5 -37.5 -19.5s-20.333 -25 -27 -48s-12.5 -49.5 -17.5 -79.5s-10.167 -72 -15.5 -126l-26 -245c-5.33301 -48.667 -10.166 -88.5 -14.499 -119.5s-10.666 -62.333 -18.999 -94s-17.333 -56.667 -27 -75s-22.834 -36.333 -39.501 -54
s-35.334 -30.834 -56.001 -39.501s-46.5 -16.5 -77.5 -23.5s-64.667 -11.667 -101 -14s-79.833 -3.5 -130.5 -3.5z" />
    <glyph glyph-name="asciitilde" unicode="~" horiz-adv-x="956" 
d="M664 715c-30.667 0 -66.001 9.99902 -106.001 29.999l-115 60c-36.667 20 -67 30 -91 30c-17.333 0 -41 -8.16699 -71 -24.5s-58.333 -36.833 -85 -61.5l-79 125c36 40.667 80.333 78.834 133 114.501s97 53.5 133 53.5c30.667 0 65.667 -9.83301 105 -29.5l114 -59
c36.667 -19.667 66.667 -29.5 90 -29.5c30.667 0 82 29.667 154 89l85 -113c-33.333 -45.333 -76.166 -87.5 -128.499 -126.5s-98.5 -58.5 -138.5 -58.5z" />
    <glyph glyph-name="uni00A0" unicode="&#xa0;" horiz-adv-x="478" 
 />
    <glyph glyph-name="exclamdown" unicode="&#xa1;" horiz-adv-x="450" 
d="M2 -341l228 1276h96l-50 -1276h-274zM157 1049l28 266h267l-28 -266h-267z" />
    <glyph glyph-name="cent" unicode="&#xa2;" horiz-adv-x="849" 
d="M323 -195l19.002 180.001c-56 6 -103 20.667 -141 44s-66.667 53.833 -86 91.5s-32.333 82.167 -39 133.5c-2.66699 24 -4 49 -4 75c0 30.667 2 62.667 6 96l36 334c13.333 132 48 235.167 104 309.5s139.667 117.833 251 130.5l19 177h77l-18 -175
c122 -2 206.333 -32.333 253 -91c37.333 -46.667 56 -113.334 56 -200.001c0 -23.333 -1.33301 -48 -4 -74l-10 -94h-256l10 96c2.66699 22 4 42 4 60c0 30.667 -4 53.334 -12 68.001c-12 24 -36 36.333 -72 37c-40.667 0 -69.5 -14.5 -86.5 -43.5s-29.5 -82.5 -37.5 -160.5
l-44 -420c-3.33301 -30.667 -5 -57.334 -5 -80.001c-0.666992 -35.333 3 -61 11 -77c12 -26.667 37.167 -40.167 75.5 -40.5s65.666 12.5 81.999 38.5s27.166 66 32.499 120l13 121h255l-11 -109c-12.667 -121.333 -49.5 -212.833 -110.5 -274.5s-151.5 -93.5 -271.5 -95.5
l-19 -177h-77z" />
    <glyph glyph-name="sterling" unicode="&#xa3;" horiz-adv-x="895" 
d="M-34 0l15.0029 145.002l126 59l51 486h-119l21 209h120l19 180c5.33301 50.667 11 95.5 17 134.5s14.5 80.167 25.5 123.5s23.5 80.666 37.5 111.999s31.833 62.166 53.5 92.499s46.5 54.833 74.5 73.5s61.167 33.667 99.5 45s81.166 17 128.499 17
c60.667 0 111.667 -9.83301 153 -29.5s72 -46.834 92 -81.501c19.333 -36 32.666 -78 39.999 -126c4 -24 6 -49 6 -75s-2 -53.333 -6 -82l-6 -64h-222c2.66699 39.333 4.66699 76 6 110c0 2 0.333008 4.33301 1 7c-0.666992 30.667 -7.66699 56.667 -21 78
c-14.667 22.667 -36.667 34.334 -66 35.001c-18 0 -34 -5 -48 -15s-25.333 -22.167 -34 -36.5s-16.334 -34 -23.001 -59s-11.667 -47.5 -15 -67.5s-7 -45.667 -11 -77l-31 -296h238l-21 -208h-239l-49 -472h426l-23 -218h-816z" />
    <glyph glyph-name="currency" unicode="&#xa4;" horiz-adv-x="1138" 
d="M104 381l-27 30l180 162c-55.333 70 -83 150.667 -83 242c0 16.667 1 33.667 3 51c12 112.667 59.333 210.334 142 293.001l-146 162l33 30l145 -162c90 76.667 190.667 115 302 115h2.5h3.5c112.667 0 205.334 -38.333 278.001 -115l179 162l27 -30l-179 -162
c54.667 -70 82 -150.333 82 -241c0 -16.667 -1 -34 -3 -52c-12 -112.667 -59.333 -210.334 -142 -293.001l146 -162l-33 -30l-145 162c-88.667 -76.667 -189.334 -115 -302.001 -115h-2.5h-3.5c-111.333 0 -204 38.333 -278 115zM574 521c94 0 176.833 33.667 248.5 101
s112.5 148.666 122.5 243.999c1.33301 14 2 28 2 42c0 77.333 -24.333 144.666 -73 201.999c-57.333 67.333 -133.333 101 -228 101c-94 0 -176.667 -33.667 -248 -101s-112 -148.666 -122 -243.999c-1.33301 -14 -2 -28 -2 -42c0 -77.333 24.333 -144.666 73 -201.999
c57.333 -67.333 133 -101 227 -101z" />
    <glyph glyph-name="yen" unicode="&#xa5;" horiz-adv-x="958" 
d="M304 0l25 240h-174l17 159h174l13 126h-173l16 160h143l-207 973h276l135 -716l276 716h273l-409 -973h143l-17 -160h-173l-14 -126h174l-17 -159h-173l-26 -240h-282z" />
    <glyph glyph-name="brokenbar" unicode="&#xa6;" horiz-adv-x="442" 
d="M34 -330l88 835h205l-88 -835h-205zM155 823l87 835h206l-87 -835h-206z" />
    <glyph glyph-name="section" unicode="&#xa7;" horiz-adv-x="919" 
d="M405 -15c-51.333 0 -97.167 8.33203 -137.5 24.999s-73.333 40.167 -99 70.5s-46.334 64.166 -62.001 101.499s-26.5 79 -32.5 125l202 59c30 -113.333 81.333 -170 154 -170c37.333 0 67.833 8.83301 91.5 26.5s38.5 43.5 44.5 77.5c2 10 3 19.333 3 28
c0 21.333 -5 41.333 -15 60c-14 25.333 -39 50 -75 74l-202 131c-52.667 32.667 -91.667 70.334 -117 113.001c-19.333 32 -29 70.667 -29 116c0 14 1 28.667 3 44c8.66699 64.667 31 119.5 67 164.5s80.667 77.5 134 97.5c-45.333 28 -83 64.667 -113 110
c-25.333 38.667 -38 81 -38 127c0 8 0.333008 16 1 24c7.33301 93.333 48.5 166.833 123.5 220.5s167.167 80.5 276.5 80.5c101.333 0 179.5 -29.833 234.5 -89.5s88.833 -137.834 101.5 -234.501l-199 -58c-5.33301 22.667 -11.333 42.834 -18 60.501
s-15.834 35.834 -27.501 54.501s-26.834 33 -45.501 43s-40 15 -64 15c-35.333 0 -64 -9.33301 -86 -28s-35 -45.334 -39 -80.001c-0.666992 -3.33301 -1 -6.66602 -1 -9.99902c0 -39.333 25 -75.333 75 -108l214 -143c46.667 -30.667 81.334 -70 104.001 -118
c18 -38 27.333 -80 28 -126c0 -12 -0.666992 -24 -2 -36c-12.667 -109.333 -73 -195 -181 -257c46.667 -40 81.334 -80.667 104.001 -122c18 -32.667 27 -69.667 27 -111c0 -10.667 -0.666992 -22 -2 -34c-10.667 -101.333 -52.167 -180.5 -124.5 -237.5
s-165.166 -85.5 -278.499 -85.5zM527.999 704.999c25.333 12 47.833 28.167 67.5 48.5s30.834 43.833 33.501 70.5c0.666992 4 1 8 1 12c0 16 -3.33301 32.667 -10 50c-8 21.333 -22.667 38.666 -44 51.999l-93 62c-26.667 -12.667 -49.834 -30.667 -69.501 -54
s-31.167 -49.333 -34.5 -78c-0.666992 -4 -1 -7.66699 -1 -11c0 -14 3.33301 -28.333 10 -43c8 -17.333 18.667 -30.666 32 -39.999z" />
    <glyph glyph-name="dieresis" unicode="&#xa8;" horiz-adv-x="844" 
d="M200 1396l27 262h249l-27 -262h-249zM588 1396l28 262h250l-28 -262h-250z" />
    <glyph glyph-name="copyright" unicode="&#xa9;" horiz-adv-x="1782" 
d="M871 254c-148.667 0 -250.334 38.667 -305.001 116c-42.667 59.333 -63.667 140 -63 242c0 29.333 1.66699 60.666 5 93.999l30 285c15.333 147.333 58.5 259.333 129.5 336s180.5 115 328.5 115c138.667 0 235.334 -30 290.001 -90c44 -48.667 66 -119 66 -211
c0 -22.667 -1.33301 -46.334 -4 -71.001l-8 -78h-276l8 80c2 20 3 38 3 54c-0.666992 34.667 -5.66699 60.667 -15 78c-14.667 25.333 -42 38 -82 38c-45.333 0 -78 -15.167 -98 -45.5s-34 -85.166 -42 -164.499l-40 -374c-2.66699 -27.333 -4 -51.666 -4 -72.999
c0 -40 4.66699 -69.333 14 -88c14.667 -28 44 -42 88 -42c42.667 0 73.5 13.667 92.5 41s31.167 68 36.5 122l9 93h276l-8 -80c-12.667 -125.333 -53.667 -219.5 -123 -282.5s-172 -94.5 -308 -94.5zM853 65c96.667 0 186.831 14.502 270.498 43.502
s155.667 68.167 216 117.5s113 107.166 158 173.499s80.167 136.333 105.5 210s42.333 150.167 51 229.5c3.33301 36 5 71.333 5 106c0.666992 42 -1.66602 83 -6.99902 123c-9.33301 73.333 -29.833 143.166 -61.5 209.499s-72.5 123.833 -122.5 172.5
s-113.667 87.334 -191 116.001s-164.333 43 -261 43c-97.333 0 -187.833 -14.333 -271.5 -43s-155.667 -67.334 -216 -116.001s-113 -106 -158 -172s-80.167 -135.833 -105.5 -209.5s-42 -150.167 -50 -229.5c-4 -37.333 -6 -74.333 -6 -111
c-0.666992 -40 1.66602 -79.333 6.99902 -118c9.33301 -73.333 29.833 -143.333 61.5 -210s72.334 -124.667 122.001 -174s113.334 -88.5 191.001 -117.5s165.167 -43.5 262.5 -43.5zM838.997 -23.998c-71.333 0 -138.17 6.66797 -200.503 20.001
s-117.5 32.166 -165.5 56.499s-92.167 53.333 -132.5 87s-74.166 71 -101.499 112s-51.333 85 -72 132s-35.667 95.5 -45 145.5c-8 50 -14 101 -18 153c-1.33301 17.333 -2 35 -2 53c0 34.667 2.33301 69.334 7 104.001c8.66699 85.333 26.834 168.5 54.501 249.5
s66.834 158.833 117.501 233.5s110.167 139.834 178.5 195.501s150.833 100.167 247.5 133.5s201.334 50 314.001 50s213.5 -16.667 302.5 -50s161.667 -77.833 218 -133.5s101.833 -120.834 136.5 -195.501s57.334 -152.334 68.001 -233.001c6 -44.667 9 -90 9 -136
c0 -37.333 -2 -75.333 -6 -114c-8.66699 -86 -26.834 -169.333 -54.501 -250s-66.667 -158.5 -117 -233.5s-109.5 -140.333 -177.5 -196s-150.333 -100.167 -247 -133.5s-201.334 -50 -314.001 -50z" />
    <glyph glyph-name="ordfeminine" unicode="&#xaa;" horiz-adv-x="950" 
d="M387 645c-67.333 0.666992 -119.666 23.6699 -156.999 69.0029c-31.333 38 -47 83.667 -47 137c0 9.33301 0.666992 19 2 29c2.66699 24.667 7.83398 48 15.501 70s16.167 41.667 25.5 59s21.833 34.166 37.5 50.499s30.5 30.166 44.5 41.499s31.667 23 53 35
s39.666 21.667 54.999 29s35.166 15.5 59.499 24.5s43.833 15.833 58.5 20.5l59.5 19c25 8 43.167 14 54.5 18l12 111c1.33301 13.333 2 25.333 2 36c0 66.667 -20.333 100 -61 100c-32 0 -55.5 -14 -70.5 -42s-26.833 -70 -35.5 -126l-229 3
c13.333 111.333 52 198.166 116 260.499s147.667 93.5 251 93.5c111.333 0.666992 186.333 -31 225 -95c29.333 -48 44 -113 44 -195c0 -26.667 -1.66699 -55 -5 -85l-68 -649h-220l8 134c-24 -43.333 -56.167 -78.833 -96.5 -106.5s-84.833 -41.5 -133.5 -41.5z
M498 833.003c21.333 0 42.5 7.33203 63.5 21.999s37.833 32.334 50.5 53.001l25 238c-130 -64 -198.667 -135 -206 -213c-0.666992 -6.66699 -1 -13 -1 -19c0 -22 4.66699 -40 14 -54c12 -18 30 -27 54 -27z" />
    <glyph glyph-name="guillemotleft" unicode="&#xab;" horiz-adv-x="967" 
d="M381 64l-309 476l12 117l410 477l-32 -307l-199 -228l150 -229zM808 64l-310 476l12 117l411 477l-32 -307l-200 -228l151 -229z" />
    <glyph glyph-name="logicalnot" unicode="&#xac;" horiz-adv-x="887" 
d="M681 478l27 265h-593l21 196h730l-49 -461h-136z" />
    <glyph glyph-name="uni00AD" unicode="&#xad;" horiz-adv-x="729" 
d="M161 832l20 192h488l-19 -192h-489z" />
    <glyph glyph-name="registered" unicode="&#xae;" horiz-adv-x="1824" 
d="M566 309l111 1050h326c122 -0.666992 210.333 -25 265 -73c46 -40.667 69 -101 69 -181c0 -16 -1 -32.333 -3 -49c-6.66699 -64.667 -25.5 -117.167 -56.5 -157.5s-74.833 -73.5 -131.5 -99.5l137 -490h-242l-110 444h-87l-47 -444h-231zM856 873h42.001
c72 0 123 13.5 153 40.5s48.333 73.167 55 138.5c1.33301 12 2 23.333 2 34c0 36.667 -8 65.667 -24 87c-20.667 27.333 -57.334 41 -110.001 41h-82zM871.001 81c92.667 0 178.999 13.999 258.999 41.999s148.833 65.667 206.5 113s108 103 151 167s76.667 131.667 101 203
s40.5 145 48.5 221c4 35.333 6 70 6 104c0 39.333 -2.66699 78.333 -8 117c-9.33301 70.667 -28.833 138 -58.5 202s-68.5 119.667 -116.5 167s-109 84.833 -183 112.5s-157.333 41.5 -250 41.5c-93.333 0 -180.166 -13.833 -260.499 -41.5s-149.5 -65.167 -207.5 -112.5
s-108.667 -102.833 -152 -166.5s-77 -131 -101 -202s-40 -144.833 -48 -221.5c-4 -35.333 -6 -70 -6 -104c0 -40.667 2.66699 -79.667 8 -117c9.33301 -70.667 28.833 -138.167 58.5 -202.5s68.5 -120.166 116.5 -167.499s109.333 -85 184 -113s158.667 -42 252 -42z
M860 -28.001c-112 0 -212.5 16.6689 -301.5 50.002s-161.5 77.666 -217.5 132.999s-101.333 120.333 -136 195c-34 74 -56.333 151 -67 231c-5.33301 43.333 -8.33301 87.666 -9 132.999c0 37.333 2 75.333 6 114c8.66699 85.333 26.667 168 54 248
s66.166 157.167 116.499 231.5s109.333 139.166 177 194.499s149.5 99.5 245.5 132.5s200 49.5 312 49.5c70.667 0 136.834 -6.66699 198.501 -20s116.334 -32 164.001 -56s91.5 -52.667 131.5 -86s73.5 -70.333 100.5 -111s50.667 -84.167 71 -130.5s35 -94.5 44 -144.5
s15.167 -101 18.5 -153c1.33301 -17.333 2 -34.666 2 -51.999c0 -34.667 -2.33301 -69 -7 -103c-7.33301 -70.667 -21.333 -139.667 -42 -207s-48 -133.333 -82 -198s-76.167 -124 -126.5 -178s-106.833 -101.5 -169.5 -142.5s-135.334 -73 -218.001 -96
s-171 -34.5 -265 -34.5z" />
    <glyph glyph-name="macron" unicode="&#xaf;" horiz-adv-x="503" 
d="M152 1511l15 147h447l-16 -147h-446z" />
    <glyph glyph-name="degree" unicode="&#xb0;" horiz-adv-x="1009" 
d="M569 1094c59.333 0 107.33 19.167 143.997 57.5s58.334 88.5 65.001 150.5c1.33301 10.667 2 21 2 31c0 48 -12 87.667 -36 119c-28.667 38 -72.667 57 -132 57s-107.166 -18.833 -143.499 -56.5s-57.833 -87.5 -64.5 -149.5c-1.33301 -10.667 -2 -21 -2 -31
c0 -48 12 -88 36 -120c28.667 -38.667 72.334 -58 131.001 -58zM550.997 927c-116.667 0 -205.001 33.999 -265.001 101.999c-50 56.667 -75.333 129.667 -76 219c0 18 1 36.333 3 55c12.667 114.667 56.334 205.667 131.001 273s170 101 286 101s204.667 -33.667 266 -101
c50.667 -56 76 -128.667 76 -218c0 -17.333 -1 -35.666 -3 -54.999c-12 -115.333 -55.5 -206.833 -130.5 -274.5s-170.833 -101.5 -287.5 -101.5z" />
    <glyph glyph-name="plusminus" unicode="&#xb1;" horiz-adv-x="853" 
d="M320 364l22 211h-208l20 185h208l21 211h190l-22 -211h208l-19 -185h-208l-22 -211h-190zM74 0l19 188h606l-20 -188h-605z" />
    <glyph glyph-name="twosuperior" unicode="&#xb2;" horiz-adv-x="847" 
d="M166 673l15.999 160.004l319 416c6.66699 9.33301 19.167 25.5 37.5 48.5s31.833 40.833 40.5 53.5l32 49c12.667 20 22.167 39.5 28.5 58.5s10.5 38.5 12.5 58.5c0.666992 9.33301 1 18 1 26c0 30 -6.66699 53 -20 69c-14.667 16.667 -35.334 25 -62.001 25
c-5.33301 0 -10.666 -0.333008 -15.999 -1c-37.333 -4 -64.833 -21.333 -82.5 -52s-30.5 -84.334 -38.5 -161.001h-193l5 49c11.333 105.333 44.666 188 99.999 248s134 90 236 90c92 0 162 -26 210 -78c40 -42.667 60 -99 60 -169c0 -14.667 -1 -30 -3 -46
c-2 -16.667 -5.16699 -33.834 -9.5 -51.501s-8.66602 -32.834 -12.999 -45.501s-11.666 -28.667 -21.999 -48l-22.5 -42.5c-4.66699 -9 -14.667 -24.333 -30 -46s-24.833 -35.334 -28.5 -41.001s-15 -21 -34 -46l-32.5 -42.5l-244 -320h330l-16 -161h-561z" />
    <glyph glyph-name="threesuperior" unicode="&#xb3;" horiz-adv-x="847" 
d="M447 654c-54.667 0 -100.669 8.16797 -138.002 24.501s-65 39.333 -83 69s-30.333 64.834 -37 105.501c-3.33301 20 -5 41.333 -5 64s1.66699 46.334 5 71.001l3 32h201l-4 -37c-2 -19.333 -3 -36.666 -3 -51.999c0 -31.333 4 -55 12 -71c12 -24 36 -36 72 -36
c33.333 0 59.333 12.833 78 38.5s31 67.834 37 126.501c2 19.333 3 37.333 3 54c0 37.333 -5.33301 66.666 -16 87.999c-15.333 30.667 -45.666 46 -90.999 46h-61l14 132h57c47.333 0 81.5 14.667 102.5 44s35.167 78.333 42.5 147c1.33301 15.333 2 29.333 2 42
c0 29.333 -4 52.666 -12 69.999c-12 24 -35 36 -69 36c-34.667 0 -60.5 -11.833 -77.5 -35.5s-28.167 -58.834 -33.5 -105.501l-5 -53h-201l6 56c10 95.333 43.333 169.166 100 221.499s132.334 78.5 227.001 78.5c94 0 163.667 -26 209 -78
c37.333 -42.667 56 -99.334 56 -170.001c0 -15.333 -1 -31.666 -3 -48.999c-7.33301 -70 -26.333 -128.167 -57 -174.5s-65 -73.833 -103 -82.5c74 -29.333 111 -97 111 -203c0 -18 -1 -37 -3 -57c-10.667 -104.667 -43.667 -187.834 -99 -249.501
s-134.333 -92.5 -237 -92.5z" />
    <glyph glyph-name="acute" unicode="&#xb4;" horiz-adv-x="608" 
d="M197 1249l164 409h277l-287 -409h-154z" />
    <glyph glyph-name="mu" unicode="&#xb5;" horiz-adv-x="951" 
d="M9 -369l161.002 1553h274l-93 -885c-1.33301 -11.333 -2 -21.666 -2 -30.999c0 -21.333 3.33301 -38.666 10 -51.999c9.33301 -18.667 29.666 -28 60.999 -28c33.333 0.666992 75.666 18.334 126.999 53.001l99 943h274l-124 -1184h-274l11 106
c-62 -52 -123.333 -87 -184 -105c-10 -3.33301 -19 -6 -27 -8l-38 -362h-275z" />
    <glyph glyph-name="paragraph" unicode="&#xb6;" horiz-adv-x="1033" 
d="M327 -196l129.002 1227c-98.667 0.666992 -175.334 28.334 -230.001 83.001c-45.333 45.333 -68 106.333 -68 183c0 14.667 1 30 3 46c11.333 108.667 54.166 188.334 128.499 239.001s170.833 76 289.5 76h447l-195 -1854h-174l181 1714h-152l-180 -1714h-179z" />
    <glyph glyph-name="periodcentered" unicode="&#xb7;" horiz-adv-x="394" 
d="M82 638l27 265h267l-27 -265h-267z" />
    <glyph glyph-name="cedilla" unicode="&#xb8;" horiz-adv-x="545" 
d="M-24 -500l14 127.999c30.667 -9.33301 64 -14.666 100 -15.999c4.66699 0 9 -0.333008 13 -1c30 0.666992 57.667 5.66699 83 15c29.333 10.667 45.333 28 48 52c2 16 0 30.167 -6 42.5s-13.833 22.5 -23.5 30.5s-23.5 15.333 -41.5 22s-33.5 11.667 -46.5 15
s-30.167 7 -51.5 11l21 201h121l-13 -125c68 -7.33301 124.667 -27.333 170 -60c42.667 -30.667 64 -70 64 -118v-11c-3.33301 -47.333 -19.5 -87.5 -48.5 -120.5s-65.167 -56.167 -108.5 -69.5c-41.333 -13.333 -86.333 -20 -135 -20h-8
c-52 0.666992 -102.667 8.66699 -152 24z" />
    <glyph glyph-name="onesuperior" unicode="&#xb9;" horiz-adv-x="840" 
d="M390 673l95.001 907.001c-8.66699 -10.667 -38.834 -25 -90.501 -43s-87.5 -29 -107.5 -33l16 153c1.33301 0.666992 7.5 3.16699 18.5 7.5l25 10l27.5 11c12.667 5 23.167 9.66699 31.5 14l30.5 15.5c12 6 22.667 11.833 32 17.5s19 12 29 19s19 14.167 27 21.5
s15 14.666 21 21.999h165l-118 -1122h-202z" />
    <glyph glyph-name="ordmasculine" unicode="&#xba;" horiz-adv-x="950" 
d="M509 829c18.667 0 34.998 3.66699 48.998 11s25.167 16.333 33.5 27s15.5 25.5 21.5 44.5s10.5 36.833 13.5 53.5s5.83301 37.667 8.5 63l28 270c4 42 6 76.333 6 103c0.666992 28.667 -6.33301 51.667 -21 69c-14.667 18 -37.667 27 -69 27
c-18.667 0 -35.167 -3.66699 -49.5 -11s-25.666 -16.5 -33.999 -27.5s-15.666 -25.667 -21.999 -44s-10.833 -36.166 -13.5 -53.499s-5.33398 -38.333 -8.00098 -63l-29 -270c-2.66699 -36.667 -4 -69.834 -4 -99.501s7.33301 -53.667 22 -72s37.334 -27.5 68.001 -27.5z
M491.998 643c-200.667 0 -301.001 98.667 -301.001 296c0 22.667 1.33301 46.334 4 71.001l33 307c12 118.667 48.833 209.5 110.5 272.5s149.167 94.5 262.5 94.5c109.333 0 189.333 -32.667 240 -98c40.667 -52.667 61 -121.334 61 -206.001c0 -20 -1 -41 -3 -63l-32 -307
c-12 -114.667 -50.167 -204.5 -114.5 -269.5s-151.166 -97.5 -260.499 -97.5z" />
    <glyph glyph-name="guillemotright" unicode="&#xbb;" horiz-adv-x="1010" 
d="M65 64l32 306l214 230l-165 227l32 307l325 -477l-12 -117zM492 64l32 306l213 230l-164 227l32 307l323 -477l-12 -117z" />
    <glyph glyph-name="onequarter" unicode="&#xbc;" horiz-adv-x="1565" 
d="M1118 1l24 234h-286l14 128l358 514h156l-53 -510h114l-14 -132h-114l-25 -234h-174zM271 829l57 544.999l-122 -22l14 133c104 50.667 185.667 108.334 245 173.001h78l-87 -829h-185zM283 -0.000976562l797 1658h186l-798 -1658h-185zM1004 366.999h153l29 277z" />
    <glyph glyph-name="onehalf" unicode="&#xbd;" horiz-adv-x="1565" 
d="M915 2l13.9971 130l209 251c2 2 11.5 12.833 28.5 32.5s27.5 32.167 31.5 37.5l25.5 34c13 17.333 21.833 31.166 26.5 41.499s9.83398 23.333 15.501 39s9.16699 30.834 10.5 45.501c1.33301 18.667 1.83301 35.667 1.5 51s-5 28 -14 38s-22.167 15 -39.5 15
c-47.333 0 -72.333 -43.667 -75 -131h-178c0 15.333 0.666992 27 2 35c9.33301 70.667 36.833 126.167 82.5 166.5s105.834 60.5 180.501 60.5c76 0 133.333 -20.667 172 -62c32 -34.667 48.333 -80.667 49 -138c0 -11.333 -0.666992 -22.666 -2 -33.999
c-6 -54.667 -25.667 -106.834 -59 -156.501s-80 -107.5 -140 -173.5c-49.333 -49.333 -95.666 -100 -138.999 -152h281l-14 -130h-469zM250.997 829l57 544.999l-122 -22l14 133c104.667 50.667 186 108.334 244 173.001h79l-87 -829h-185zM270.997 -0.000976562l797 1658
h186l-798 -1658h-185z" />
    <glyph glyph-name="threequarters" unicode="&#xbe;" horiz-adv-x="1565" 
d="M372 865c-74 0 -129.004 20.667 -165.004 62c-29.333 34 -44 78.333 -44 133c0 12 0.666992 24.667 2 38h166c-1.33301 -20 -1.66602 -38 -0.999023 -54s5.33398 -29 14.001 -39s21.334 -15 38.001 -15c12.667 0 23.5 2.83301 32.5 8.5s15.833 14.167 20.5 25.5
s8 22.333 10 33s3.66699 24.334 5 41.001c1.33301 9.33301 2 18.333 2 27c0 27.333 -6 47 -18 59c-16 16 -47 24 -93 24l12 119c46 0 78.667 7.83301 98 23.5s31 44.167 35 85.5c2.66699 14.667 4 28.667 4 42s-1.33301 25.333 -4 36c-6 21.333 -21.333 32 -46 32
c-26 0 -43.667 -9.16699 -53 -27.5s-16 -45.166 -20 -80.499h-167c8 76 34.333 134 79 174s104.334 60 179.001 60c73.333 0 126.666 -20 159.999 -60c27.333 -32.667 41 -76.667 41 -132c0 -12 -0.666992 -24.667 -2 -38c-6 -52 -25.167 -92.833 -57.5 -122.5
s-71.833 -45.834 -118.5 -48.501c95.333 -9.33301 143 -57 143 -143c0 -9.33301 -0.666992 -19 -2 -29c-7.33301 -74.667 -32.666 -132.334 -75.999 -173.001s-101.333 -61 -174 -61zM1165 1l24 234h-286l14 128l358 514h156l-53 -510h114l-14 -132h-114l-25 -234h-174z
M338.996 0l797 1658h186l-798 -1658h-185zM1051 367h153l29 277z" />
    <glyph glyph-name="questiondown" unicode="&#xbf;" horiz-adv-x="1066" 
d="M478 -379c-140 -0.666992 -243.333 36.333 -310 111c-55.333 61.333 -83 143.333 -83 246c0 21.333 1.33301 43.666 4 66.999c5.33301 51.333 17.666 102 36.999 152s42 95.167 68 135.5s58.667 82.333 98 126s76.666 81.667 111.999 114s77.333 68.833 126 109.5l21 198
h247l-28 -259c-56 -46 -104.667 -88.833 -146 -128.5s-82.666 -84.5 -123.999 -134.5s-74.166 -102.333 -98.499 -157s-38.833 -110 -43.5 -166c-0.666992 -8 -1 -15.667 -1 -23c-0.666992 -42.667 10.333 -77.334 33 -104.001c26.667 -32 63.667 -48 111 -48
c48 0 85.5 14.833 112.5 44.5s40.167 68.834 39.5 117.501c0.666992 8.66699 0.333984 23.334 -0.999023 44.001s-3 34.667 -5 42l258 51c5.33301 -50 8 -83.667 8 -101v-9c0.666992 -8 1 -16 1 -24c0 -116.667 -36.667 -212 -110 -286
c-78.667 -78.667 -187.334 -118 -326.001 -118zM552 1035l28 268h272l-28 -268h-272z" />
    <glyph glyph-name="Agrave" unicode="&#xc0;" horiz-adv-x="1058" 
d="M591 1799l-203 409h278l78 -409h-153zM-12 0l513 1658h305l165 -1658h-276l-28 388h-291l-110 -388h-278zM429 583h227l-42 685z" />
    <glyph glyph-name="Aacute" unicode="&#xc1;" horiz-adv-x="1058" 
d="M590 1799l164 409h277l-287 -409h-154zM-12 0l513 1658h305l165 -1658h-276l-28 388h-291l-110 -388h-278zM429 583h227l-42 685z" />
    <glyph glyph-name="Acircumflex" unicode="&#xc2;" horiz-adv-x="1058" 
d="M357 1799l222 370h251l148 -370h-204l-82 240l-132 -240h-203zM-12 0l513 1658h305l165 -1658h-276l-28 388h-291l-110 -388h-278zM429 583h227l-42 685z" />
    <glyph glyph-name="Atilde" unicode="&#xc3;" horiz-adv-x="1058" 
d="M828 1799l-3 0.00292969c-28.667 0 -60.334 8 -95.001 24c-36 16 -70.167 32.5 -102.5 49.5s-57.5 25.5 -75.5 25.5c-34 0 -53.667 -27.667 -59 -83h-144c8 80 27.667 142 59 186s79.666 67 144.999 69h7c29.333 0.666992 61 -6.33301 95 -21
c36.667 -16 69.834 -32.333 99.501 -49s51.167 -25.334 64.5 -26.001c17.333 -0.666992 30.333 5.33301 39 18s14.334 33.667 17.001 63h139c-4 -36.667 -9.66699 -69.167 -17 -97.5s-18 -54.833 -32 -79.5s-32.5 -43.834 -55.5 -57.501s-50.167 -20.834 -81.5 -21.501z
M-12 0.00292969l513 1658h305l165 -1658h-276l-28 388h-291l-110 -388h-278zM429 583.003h227l-42 685z" />
    <glyph glyph-name="Adieresis" unicode="&#xc4;" horiz-adv-x="1058" 
d="M348 1799l27 262h249l-27 -262h-249zM736 1799l28 262h250l-28 -262h-250zM-12 0l513 1658h305l165 -1658h-276l-28 388h-291l-110 -388h-278zM429 583h227l-42 685z" />
    <glyph glyph-name="Aring" unicode="&#xc5;" horiz-adv-x="1058" 
d="M666 1780c34.667 0 63 10.501 85 31.501s35 48.833 39 83.5c0.666992 5.33301 1 10.666 1 15.999c0 27.333 -7.33301 49.666 -22 66.999c-17.333 21.333 -43.666 31.666 -78.999 30.999c-36 0 -64.833 -10.5 -86.5 -31.5s-34.167 -48.5 -37.5 -82.5
c-0.666992 -5.33301 -1 -10.666 -1 -15.999c0 -27.333 7.33301 -49.666 22 -66.999c17.333 -21.333 43.666 -32 78.999 -32zM653 1661c-70.667 -0.666992 -125.667 20.333 -165 63c-32.667 35.333 -49 80.666 -49 135.999c0 11.333 0.666992 23 2 35
c6.66699 71.333 34.167 128 82.5 170s107.833 63 178.5 63c70 0 125 -21 165 -63c34 -36 51 -82.667 51 -140c0 -9.33301 -0.333008 -19.333 -1 -30c-7.33301 -71.333 -35.5 -128.166 -84.5 -170.499s-108.833 -63.5 -179.5 -63.5zM-12 0.000976562l513 1658h305l165 -1658
h-276l-28 388h-291l-110 -388h-278zM429 583.001h227l-42 685z" />
    <glyph glyph-name="AE" unicode="&#xc6;" horiz-adv-x="1358" 
d="M-134 0l887 1649h677l-21 -206h-389l-51 -481h277l-22 -209h-277l-57 -548h388l-21 -205h-657l41 388h-284l-204 -388h-287zM448 586h214l60 570z" />
    <glyph glyph-name="Ccedilla" unicode="&#xc7;" horiz-adv-x="1097" 
d="M336 -500l14 127.999c30.667 -9.33301 64 -14.666 100 -15.999c4.66699 0 9 -0.333008 13 -1c30 0.666992 57.667 5.66699 83 15c29.333 10.667 45.333 28 48 52c2 16 0 30.167 -6 42.5s-13.833 22.5 -23.5 30.5s-23.5 15.333 -41.5 22s-33.5 11.667 -46.5 15
s-30.167 7 -51.5 11l21 201h121l-13 -125c68 -7.33301 124.667 -27.333 170 -60c42.667 -30.667 64 -70 64 -118v-11c-3.33301 -47.333 -19.5 -87.5 -48.5 -120.5s-65.167 -56.167 -108.5 -69.5c-41.333 -13.333 -86.333 -20 -135 -20h-8
c-52 0.666992 -102.667 8.66699 -152 24zM514 -20.001c-71.333 0 -133.333 8.99805 -186 26.998s-94.667 43.333 -126 76s-56 72.334 -74 119.001c-17.333 46.667 -27.333 98 -30 154c-0.666992 16 -0.666992 32 0 48c0 42.667 2 87.334 6 134.001l61 577
c9.33301 90 25 168 47 234s53 124.333 93 175s92.333 88.834 157 114.501s141.667 38.5 231 38.5c82 0 151 -11 207 -33s98.667 -54.333 128 -97c29.333 -42 48.666 -91.667 57.999 -149c5.33301 -30.667 8 -64.334 8 -101.001c0 -31.333 -2 -64.333 -6 -99l-15 -142h-285
l15 139c5.33301 52 8 93.333 8 124c0 18.667 -1 33.667 -3 45c-10.667 54 -45.334 84.667 -104.001 92c-10 1.33301 -21 2 -33 2c-31.333 0 -58.333 -5 -81 -15s-40.667 -22.5 -54 -37.5s-24.666 -36 -33.999 -63s-16.166 -52.5 -20.499 -76.5s-8.5 -55.333 -12.5 -94
l-72 -694c-4 -36 -6 -68.333 -6 -97c0 -52 6.66699 -91.333 20 -118c20.667 -42 63.334 -63 128.001 -63c19.333 0 36.666 1.66699 51.999 5s29 9 41 17s22.333 16 31 24s16.167 19.5 22.5 34.5s11.666 28.333 15.999 40s8.33301 27.667 12 48s6.33398 37.5 8.00098 51.5
s3.83398 33.333 6.50098 58l15 144h284l-14 -135c-6.66699 -62 -16.834 -117.833 -30.501 -167.5s-33.334 -96.167 -59.001 -139.5s-56.667 -79.333 -93 -108s-81.166 -51.167 -134.499 -67.5s-114 -24.5 -182 -24.5z" />
    <glyph glyph-name="Egrave" unicode="&#xc8;" 
d="M533 1799l-203 409h278l78 -409h-153zM74 0l174 1658h689l-22 -210h-393l-51 -482h312l-21 -209h-312l-59 -552h399l-22 -205h-694z" />
    <glyph glyph-name="Eacute" unicode="&#xc9;" 
d="M532 1799l164 409h277l-287 -409h-154zM74 0l174 1658h689l-22 -210h-393l-51 -482h312l-21 -209h-312l-59 -552h399l-22 -205h-694z" />
    <glyph glyph-name="Ecircumflex" unicode="&#xca;" 
d="M299 1799l222 370h251l148 -370h-204l-82 240l-132 -240h-203zM74 0l174 1658h689l-22 -210h-393l-51 -482h312l-21 -209h-312l-59 -552h399l-22 -205h-694z" />
    <glyph glyph-name="Edieresis" unicode="&#xcb;" 
d="M290 1799l27 262h249l-27 -262h-249zM678 1799l28 262h250l-28 -262h-250zM74 0l174 1658h689l-22 -210h-393l-51 -482h312l-21 -209h-312l-59 -552h399l-22 -205h-694z" />
    <glyph glyph-name="Igrave" unicode="&#xcc;" horiz-adv-x="557" 
d="M341 1799l-203 409h278l78 -409h-153zM84 0l174 1658h291l-174 -1658h-291z" />
    <glyph glyph-name="Iacute" unicode="&#xcd;" horiz-adv-x="557" 
d="M340 1799l164 409h277l-287 -409h-154zM84 0l174 1658h291l-174 -1658h-291z" />
    <glyph glyph-name="Icircumflex" unicode="&#xce;" horiz-adv-x="557" 
d="M107 1799l222 370h251l148 -370h-204l-82 240l-132 -240h-203zM84 0l174 1658h291l-174 -1658h-291z" />
    <glyph glyph-name="Idieresis" unicode="&#xcf;" horiz-adv-x="557" 
d="M98 1799l27 262h249l-27 -262h-249zM486 1799l28 262h250l-28 -262h-250zM84 0l174 1658h291l-174 -1658h-291z" />
    <glyph glyph-name="Eth" unicode="&#xd0;" horiz-adv-x="1086" 
d="M386 208h89.0039c26.667 0 50.667 1.5 72 4.5s40.166 9 56.499 18s30.166 17.667 41.499 26s21.5 21.333 30.5 39s16.167 33.334 21.5 47.001s10.166 34 14.499 61s7.66602 49.667 9.99902 68s5.5 45.166 9.5 80.499l63 596c5.33301 46 8 86.333 8 121
c0 18 -0.666992 35 -2 51c-4 44 -21.167 76 -51.5 96s-79.5 30 -147.5 30h-86l-53 -512h101l-17 -158h-101zM68.0039 0l82 776h-93l16 158h93l76 724h383c99.333 0 181.333 -10 246 -30s115 -51.667 151 -95s59.333 -96.333 70 -159c5.33301 -32.667 8 -69 8 -109
c0 -37.333 -2.33301 -78.333 -7 -123l-63 -598c-19.333 -189.333 -72 -327.333 -158 -414s-222 -130 -408 -130h-396z" />
    <glyph glyph-name="Ntilde" unicode="&#xd1;" horiz-adv-x="1109" 
d="M853 1799l-3 0.00292969c-28.667 0 -60.334 8 -95.001 24c-36 16 -70.167 32.5 -102.5 49.5s-57.5 25.5 -75.5 25.5c-34 0 -53.667 -27.667 -59 -83h-144c8 80 27.667 142 59 186s79.666 67 144.999 69h7c29.333 0.666992 61 -6.33301 95 -21
c36.667 -16 69.834 -32.333 99.501 -49s51.167 -25.334 64.5 -26.001c17.333 -0.666992 30.333 5.33301 39 18s14.334 33.667 17.001 63h139c-4 -36.667 -9.66699 -69.167 -17 -97.5s-18 -54.833 -32 -79.5s-32.5 -43.834 -55.5 -57.501s-50.167 -20.834 -81.5 -21.501z
M74 0.00292969l174 1658h203l312 -954l100 954h245l-174 -1658h-192l-312 1000l-105 -1000h-251z" />
    <glyph glyph-name="Ograve" unicode="&#xd2;" horiz-adv-x="1146" 
d="M635 1799l-203 409h278l78 -409h-153zM543 200c30 0 56.333 4.50391 79 13.5039s41 20.5 55 34.5s25.833 32.667 35.5 56s17 46.666 22 69.999s9.16699 51.333 12.5 84l78 748c2.66699 30 4 57.667 4 83c0 16.667 -0.666992 32.667 -2 48
c-2.66699 37.333 -16.334 66.833 -41.001 88.5s-61.334 32.5 -110.001 32.5c-37.333 0 -68.666 -5.83301 -93.999 -17.5s-45.166 -29.834 -59.499 -54.501s-25 -50.667 -32 -78s-12.5 -61.333 -16.5 -102l-78 -748c-2.66699 -32 -4 -61.333 -4 -88
c0 -14.667 0.333008 -29.334 1 -44.001c2.66699 -38.667 16.167 -69.334 40.5 -92.001s60.833 -34 109.5 -34zM520 -19.9961c-86.667 0 -159.5 12.332 -218.5 36.999s-104.333 61.167 -136 109.5s-52.5 105.166 -62.5 170.499c-5.33301 34 -8 70.667 -8 110
c0 37.333 2.33301 77 7 119l65 613c18 177.333 68.667 311.333 152 402s210 136 380 136s287 -45.667 351 -137c50 -70.667 74.667 -167 74 -289c0 -35.333 -2 -72.666 -6 -111.999l-65 -613c-18.667 -177.333 -70 -312.666 -154 -405.999s-210.333 -140 -379 -140z" />
    <glyph glyph-name="Oacute" unicode="&#xd3;" horiz-adv-x="1146" 
d="M635 1799l164 409h277l-287 -409h-154zM543 200c30 0 56.333 4.50391 79 13.5039s41 20.5 55 34.5s25.833 32.667 35.5 56s17 46.666 22 69.999s9.16699 51.333 12.5 84l78 748c2.66699 30 4 57.667 4 83c0 16.667 -0.666992 32.667 -2 48
c-2.66699 37.333 -16.334 66.833 -41.001 88.5s-61.334 32.5 -110.001 32.5c-37.333 0 -68.666 -5.83301 -93.999 -17.5s-45.166 -29.834 -59.499 -54.501s-25 -50.667 -32 -78s-12.5 -61.333 -16.5 -102l-78 -748c-2.66699 -32 -4 -61.333 -4 -88
c0 -14.667 0.333008 -29.334 1 -44.001c2.66699 -38.667 16.167 -69.334 40.5 -92.001s60.833 -34 109.5 -34zM520 -19.9961c-86.667 0 -159.5 12.332 -218.5 36.999s-104.333 61.167 -136 109.5s-52.5 105.166 -62.5 170.499c-5.33301 34 -8 70.667 -8 110
c0 37.333 2.33301 77 7 119l65 613c18 177.333 68.667 311.333 152 402s210 136 380 136s287 -45.667 351 -137c50 -70.667 74.667 -167 74 -289c0 -35.333 -2 -72.666 -6 -111.999l-65 -613c-18.667 -177.333 -70 -312.666 -154 -405.999s-210.333 -140 -379 -140z" />
    <glyph glyph-name="Ocircumflex" unicode="&#xd4;" horiz-adv-x="1146" 
d="M401 1799l222 370h251l148 -370h-204l-82 240l-132 -240h-203zM543 200c30 0 56.333 4.50391 79 13.5039s41 20.5 55 34.5s25.833 32.667 35.5 56s17 46.666 22 69.999s9.16699 51.333 12.5 84l78 748c2.66699 30 4 57.667 4 83c0 16.667 -0.666992 32.667 -2 48
c-2.66699 37.333 -16.334 66.833 -41.001 88.5s-61.334 32.5 -110.001 32.5c-37.333 0 -68.666 -5.83301 -93.999 -17.5s-45.166 -29.834 -59.499 -54.501s-25 -50.667 -32 -78s-12.5 -61.333 -16.5 -102l-78 -748c-2.66699 -32 -4 -61.333 -4 -88
c0 -14.667 0.333008 -29.334 1 -44.001c2.66699 -38.667 16.167 -69.334 40.5 -92.001s60.833 -34 109.5 -34zM520 -19.9961c-86.667 0 -159.5 12.332 -218.5 36.999s-104.333 61.167 -136 109.5s-52.5 105.166 -62.5 170.499c-5.33301 34 -8 70.667 -8 110
c0 37.333 2.33301 77 7 119l65 613c18 177.333 68.667 311.333 152 402s210 136 380 136s287 -45.667 351 -137c50 -70.667 74.667 -167 74 -289c0 -35.333 -2 -72.666 -6 -111.999l-65 -613c-18.667 -177.333 -70 -312.666 -154 -405.999s-210.333 -140 -379 -140z" />
    <glyph glyph-name="Otilde" unicode="&#xd5;" horiz-adv-x="1146" 
d="M872 1799l-3 0.00292969c-28.667 0 -60.334 8 -95.001 24c-36 16 -70.167 32.5 -102.5 49.5s-57.5 25.5 -75.5 25.5c-34 0 -53.667 -27.667 -59 -83h-144c8 80 27.667 142 59 186s79.666 67 144.999 69h7c29.333 0.666992 61 -6.33301 95 -21
c36.667 -16 69.834 -32.333 99.501 -49s51.167 -25.334 64.5 -26.001c17.333 -0.666992 30.333 5.33301 39 18s14.334 33.667 17.001 63h139c-4 -36.667 -9.66699 -69.167 -17 -97.5s-18 -54.833 -32 -79.5s-32.5 -43.834 -55.5 -57.501s-50.167 -20.834 -81.5 -21.501z
M543 200.003c30 0 56.333 4.50391 79 13.5039s41 20.5 55 34.5s25.833 32.667 35.5 56s17 46.666 22 69.999s9.16699 51.333 12.5 84l78 748c2.66699 30 4 57.667 4 83c0 16.667 -0.666992 32.667 -2 48c-2.66699 37.333 -16.334 66.833 -41.001 88.5
s-61.334 32.5 -110.001 32.5c-37.333 0 -68.666 -5.83301 -93.999 -17.5s-45.166 -29.834 -59.499 -54.501s-25 -50.667 -32 -78s-12.5 -61.333 -16.5 -102l-78 -748c-2.66699 -32 -4 -61.333 -4 -88c0 -14.667 0.333008 -29.334 1 -44.001
c2.66699 -38.667 16.167 -69.334 40.5 -92.001s60.833 -34 109.5 -34zM520 -19.9932c-86.667 0 -159.5 12.332 -218.5 36.999s-104.333 61.167 -136 109.5s-52.5 105.166 -62.5 170.499c-5.33301 34 -8 70.667 -8 110c0 37.333 2.33301 77 7 119l65 613
c18 177.333 68.667 311.333 152 402s210 136 380 136s287 -45.667 351 -137c50 -70.667 74.667 -167 74 -289c0 -35.333 -2 -72.666 -6 -111.999l-65 -613c-18.667 -177.333 -70 -312.666 -154 -405.999s-210.333 -140 -379 -140z" />
    <glyph glyph-name="Odieresis" unicode="&#xd6;" horiz-adv-x="1146" 
d="M393 1799l27 262h249l-27 -262h-249zM781 1799l28 262h250l-28 -262h-250zM543 200c30 0 56.333 4.50391 79 13.5039s41 20.5 55 34.5s25.833 32.667 35.5 56s17 46.666 22 69.999s9.16699 51.333 12.5 84l78 748c2.66699 30 4 57.667 4 83
c0 16.667 -0.666992 32.667 -2 48c-2.66699 37.333 -16.334 66.833 -41.001 88.5s-61.334 32.5 -110.001 32.5c-37.333 0 -68.666 -5.83301 -93.999 -17.5s-45.166 -29.834 -59.499 -54.501s-25 -50.667 -32 -78s-12.5 -61.333 -16.5 -102l-78 -748
c-2.66699 -32 -4 -61.333 -4 -88c0 -14.667 0.333008 -29.334 1 -44.001c2.66699 -38.667 16.167 -69.334 40.5 -92.001s60.833 -34 109.5 -34zM520 -19.9961c-86.667 0 -159.5 12.332 -218.5 36.999s-104.333 61.167 -136 109.5s-52.5 105.166 -62.5 170.499
c-5.33301 34 -8 70.667 -8 110c0 37.333 2.33301 77 7 119l65 613c18 177.333 68.667 311.333 152 402s210 136 380 136s287 -45.667 351 -137c50 -70.667 74.667 -167 74 -289c0 -35.333 -2 -72.666 -6 -111.999l-65 -613c-18.667 -177.333 -70 -312.666 -154 -405.999
s-210.333 -140 -379 -140z" />
    <glyph glyph-name="multiply" unicode="&#xd7;" horiz-adv-x="874" 
d="M241 499l-118 131l220 200l-178 199l145 132l178 -199l221 199l117 -132l-221 -199l179 -200l-144 -131l-180 199z" />
    <glyph glyph-name="Oslash" unicode="&#xd8;" horiz-adv-x="1134" 
d="M393 429l404.999 983.999c-24 30 -64.667 45 -122 45c-37.333 0 -68.666 -5.83301 -93.999 -17.5s-45.166 -29.834 -59.499 -54.501s-25 -50.667 -32 -78s-12.5 -61.333 -16.5 -102l-78 -748c0 -3.33301 -0.333008 -8.16602 -1 -14.499
s-1.33398 -11.166 -2.00098 -14.499zM542.999 199.999c30 0 56.332 4.50098 78.999 13.501s41 20.5 55 34.5s25.833 32.667 35.5 56s17 46.666 22 69.999s9.16699 51.333 12.5 84l78 748c2.66699 30 4.33398 50.667 5.00098 62l-416 -1009
c23.333 -39.333 66.333 -59 129 -59zM241.998 -159l-79 28.999l75 182c-95.333 67.333 -143 186.333 -143 357c0 36.667 2.33301 75.667 7 117l65 613c18 177.333 68.667 311.333 152 402s210 136 380 136c74.667 0 140 -9.33301 196 -28l63 153l81 -25l-68 -164
c102 -65.333 153 -185.333 153 -360c0 -36 -2 -74 -6 -114l-65 -613c-18.667 -177.333 -70 -312.666 -154 -405.999s-210.333 -140 -379 -140c-82 0 -151 11 -207 33z" />
    <glyph glyph-name="Ugrave" unicode="&#xd9;" horiz-adv-x="1149" 
d="M636 1799l-203 409h278l78 -409h-153zM523 -20c-91.333 0 -166.498 13.334 -225.498 40.001s-102.333 65 -130 115s-45.5 111 -53.5 183c-3.33301 28.667 -4.66602 59 -3.99902 91c0 47.333 3.33301 97.666 10 150.999l115 1098h286l-118 -1126
c-4 -40 -6.66699 -74 -8 -102c-0.666992 -7.33301 -1 -14.666 -1 -21.999c0 -22 1.66699 -44.333 5 -67c4 -30.667 11.167 -55.334 21.5 -74.001s26.166 -34 47.499 -46s47.666 -18 78.999 -18s58.666 6.16699 81.999 18.5s42.166 27.666 56.499 45.999
s26.5 42.833 36.5 73.5s17.333 60 22 88s9.33398 62.333 14.001 103l118 1126h286l-116 -1098c-8 -76 -19 -142.5 -33 -199.5s-34 -110.167 -60 -159.5s-57.833 -89.666 -95.5 -120.999s-84.5 -55.833 -140.5 -73.5s-120.667 -26.5 -194 -26.5z" />
    <glyph glyph-name="Uacute" unicode="&#xda;" horiz-adv-x="1149" 
d="M635 1799l164 409h277l-287 -409h-154zM523 -20c-91.333 0 -166.498 13.334 -225.498 40.001s-102.333 65 -130 115s-45.5 111 -53.5 183c-3.33301 28.667 -4.66602 59 -3.99902 91c0 47.333 3.33301 97.666 10 150.999l115 1098h286l-118 -1126
c-4 -40 -6.66699 -74 -8 -102c-0.666992 -7.33301 -1 -14.666 -1 -21.999c0 -22 1.66699 -44.333 5 -67c4 -30.667 11.167 -55.334 21.5 -74.001s26.166 -34 47.499 -46s47.666 -18 78.999 -18s58.666 6.16699 81.999 18.5s42.166 27.666 56.499 45.999
s26.5 42.833 36.5 73.5s17.333 60 22 88s9.33398 62.333 14.001 103l118 1126h286l-116 -1098c-8 -76 -19 -142.5 -33 -199.5s-34 -110.167 -60 -159.5s-57.833 -89.666 -95.5 -120.999s-84.5 -55.833 -140.5 -73.5s-120.667 -26.5 -194 -26.5z" />
    <glyph glyph-name="Ucircumflex" unicode="&#xdb;" horiz-adv-x="1149" 
d="M402 1799l222 370h251l148 -370h-204l-82 240l-132 -240h-203zM523 -20c-91.333 0 -166.498 13.334 -225.498 40.001s-102.333 65 -130 115s-45.5 111 -53.5 183c-3.33301 28.667 -4.66602 59 -3.99902 91c0 47.333 3.33301 97.666 10 150.999l115 1098h286l-118 -1126
c-4 -40 -6.66699 -74 -8 -102c-0.666992 -7.33301 -1 -14.666 -1 -21.999c0 -22 1.66699 -44.333 5 -67c4 -30.667 11.167 -55.334 21.5 -74.001s26.166 -34 47.499 -46s47.666 -18 78.999 -18s58.666 6.16699 81.999 18.5s42.166 27.666 56.499 45.999
s26.5 42.833 36.5 73.5s17.333 60 22 88s9.33398 62.333 14.001 103l118 1126h286l-116 -1098c-8 -76 -19 -142.5 -33 -199.5s-34 -110.167 -60 -159.5s-57.833 -89.666 -95.5 -120.999s-84.5 -55.833 -140.5 -73.5s-120.667 -26.5 -194 -26.5z" />
    <glyph glyph-name="Udieresis" unicode="&#xdc;" horiz-adv-x="1149" 
d="M393 1799l27 262h249l-27 -262h-249zM781 1799l28 262h250l-28 -262h-250zM523 -20c-91.333 0 -166.498 13.334 -225.498 40.001s-102.333 65 -130 115s-45.5 111 -53.5 183c-3.33301 28.667 -4.66602 59 -3.99902 91c0 47.333 3.33301 97.666 10 150.999l115 1098h286
l-118 -1126c-4 -40 -6.66699 -74 -8 -102c-0.666992 -7.33301 -1 -14.666 -1 -21.999c0 -22 1.66699 -44.333 5 -67c4 -30.667 11.167 -55.334 21.5 -74.001s26.166 -34 47.499 -46s47.666 -18 78.999 -18s58.666 6.16699 81.999 18.5s42.166 27.666 56.499 45.999
s26.5 42.833 36.5 73.5s17.333 60 22 88s9.33398 62.333 14.001 103l118 1126h286l-116 -1098c-8 -76 -19 -142.5 -33 -199.5s-34 -110.167 -60 -159.5s-57.833 -89.666 -95.5 -120.999s-84.5 -55.833 -140.5 -73.5s-120.667 -26.5 -194 -26.5z" />
    <glyph glyph-name="Yacute" unicode="&#xdd;" horiz-adv-x="998" 
d="M561 1799l164 409h277l-287 -409h-154zM309 0l66 626l-231 1032h275l139 -674l272 674h274l-447 -1032l-65 -626h-283z" />
    <glyph glyph-name="Thorn" unicode="&#xde;" horiz-adv-x="1075" 
d="M68 0l174 1658h296l-23 -219h200c257.333 0 386 -127.333 386 -382c0 -29.333 -1.66699 -60.666 -5 -93.999c-18 -172.667 -68.667 -297.167 -152 -373.5s-204.333 -114.833 -363 -115.5h-167l-50 -474h-296zM437 697.999l118 0.00195312
c84.667 0 147.167 18.667 187.5 56s65.5 105.333 75.5 204c2.66699 23.333 4 44.666 4 63.999c0 57.333 -10.667 100.666 -32 129.999c-28 38.667 -81 58 -159 58h-140z" />
    <glyph glyph-name="germandbls" unicode="&#xdf;" horiz-adv-x="1083" 
d="M439 -22l24.0039 218.003c85.333 0 147 22.167 185 66.5s61.333 118.166 70 221.499c1.33301 13.333 2 26 2 38c0 61.333 -14 110.666 -42 147.999c-33.333 45.333 -84 68 -152 68l22 220c59.333 0 105.166 25.667 137.499 77s53.166 119 62.499 203
c2 21.333 3 41.333 3 60c0 46 -6.33301 83 -19 111c-18 39.333 -53.667 59 -107 59c-52.667 0 -91 -19.333 -115 -58s-39.333 -93.334 -46 -164.001l-131 -1246h-274l131 1243c6 60.667 19.167 116.834 39.5 168.501s47.666 97.5 81.999 137.5s77.666 71.333 129.999 94
s110.833 34 175.5 34c144.667 -0.666992 248.334 -38.334 311.001 -113.001c51.333 -60.667 76.666 -143 75.999 -247c0 -24 -1.33301 -49.667 -4 -77c-10 -90 -35.667 -164.667 -77 -224s-101 -107.333 -179 -144c86.667 -25.333 152 -73.333 196 -144
c35.333 -57.333 53 -124.333 53 -201c0 -18.667 -1 -38 -3 -58c-18 -166.667 -72.667 -290.167 -164 -370.5s-220.333 -120.5 -387 -120.5z" />
    <glyph glyph-name="agrave" unicode="&#xe0;" horiz-adv-x="922" 
d="M476 1324l-203 409h278l78 -409h-153zM282 -18c-74 0.666992 -131.673 29.668 -173.006 87.001c-35.333 48.667 -53 103 -53 163c0 10.667 0.666992 21.334 2 32.001c4.66699 40.667 13.334 78.5 26.001 113.5s28.167 65.667 46.5 92s40 51 65 74s50.5 42.667 76.5 59
s55 32.166 87 47.499s62.167 28.666 90.5 39.999s59.166 23 92.499 35l41 15l10 98c2 22 3 42 3 60v26c-1.33301 24 -8.66602 42.167 -21.999 54.5s-33 18.5 -59 18.5c-65.333 0 -102.666 -44.667 -111.999 -134l-11 -73l-264 11l3.5 22
c1.66699 10.667 2.83398 17.667 3.50098 21c20.667 123.333 66.334 213.833 137.001 271.5s166 86.5 286 86.5c116.667 0 199.667 -31.667 249 -95c39.333 -50.667 59 -118 59 -202c0 -21.333 -1.33301 -44 -4 -68l-57 -540c-6.66699 -62.667 -10 -133 -10 -211
c0 -28 0.333008 -56.667 1 -86h-248c-8 75.333 -12 133.333 -12 174c-21.333 -54 -53.666 -99.5 -96.999 -136.5s-95.666 -55.5 -156.999 -55.5zM409.994 197.001c21.333 0 43.833 8.33203 67.5 24.999s42.5 33.334 56.5 50.001l34 325
c-148 -76.667 -227.333 -163.667 -238 -261c-1.33301 -10.667 -2 -21 -2 -31c0 -29.333 5.33301 -53 16 -71c14 -24.667 36 -37 66 -37z" />
    <glyph glyph-name="aacute" unicode="&#xe1;" horiz-adv-x="922" 
d="M475 1324l164 409h277l-287 -409h-154zM282 -18c-74 0.666992 -131.673 29.668 -173.006 87.001c-35.333 48.667 -53 103 -53 163c0 10.667 0.666992 21.334 2 32.001c4.66699 40.667 13.334 78.5 26.001 113.5s28.167 65.667 46.5 92s40 51 65 74s50.5 42.667 76.5 59
s55 32.166 87 47.499s62.167 28.666 90.5 39.999s59.166 23 92.499 35l41 15l10 98c2 22 3 42 3 60v26c-1.33301 24 -8.66602 42.167 -21.999 54.5s-33 18.5 -59 18.5c-65.333 0 -102.666 -44.667 -111.999 -134l-11 -73l-264 11l3.5 22
c1.66699 10.667 2.83398 17.667 3.50098 21c20.667 123.333 66.334 213.833 137.001 271.5s166 86.5 286 86.5c116.667 0 199.667 -31.667 249 -95c39.333 -50.667 59 -118 59 -202c0 -21.333 -1.33301 -44 -4 -68l-57 -540c-6.66699 -62.667 -10 -133 -10 -211
c0 -28 0.333008 -56.667 1 -86h-248c-8 75.333 -12 133.333 -12 174c-21.333 -54 -53.666 -99.5 -96.999 -136.5s-95.666 -55.5 -156.999 -55.5zM409.994 197.001c21.333 0 43.833 8.33203 67.5 24.999s42.5 33.334 56.5 50.001l34 325
c-148 -76.667 -227.333 -163.667 -238 -261c-1.33301 -10.667 -2 -21 -2 -31c0 -29.333 5.33301 -53 16 -71c14 -24.667 36 -37 66 -37z" />
    <glyph glyph-name="acircumflex" unicode="&#xe2;" horiz-adv-x="922" 
d="M242 1324l222 370h251l148 -370h-204l-82 240l-132 -240h-203zM282 -18c-74 0.666992 -131.673 29.668 -173.006 87.001c-35.333 48.667 -53 103 -53 163c0 10.667 0.666992 21.334 2 32.001c4.66699 40.667 13.334 78.5 26.001 113.5s28.167 65.667 46.5 92s40 51 65 74
s50.5 42.667 76.5 59s55 32.166 87 47.499s62.167 28.666 90.5 39.999s59.166 23 92.499 35l41 15l10 98c2 22 3 42 3 60v26c-1.33301 24 -8.66602 42.167 -21.999 54.5s-33 18.5 -59 18.5c-65.333 0 -102.666 -44.667 -111.999 -134l-11 -73l-264 11l3.5 22
c1.66699 10.667 2.83398 17.667 3.50098 21c20.667 123.333 66.334 213.833 137.001 271.5s166 86.5 286 86.5c116.667 0 199.667 -31.667 249 -95c39.333 -50.667 59 -118 59 -202c0 -21.333 -1.33301 -44 -4 -68l-57 -540c-6.66699 -62.667 -10 -133 -10 -211
c0 -28 0.333008 -56.667 1 -86h-248c-8 75.333 -12 133.333 -12 174c-21.333 -54 -53.666 -99.5 -96.999 -136.5s-95.666 -55.5 -156.999 -55.5zM409.994 197.001c21.333 0 43.833 8.33203 67.5 24.999s42.5 33.334 56.5 50.001l34 325
c-148 -76.667 -227.333 -163.667 -238 -261c-1.33301 -10.667 -2 -21 -2 -31c0 -29.333 5.33301 -53 16 -71c14 -24.667 36 -37 66 -37z" />
    <glyph glyph-name="atilde" unicode="&#xe3;" horiz-adv-x="922" 
d="M713 1324l-3 0.00292969c-28.667 0 -60.334 8 -95.001 24c-36 16 -70.167 32.5 -102.5 49.5s-57.5 25.5 -75.5 25.5c-34 0 -53.667 -27.667 -59 -83h-144c8 80 27.667 142 59 186s79.666 67 144.999 69h7c29.333 0.666992 61 -6.33301 95 -21
c36.667 -16 69.834 -32.333 99.501 -49s51.167 -25.334 64.5 -26.001c17.333 -0.666992 30.333 5.33301 39 18s14.334 33.667 17.001 63h139c-4 -36.667 -9.66699 -69.167 -17 -97.5s-18 -54.833 -32 -79.5s-32.5 -43.834 -55.5 -57.501s-50.167 -20.834 -81.5 -21.501z
M282 -17.9971c-74 0.666992 -131.673 29.668 -173.006 87.001c-35.333 48.667 -53 103 -53 163c0 10.667 0.666992 21.334 2 32.001c4.66699 40.667 13.334 78.5 26.001 113.5s28.167 65.667 46.5 92s40 51 65 74s50.5 42.667 76.5 59s55 32.166 87 47.499
s62.167 28.666 90.5 39.999s59.166 23 92.499 35l41 15l10 98c2 22 3 42 3 60v26c-1.33301 24 -8.66602 42.167 -21.999 54.5s-33 18.5 -59 18.5c-65.333 0 -102.666 -44.667 -111.999 -134l-11 -73l-264 11l3.5 22c1.66699 10.667 2.83398 17.667 3.50098 21
c20.667 123.333 66.334 213.833 137.001 271.5s166 86.5 286 86.5c116.667 0 199.667 -31.667 249 -95c39.333 -50.667 59 -118 59 -202c0 -21.333 -1.33301 -44 -4 -68l-57 -540c-6.66699 -62.667 -10 -133 -10 -211c0 -28 0.333008 -56.667 1 -86h-248
c-8 75.333 -12 133.333 -12 174c-21.333 -54 -53.666 -99.5 -96.999 -136.5s-95.666 -55.5 -156.999 -55.5zM409.994 197.004c21.333 0 43.833 8.33203 67.5 24.999s42.5 33.334 56.5 50.001l34 325c-148 -76.667 -227.333 -163.667 -238 -261
c-1.33301 -10.667 -2 -21 -2 -31c0 -29.333 5.33301 -53 16 -71c14 -24.667 36 -37 66 -37z" />
    <glyph glyph-name="adieresis" unicode="&#xe4;" horiz-adv-x="922" 
d="M233 1324l27 262h249l-27 -262h-249zM621 1324l28 262h250l-28 -262h-250zM282 -18c-74 0.666992 -131.673 29.668 -173.006 87.001c-35.333 48.667 -53 103 -53 163c0 10.667 0.666992 21.334 2 32.001c4.66699 40.667 13.334 78.5 26.001 113.5s28.167 65.667 46.5 92
s40 51 65 74s50.5 42.667 76.5 59s55 32.166 87 47.499s62.167 28.666 90.5 39.999s59.166 23 92.499 35l41 15l10 98c2 22 3 42 3 60v26c-1.33301 24 -8.66602 42.167 -21.999 54.5s-33 18.5 -59 18.5c-65.333 0 -102.666 -44.667 -111.999 -134l-11 -73l-264 11l3.5 22
c1.66699 10.667 2.83398 17.667 3.50098 21c20.667 123.333 66.334 213.833 137.001 271.5s166 86.5 286 86.5c116.667 0 199.667 -31.667 249 -95c39.333 -50.667 59 -118 59 -202c0 -21.333 -1.33301 -44 -4 -68l-57 -540c-6.66699 -62.667 -10 -133 -10 -211
c0 -28 0.333008 -56.667 1 -86h-248c-8 75.333 -12 133.333 -12 174c-21.333 -54 -53.666 -99.5 -96.999 -136.5s-95.666 -55.5 -156.999 -55.5zM409.994 197.001c21.333 0 43.833 8.33203 67.5 24.999s42.5 33.334 56.5 50.001l34 325
c-148 -76.667 -227.333 -163.667 -238 -261c-1.33301 -10.667 -2 -21 -2 -31c0 -29.333 5.33301 -53 16 -71c14 -24.667 36 -37 66 -37z" />
    <glyph glyph-name="aring" unicode="&#xe5;" horiz-adv-x="922" 
d="M564 1443c34.667 0 63 10.501 85 31.501s35 48.833 39 83.5c0.666992 5.33301 1 10.666 1 15.999c0 27.333 -7.33301 49.666 -22 66.999c-17.333 21.333 -43.666 31.666 -78.999 30.999c-36 0 -64.833 -10.5 -86.5 -31.5s-34.167 -48.5 -37.5 -82.5
c-0.666992 -5.33301 -1 -10.666 -1 -15.999c0 -27.333 7.33301 -49.666 22 -66.999c17.333 -21.333 43.666 -32 78.999 -32zM551 1324c-70.667 -0.666992 -125.667 20.333 -165 63c-32.667 35.333 -49 80.666 -49 135.999c0 11.333 0.666992 23 2 35
c6.66699 71.333 34.167 128 82.5 170s107.833 63 178.5 63c70 0 125 -21 165 -63c34 -36 51 -82.667 51 -140c0 -9.33301 -0.333008 -19.333 -1 -30c-7.33301 -71.333 -35.5 -128.166 -84.5 -170.499s-108.833 -63.5 -179.5 -63.5zM282 -17.999
c-74 0.666992 -131.673 29.668 -173.006 87.001c-35.333 48.667 -53 103 -53 163c0 10.667 0.666992 21.334 2 32.001c4.66699 40.667 13.334 78.5 26.001 113.5s28.167 65.667 46.5 92s40 51 65 74s50.5 42.667 76.5 59s55 32.166 87 47.499s62.167 28.666 90.5 39.999
s59.166 23 92.499 35l41 15l10 98c2 22 3 42 3 60v26c-1.33301 24 -8.66602 42.167 -21.999 54.5s-33 18.5 -59 18.5c-65.333 0 -102.666 -44.667 -111.999 -134l-11 -73l-264 11l3.5 22c1.66699 10.667 2.83398 17.667 3.50098 21
c20.667 123.333 66.334 213.833 137.001 271.5s166 86.5 286 86.5c116.667 0 199.667 -31.667 249 -95c39.333 -50.667 59 -118 59 -202c0 -21.333 -1.33301 -44 -4 -68l-57 -540c-6.66699 -62.667 -10 -133 -10 -211c0 -28 0.333008 -56.667 1 -86h-248
c-8 75.333 -12 133.333 -12 174c-21.333 -54 -53.666 -99.5 -96.999 -136.5s-95.666 -55.5 -156.999 -55.5zM409.994 197.002c21.333 0 43.833 8.33203 67.5 24.999s42.5 33.334 56.5 50.001l34 325c-148 -76.667 -227.333 -163.667 -238 -261
c-1.33301 -10.667 -2 -21 -2 -31c0 -29.333 5.33301 -53 16 -71c14 -24.667 36 -37 66 -37z" />
    <glyph glyph-name="ae" unicode="&#xe6;" horiz-adv-x="1360" 
d="M289 -20c-74 4 -133.334 33.334 -178.001 88.001c-37.333 45.333 -56 99.333 -56 162c0 12 0.666992 24.333 2 37c6 57.333 19.5 108 40.5 152s48.167 80.167 81.5 108.5s69 51.5 107 69.5s80.667 32.667 128 44c86 21.333 139.333 33.666 160 36.999l17 155
c1.33301 16 2 30.667 2 44c0 30.667 -4 55.334 -12 74.001c-12 27.333 -36.667 41 -74 41s-65.166 -14.667 -83.499 -44s-30.833 -73 -37.5 -131h-270c13.333 123.333 55 220.166 125 290.499s163.333 105.5 280 105.5c60 0 110 -13.167 150 -39.5s64.667 -61.833 74 -106.5
c25.333 42.667 61.166 77.667 107.499 105s97.833 41 154.5 41c110 0 191 -32.333 243 -97c42.667 -53.333 64.334 -120.666 65.001 -201.999c0 -16.667 -1 -34 -3 -52c-3.33301 -35.333 -13.333 -66.833 -30 -94.5s-35.334 -50 -56.001 -67s-47.667 -32.333 -81 -46
s-63 -23.834 -89 -30.501s-58.333 -13.667 -97 -21c-62 -12.667 -104.333 -20 -127 -22l-10 -100c-8.66699 -91.333 -13 -148.666 -13 -171.999c2.66699 -80.667 29.334 -121 80.001 -121c19.333 0 35.666 4.5 48.999 13.5s23.833 22.667 31.5 41
s13.334 36.166 17.001 53.499s6.83398 39.333 9.50098 66l6 52h264l-7 -64c-12.667 -118.667 -51.167 -210 -115.5 -274s-153.5 -96 -267.5 -96c-68 0 -124.833 20.167 -170.5 60.5s-70.5 93.5 -74.5 159.5c-38.667 -70.667 -87.334 -126 -146.001 -166
c-53.333 -36.667 -112.333 -55 -177 -55c-6 0 -12.333 0.333008 -19 1zM400.999 182.001c34.667 0 65.668 18.832 93.001 56.499s44.666 91.167 51.999 160.5l14 140c-29.333 -7.33301 -56 -16.666 -80 -27.999c-45.333 -20.667 -82 -48 -110 -82s-44.333 -71.667 -49 -113
c-0.666992 -8 -1 -15.667 -1 -23c0 -27.333 5.66699 -51.333 17 -72c14.667 -26 36 -39 64 -39zM846 717c59.333 10 93 17.999 101 23.999c40 10 69.667 23.833 89 41.5s31 46.834 35 87.501c1.33301 10.667 2 21 2 31c0.666992 28.667 -4.33301 52.334 -15 71.001
c-13.333 25.333 -37.666 38 -72.999 38c-36.667 0 -65.334 -15.333 -86.001 -46s-33.667 -71.334 -39 -122.001z" />
    <glyph glyph-name="ccedilla" unicode="&#xe7;" horiz-adv-x="893" 
d="M236 -500l14 127.999c30.667 -9.33301 64 -14.666 100 -15.999c4.66699 0 9 -0.333008 13 -1c30 0.666992 57.667 5.66699 83 15c29.333 10.667 45.333 28 48 52c2 16 0 30.167 -6 42.5s-13.833 22.5 -23.5 30.5s-23.5 15.333 -41.5 22s-33.5 11.667 -46.5 15
s-30.167 7 -51.5 11l21 201h121l-13 -125c68 -7.33301 124.667 -27.333 170 -60c42.667 -30.667 64 -70 64 -118v-11c-3.33301 -47.333 -19.5 -87.5 -48.5 -120.5s-65.167 -56.167 -108.5 -69.5c-41.333 -13.333 -86.333 -20 -135 -20h-8
c-52 0.666992 -102.667 8.66699 -152 24zM407 -18.001c-69.333 0 -127.331 10.334 -173.998 31.001s-81.834 50.167 -105.501 88.5s-39.5 84.833 -47.5 139.5c-4 26.667 -6.33301 55 -7 85c0 31.333 2.33301 64.333 7 99l35 334c15.333 145.333 55.666 255.5 120.999 330.5
s165.333 112.5 300 112.5c126 0 213.667 -29.667 263 -89c38.667 -46.667 58 -113.667 58 -201c0 -24 -1.33301 -49.333 -4 -76l-10 -94h-255l10 98c2.66699 22 4 42 4 60c0 30.667 -4 53.667 -12 69c-12 24.667 -36 37 -72 37c-40.667 0 -69.5 -14.5 -86.5 -43.5
s-29.5 -82.833 -37.5 -161.5l-44 -425c-3.33301 -30.667 -5 -57.334 -5 -80.001c-0.666992 -36 3 -62 11 -78c12 -26.667 37.167 -40 75.5 -40s65.5 13 81.5 39s27 66 33 120l13 124h255l-11 -109c-13.333 -123.333 -51.833 -215.833 -115.5 -277.5
s-157.167 -92.5 -280.5 -92.5z" />
    <glyph glyph-name="egrave" unicode="&#xe8;" horiz-adv-x="909" 
d="M468 1324l-203 409h278l78 -409h-153zM412 -18c-136 0 -229.33 37.333 -279.997 112c-38.667 57.333 -57.667 136 -57 236c0 30.667 1.66699 63.334 5 98.001l35 326c15.333 148.667 56.333 260.5 123 335.5s166.667 112.5 300 112.5
c71.333 0 130.166 -10.833 176.499 -32.5s80.166 -52.834 101.499 -93.501c22.667 -41.333 36.667 -91.333 42 -150c2 -22 3 -45.333 3 -70c0 -40 -3 -83.333 -9 -130l-16 -148h-467l-19 -174c-4 -40 -6.66699 -76.667 -8 -110v-11c0 -28.667 6.33301 -52.334 19 -71.001
c14 -21.333 37.333 -31.666 70 -30.999c39.333 0 67.666 13.5 84.999 40.5s28.333 66.5 33 118.5l10 91h261l-8 -70c-12.667 -122.667 -52.5 -216.5 -119.5 -281.5s-160.5 -97.5 -280.5 -97.5zM384.003 717l205 -0.000976562l12 113c2 20.667 3 39.334 3 56.001
c0 33.333 -4 58.666 -12 75.999c-12 26.667 -37.333 40.334 -76 41.001c-40 0 -68.667 -15 -86 -45s-30.333 -85.333 -39 -166z" />
    <glyph glyph-name="eacute" unicode="&#xe9;" horiz-adv-x="909" 
d="M467 1324l164 409h277l-287 -409h-154zM412 -18c-136 0 -229.33 37.333 -279.997 112c-38.667 57.333 -57.667 136 -57 236c0 30.667 1.66699 63.334 5 98.001l35 326c15.333 148.667 56.333 260.5 123 335.5s166.667 112.5 300 112.5
c71.333 0 130.166 -10.833 176.499 -32.5s80.166 -52.834 101.499 -93.501c22.667 -41.333 36.667 -91.333 42 -150c2 -22 3 -45.333 3 -70c0 -40 -3 -83.333 -9 -130l-16 -148h-467l-19 -174c-4 -40 -6.66699 -76.667 -8 -110v-11c0 -28.667 6.33301 -52.334 19 -71.001
c14 -21.333 37.333 -31.666 70 -30.999c39.333 0 67.666 13.5 84.999 40.5s28.333 66.5 33 118.5l10 91h261l-8 -70c-12.667 -122.667 -52.5 -216.5 -119.5 -281.5s-160.5 -97.5 -280.5 -97.5zM384.003 717l205 -0.000976562l12 113c2 20.667 3 39.334 3 56.001
c0 33.333 -4 58.666 -12 75.999c-12 26.667 -37.333 40.334 -76 41.001c-40 0 -68.667 -15 -86 -45s-30.333 -85.333 -39 -166z" />
    <glyph glyph-name="ecircumflex" unicode="&#xea;" horiz-adv-x="909" 
d="M234 1324l222 370h251l148 -370h-204l-82 240l-132 -240h-203zM412 -18c-136 0 -229.33 37.333 -279.997 112c-38.667 57.333 -57.667 136 -57 236c0 30.667 1.66699 63.334 5 98.001l35 326c15.333 148.667 56.333 260.5 123 335.5s166.667 112.5 300 112.5
c71.333 0 130.166 -10.833 176.499 -32.5s80.166 -52.834 101.499 -93.501c22.667 -41.333 36.667 -91.333 42 -150c2 -22 3 -45.333 3 -70c0 -40 -3 -83.333 -9 -130l-16 -148h-467l-19 -174c-4 -40 -6.66699 -76.667 -8 -110v-11c0 -28.667 6.33301 -52.334 19 -71.001
c14 -21.333 37.333 -31.666 70 -30.999c39.333 0 67.666 13.5 84.999 40.5s28.333 66.5 33 118.5l10 91h261l-8 -70c-12.667 -122.667 -52.5 -216.5 -119.5 -281.5s-160.5 -97.5 -280.5 -97.5zM384.003 717l205 -0.000976562l12 113c2 20.667 3 39.334 3 56.001
c0 33.333 -4 58.666 -12 75.999c-12 26.667 -37.333 40.334 -76 41.001c-40 0 -68.667 -15 -86 -45s-30.333 -85.333 -39 -166z" />
    <glyph glyph-name="edieresis" unicode="&#xeb;" horiz-adv-x="909" 
d="M225 1324l27 262h249l-27 -262h-249zM613 1324l28 262h250l-28 -262h-250zM412 -18c-136 0 -229.33 37.333 -279.997 112c-38.667 57.333 -57.667 136 -57 236c0 30.667 1.66699 63.334 5 98.001l35 326c15.333 148.667 56.333 260.5 123 335.5s166.667 112.5 300 112.5
c71.333 0 130.166 -10.833 176.499 -32.5s80.166 -52.834 101.499 -93.501c22.667 -41.333 36.667 -91.333 42 -150c2 -22 3 -45.333 3 -70c0 -40 -3 -83.333 -9 -130l-16 -148h-467l-19 -174c-4 -40 -6.66699 -76.667 -8 -110v-11c0 -28.667 6.33301 -52.334 19 -71.001
c14 -21.333 37.333 -31.666 70 -30.999c39.333 0 67.666 13.5 84.999 40.5s28.333 66.5 33 118.5l10 91h261l-8 -70c-12.667 -122.667 -52.5 -216.5 -119.5 -281.5s-160.5 -97.5 -280.5 -97.5zM384.003 717l205 -0.000976562l12 113c2 20.667 3 39.334 3 56.001
c0 33.333 -4 58.666 -12 75.999c-12 26.667 -37.333 40.334 -76 41.001c-40 0 -68.667 -15 -86 -45s-30.333 -85.333 -39 -166z" />
    <glyph glyph-name="igrave" unicode="&#xec;" horiz-adv-x="512" 
d="M271 1324l-203 409h278l78 -409h-153zM73 0l124 1184h274l-124 -1184h-274z" />
    <glyph glyph-name="iacute" unicode="&#xed;" horiz-adv-x="512" 
d="M271 1324l164 409h277l-287 -409h-154zM73 0l124 1184h274l-124 -1184h-274z" />
    <glyph glyph-name="icircumflex" unicode="&#xee;" horiz-adv-x="512" 
d="M37 1324l222 370h251l148 -370h-204l-82 240l-132 -240h-203zM73 0l124 1184h274l-124 -1184h-274z" />
    <glyph glyph-name="idieresis" unicode="&#xef;" horiz-adv-x="512" 
d="M29 1324l27 262h249l-27 -262h-249zM417 1324l28 262h250l-28 -262h-250zM73 0l124 1184h274l-124 -1184h-274z" />
    <glyph glyph-name="eth" unicode="&#xf0;" horiz-adv-x="1012" 
d="M439 -22c-139.333 0 -234.329 38.667 -284.996 116c-38 58 -57 139.667 -57 245c0 34.667 2 71.667 6 111l23 214c7.33301 72 20.166 137 38.499 195s42.666 110 72.999 156s69.166 81.5 116.499 106.5s101.333 37.5 162 37.5c72 0 130.667 -20.667 176 -62
c0.666992 18 1 35.333 1 52c0 91.333 -12.333 159 -37 203l-232 -85l-3 106l184 66c-44.667 53.333 -142.334 80 -293.001 80l31 175c127.333 0 229 -13.5 305 -40.5s133.333 -68.833 172 -125.5l232 83l3 -107l-184 -64c27.333 -64.667 49 -153 65 -265
c8.66699 -63.333 13 -127.333 13 -192c0 -49.333 -2.66699 -99 -8 -149l-39 -367c-16.667 -162 -64 -284 -142 -366s-185 -123 -321 -123zM465.004 179c28 0 51.832 5.33301 71.499 16s35 26.667 46 48s19.333 43.833 25 67.5s10.167 53.167 13.5 88.5l53 504l-8 8
c-4.66699 5.33301 -8.5 9.33301 -11.5 12s-8 6.5 -15 11.5s-13.667 8.83301 -20 11.5s-14.666 5.16699 -24.999 7.5s-20.833 3.5 -31.5 3.5c-52.667 0 -91.167 -27.333 -115.5 -82s-43.5 -149 -57.5 -283c-2 -20.667 -4.83301 -45.167 -8.5 -73.5l-9 -70.5
c-2.33301 -18.667 -4.66602 -39.834 -6.99902 -63.501s-3.5 -43.167 -3.5 -58.5s0.666992 -31.666 2 -48.999s4.5 -31.333 9.5 -42s11.167 -20.5 18.5 -29.5s17.166 -15.667 29.499 -20s26.833 -6.5 43.5 -6.5z" />
    <glyph glyph-name="ntilde" unicode="&#xf1;" horiz-adv-x="963" 
d="M735 1324l-3 0.00292969c-28.667 0 -60.334 8 -95.001 24c-36 16 -70.167 32.5 -102.5 49.5s-57.5 25.5 -75.5 25.5c-34 0 -53.667 -27.667 -59 -83h-144c8 80 27.667 142 59 186s79.666 67 144.999 69h7c29.333 0.666992 61 -6.33301 95 -21
c36.667 -16 69.834 -32.333 99.501 -49s51.167 -25.334 64.5 -26.001c17.333 -0.666992 30.333 5.33301 39 18s14.334 33.667 17.001 63h139c-4 -36.667 -9.66699 -69.167 -17 -97.5s-18 -54.833 -32 -79.5s-32.5 -43.834 -55.5 -57.501s-50.167 -20.834 -81.5 -21.501z
M58 0.00292969l123.999 1184h274l-12 -116c105.333 89.333 206.333 134 303 134c34.667 0 64.334 -7.33301 89.001 -22s42.5 -34 53.5 -58s18.833 -51.333 23.5 -82c2 -14 3 -28.333 3 -43c0 -16.667 -1.33301 -33 -4 -49l-99 -948h-274l92 885c1.33301 12 2 23 2 33
c0 21.333 -3 38 -9 50c-8.66699 18.667 -28.667 28 -60 28c-36.667 -0.666992 -81 -19.334 -133 -56.001l-99 -940h-274z" />
    <glyph glyph-name="ograve" unicode="&#xf2;" horiz-adv-x="923" 
d="M474 1324l-203 409h278l78 -409h-153zM429 176c19.333 0 36.001 3.83008 50.001 11.4971s25.167 17.167 33.5 28.5s15.5 26.833 21.5 46.5s10.167 37.834 12.5 54.501s4.83301 37.667 7.5 63l45 423c2 36.667 3.66699 70.334 5 101.001c0 2 0.333008 3.66699 1 5
c-0.666992 27.333 -7.66699 50.333 -21 69c-14.667 20 -37 30 -67 30c-18.667 0 -35.167 -4 -49.5 -12s-25.666 -17.667 -33.999 -29s-15.333 -27 -21 -47s-9.83398 -38.167 -12.501 -54.5s-5.33398 -37.166 -8.00098 -62.499l-45 -423c-3.33301 -46 -5 -80.667 -5 -104
c0 -28 6.66699 -51.333 20 -70c14 -20 36.333 -30 67 -30zM408.001 -18.0029c-128 0 -218.667 36.002 -272 108.002c-42.667 57.333 -63.667 134 -63 230c0 25.333 1.33301 51.666 4 78.999l40 386c14.667 133.333 56.5 236.166 125.5 308.499s167.167 108.5 294.5 108.5
s218.333 -36 273 -108c43.333 -57.333 65 -133.333 65 -228c0 -25.333 -1.66699 -52.333 -5 -81l-40 -386c-14.667 -134 -56.667 -237 -126 -309s-168 -108 -296 -108z" />
    <glyph glyph-name="oacute" unicode="&#xf3;" horiz-adv-x="923" 
d="M473 1324l164 409h277l-287 -409h-154zM429 176c19.333 0 36.001 3.83008 50.001 11.4971s25.167 17.167 33.5 28.5s15.5 26.833 21.5 46.5s10.167 37.834 12.5 54.501s4.83301 37.667 7.5 63l45 423c2 36.667 3.66699 70.334 5 101.001c0 2 0.333008 3.66699 1 5
c-0.666992 27.333 -7.66699 50.333 -21 69c-14.667 20 -37 30 -67 30c-18.667 0 -35.167 -4 -49.5 -12s-25.666 -17.667 -33.999 -29s-15.333 -27 -21 -47s-9.83398 -38.167 -12.501 -54.5s-5.33398 -37.166 -8.00098 -62.499l-45 -423c-3.33301 -46 -5 -80.667 -5 -104
c0 -28 6.66699 -51.333 20 -70c14 -20 36.333 -30 67 -30zM408.001 -18.0029c-128 0 -218.667 36.002 -272 108.002c-42.667 57.333 -63.667 134 -63 230c0 25.333 1.33301 51.666 4 78.999l40 386c14.667 133.333 56.5 236.166 125.5 308.499s167.167 108.5 294.5 108.5
s218.333 -36 273 -108c43.333 -57.333 65 -133.333 65 -228c0 -25.333 -1.66699 -52.333 -5 -81l-40 -386c-14.667 -134 -56.667 -237 -126 -309s-168 -108 -296 -108z" />
    <glyph glyph-name="ocircumflex" unicode="&#xf4;" horiz-adv-x="923" 
d="M240 1324l222 370h251l148 -370h-204l-82 240l-132 -240h-203zM429 176c19.333 0 36.001 3.83008 50.001 11.4971s25.167 17.167 33.5 28.5s15.5 26.833 21.5 46.5s10.167 37.834 12.5 54.501s4.83301 37.667 7.5 63l45 423c2 36.667 3.66699 70.334 5 101.001
c0 2 0.333008 3.66699 1 5c-0.666992 27.333 -7.66699 50.333 -21 69c-14.667 20 -37 30 -67 30c-18.667 0 -35.167 -4 -49.5 -12s-25.666 -17.667 -33.999 -29s-15.333 -27 -21 -47s-9.83398 -38.167 -12.501 -54.5s-5.33398 -37.166 -8.00098 -62.499l-45 -423
c-3.33301 -46 -5 -80.667 -5 -104c0 -28 6.66699 -51.333 20 -70c14 -20 36.333 -30 67 -30zM408.001 -18.0029c-128 0 -218.667 36.002 -272 108.002c-42.667 57.333 -63.667 134 -63 230c0 25.333 1.33301 51.666 4 78.999l40 386
c14.667 133.333 56.5 236.166 125.5 308.499s167.167 108.5 294.5 108.5s218.333 -36 273 -108c43.333 -57.333 65 -133.333 65 -228c0 -25.333 -1.66699 -52.333 -5 -81l-40 -386c-14.667 -134 -56.667 -237 -126 -309s-168 -108 -296 -108z" />
    <glyph glyph-name="otilde" unicode="&#xf5;" horiz-adv-x="923" 
d="M711 1324l-3 0.00292969c-28.667 0 -60.334 8 -95.001 24c-36 16 -70.167 32.5 -102.5 49.5s-57.5 25.5 -75.5 25.5c-34 0 -53.667 -27.667 -59 -83h-144c8 80 27.667 142 59 186s79.666 67 144.999 69h7c29.333 0.666992 61 -6.33301 95 -21
c36.667 -16 69.834 -32.333 99.501 -49s51.167 -25.334 64.5 -26.001c17.333 -0.666992 30.333 5.33301 39 18s14.334 33.667 17.001 63h139c-4 -36.667 -9.66699 -69.167 -17 -97.5s-18 -54.833 -32 -79.5s-32.5 -43.834 -55.5 -57.501s-50.167 -20.834 -81.5 -21.501z
M429 176.003c19.333 0 36.001 3.83008 50.001 11.4971s25.167 17.167 33.5 28.5s15.5 26.833 21.5 46.5s10.167 37.834 12.5 54.501s4.83301 37.667 7.5 63l45 423c2 36.667 3.66699 70.334 5 101.001c0 2 0.333008 3.66699 1 5c-0.666992 27.333 -7.66699 50.333 -21 69
c-14.667 20 -37 30 -67 30c-18.667 0 -35.167 -4 -49.5 -12s-25.666 -17.667 -33.999 -29s-15.333 -27 -21 -47s-9.83398 -38.167 -12.501 -54.5s-5.33398 -37.166 -8.00098 -62.499l-45 -423c-3.33301 -46 -5 -80.667 -5 -104c0 -28 6.66699 -51.333 20 -70
c14 -20 36.333 -30 67 -30zM408.001 -18c-128 0 -218.667 36.002 -272 108.002c-42.667 57.333 -63.667 134 -63 230c0 25.333 1.33301 51.666 4 78.999l40 386c14.667 133.333 56.5 236.166 125.5 308.499s167.167 108.5 294.5 108.5s218.333 -36 273 -108
c43.333 -57.333 65 -133.333 65 -228c0 -25.333 -1.66699 -52.333 -5 -81l-40 -386c-14.667 -134 -56.667 -237 -126 -309s-168 -108 -296 -108z" />
    <glyph glyph-name="odieresis" unicode="&#xf6;" horiz-adv-x="923" 
d="M231 1324l27 262h249l-27 -262h-249zM619 1324l28 262h250l-28 -262h-250zM429 176c19.333 0 36.001 3.83008 50.001 11.4971s25.167 17.167 33.5 28.5s15.5 26.833 21.5 46.5s10.167 37.834 12.5 54.501s4.83301 37.667 7.5 63l45 423
c2 36.667 3.66699 70.334 5 101.001c0 2 0.333008 3.66699 1 5c-0.666992 27.333 -7.66699 50.333 -21 69c-14.667 20 -37 30 -67 30c-18.667 0 -35.167 -4 -49.5 -12s-25.666 -17.667 -33.999 -29s-15.333 -27 -21 -47s-9.83398 -38.167 -12.501 -54.5
s-5.33398 -37.166 -8.00098 -62.499l-45 -423c-3.33301 -46 -5 -80.667 -5 -104c0 -28 6.66699 -51.333 20 -70c14 -20 36.333 -30 67 -30zM408.001 -18.0029c-128 0 -218.667 36.002 -272 108.002c-42.667 57.333 -63.667 134 -63 230c0 25.333 1.33301 51.666 4 78.999
l40 386c14.667 133.333 56.5 236.166 125.5 308.499s167.167 108.5 294.5 108.5s218.333 -36 273 -108c43.333 -57.333 65 -133.333 65 -228c0 -25.333 -1.66699 -52.333 -5 -81l-40 -386c-14.667 -134 -56.667 -237 -126 -309s-168 -108 -296 -108z" />
    <glyph glyph-name="divide" unicode="&#xf7;" horiz-adv-x="797" 
d="M291 348l26 244h194l-26 -244h-194zM78 759l18 174h701l-18 -174h-701zM368 1080l25 244h195l-26 -244h-194z" />
    <glyph glyph-name="oslash" unicode="&#xf8;" horiz-adv-x="919" 
d="M356 466l237.001 497.999c-14 29.333 -39.333 44 -76 44c-18.667 0 -35.167 -4 -49.5 -12s-25.666 -17.667 -33.999 -29s-15.333 -27 -21 -47s-9.83398 -38.167 -12.501 -54.5s-5.33398 -37.166 -8.00098 -62.499zM429.001 175.999
c19.333 0 35.999 3.83203 49.999 11.499s25.167 17.167 33.5 28.5s15.5 26.833 21.5 46.5s10.167 37.834 12.5 54.501s4.83301 37.667 7.5 63l44 411l-255 -530c6.66699 -56.667 35.334 -85 86.001 -85zM123 -197.002l-69 26l110 231c-61.333 56.667 -92 142.667 -92 258
c0 26 1.66699 53 5 81l40 386c14.667 133.333 56.5 236.166 125.5 308.499s167.167 108.5 294.5 108.5c58.667 0 111 -8.33301 157 -25l96 203l77 -29l-102 -213c72.667 -56 109 -147.333 109 -274c0 -25.333 -1.33301 -51.666 -4 -78.999l-40 -386
c-14.667 -134 -56.667 -237 -126 -309s-168 -108 -296 -108c-72 0 -132.667 12 -182 36z" />
    <glyph glyph-name="ugrave" unicode="&#xf9;" horiz-adv-x="960" 
d="M486 1324l-203 409h278l78 -409h-153zM239 -18c-34.667 0 -64.168 7.16797 -88.501 21.501s-42.166 34.166 -53.499 59.499c-11.333 26 -19 53 -23 81c-2 14.667 -2.66699 30 -2 46c0 14.667 0.666992 30 2 46l99 948h274l-93 -889c-1.33301 -10.667 -2 -20.667 -2 -30
c0 -22 3.33301 -39.667 10 -53c9.33301 -18 29 -27 59 -27h3c34 0 76.333 17.333 127 52l100 947h274l-124 -1184h-274l11 111c-103.333 -86 -203 -129 -299 -129z" />
    <glyph glyph-name="uacute" unicode="&#xfa;" horiz-adv-x="960" 
d="M486 1324l164 409h277l-287 -409h-154zM239 -18c-34.667 0 -64.168 7.16797 -88.501 21.501s-42.166 34.166 -53.499 59.499c-11.333 26 -19 53 -23 81c-2 14.667 -2.66699 30 -2 46c0 14.667 0.666992 30 2 46l99 948h274l-93 -889c-1.33301 -10.667 -2 -20.667 -2 -30
c0 -22 3.33301 -39.667 10 -53c9.33301 -18 29 -27 59 -27h3c34 0 76.333 17.333 127 52l100 947h274l-124 -1184h-274l11 111c-103.333 -86 -203 -129 -299 -129z" />
    <glyph glyph-name="ucircumflex" unicode="&#xfb;" horiz-adv-x="960" 
d="M252 1324l222 370h251l148 -370h-204l-82 240l-132 -240h-203zM239 -18c-34.667 0 -64.168 7.16797 -88.501 21.501s-42.166 34.166 -53.499 59.499c-11.333 26 -19 53 -23 81c-2 14.667 -2.66699 30 -2 46c0 14.667 0.666992 30 2 46l99 948h274l-93 -889
c-1.33301 -10.667 -2 -20.667 -2 -30c0 -22 3.33301 -39.667 10 -53c9.33301 -18 29 -27 59 -27h3c34 0 76.333 17.333 127 52l100 947h274l-124 -1184h-274l11 111c-103.333 -86 -203 -129 -299 -129z" />
    <glyph glyph-name="udieresis" unicode="&#xfc;" horiz-adv-x="960" 
d="M244 1324l27 262h249l-27 -262h-249zM632 1324l28 262h250l-28 -262h-250zM239 -18c-34.667 0 -64.168 7.16797 -88.501 21.501s-42.166 34.166 -53.499 59.499c-11.333 26 -19 53 -23 81c-2 14.667 -2.66699 30 -2 46c0 14.667 0.666992 30 2 46l99 948h274l-93 -889
c-1.33301 -10.667 -2 -20.667 -2 -30c0 -22 3.33301 -39.667 10 -53c9.33301 -18 29 -27 59 -27h3c34 0 76.333 17.333 127 52l100 947h274l-124 -1184h-274l11 111c-103.333 -86 -203 -129 -299 -129z" />
    <glyph glyph-name="yacute" unicode="&#xfd;" horiz-adv-x="849" 
d="M433 1324l164 409h277l-287 -409h-154zM28 -314l21 199.001c86.667 0.666992 144.334 9 173.001 25c24.667 14 37 41.667 37 83c0 6.66699 -0.333008 13.667 -1 21c-2.66699 28.667 -10 86 -22 172l-148 998h270l65 -787l212 787h270l-412 -1245
c-30.667 -92.667 -82 -158.334 -154 -197.001c-70.667 -38 -161.334 -56.667 -272.001 -56h-6h-33z" />
    <glyph glyph-name="thorn" unicode="&#xfe;" horiz-adv-x="963" 
d="M14 -390l214.999 2048h274l-58 -565c78.667 72.667 160.334 109 245.001 109h2c30.667 0 58.334 -5.16699 83.001 -15.5s45.167 -23.833 61.5 -40.5s30.166 -36.5 41.499 -59.5s19.666 -46.5 24.999 -70.5c4.66699 -23.333 8.33398 -48.666 11.001 -75.999
c2 -24 3.33301 -46 4 -66v-9c0 -22.667 -1.66699 -45.334 -5 -68.001l-40 -377c-6 -60.667 -16.667 -116.167 -32 -166.5s-35.833 -96.333 -61.5 -138s-58.5 -74.334 -98.5 -98.001s-85.333 -35.5 -136 -35.5c-73.333 0 -142.333 35.333 -207 106l-50 -478h-274z
M474.999 180.001c21.333 0 39.666 6.00195 54.999 18.002s27.333 29.833 36 53.5s15.334 47.667 20.001 72s8.66699 54.166 12 89.499l42 394c2 26 3 50.667 3 74c-0.666992 8.66699 -1 17 -1 25c-1.33301 29.333 -9 54 -23 74c-14 19.333 -34.333 29 -61 29h-3
c-37.333 -0.666992 -79 -16.334 -125 -47.001l-78 -743c38 -25.333 79 -38.333 123 -39z" />
    <glyph glyph-name="ydieresis" unicode="&#xff;" horiz-adv-x="849" 
d="M191 1324l27 262h249l-27 -262h-249zM579 1324l28 262h250l-28 -262h-250zM28 -314l21 199.001c86.667 0.666992 144.334 9 173.001 25c24.667 14 37 41.667 37 83c0 6.66699 -0.333008 13.667 -1 21c-2.66699 28.667 -10 86 -22 172l-148 998h270l65 -787l212 787h270
l-412 -1245c-30.667 -92.667 -82 -158.334 -154 -197.001c-70.667 -38 -161.334 -56.667 -272.001 -56h-6h-33z" />
    <glyph glyph-name="Amacron" unicode="&#x100;" horiz-adv-x="1058" 
d="M436 1799l16 147h463l-16 -147h-463zM-12 0l513 1658h305l165 -1658h-276l-28 388h-291l-110 -388h-278zM429 583h227l-42 685z" />
    <glyph glyph-name="amacron" unicode="&#x101;" horiz-adv-x="922" 
d="M320 1324l16 147h463l-16 -147h-463zM282 -18c-74 0.666992 -131.673 29.668 -173.006 87.001c-35.333 48.667 -53 103 -53 163c0 10.667 0.666992 21.334 2 32.001c4.66699 40.667 13.334 78.5 26.001 113.5s28.167 65.667 46.5 92s40 51 65 74s50.5 42.667 76.5 59
s55 32.166 87 47.499s62.167 28.666 90.5 39.999s59.166 23 92.499 35l41 15l10 98c2 22 3 42 3 60v26c-1.33301 24 -8.66602 42.167 -21.999 54.5s-33 18.5 -59 18.5c-65.333 0 -102.666 -44.667 -111.999 -134l-11 -73l-264 11l3.5 22
c1.66699 10.667 2.83398 17.667 3.50098 21c20.667 123.333 66.334 213.833 137.001 271.5s166 86.5 286 86.5c116.667 0 199.667 -31.667 249 -95c39.333 -50.667 59 -118 59 -202c0 -21.333 -1.33301 -44 -4 -68l-57 -540c-6.66699 -62.667 -10 -133 -10 -211
c0 -28 0.333008 -56.667 1 -86h-248c-8 75.333 -12 133.333 -12 174c-21.333 -54 -53.666 -99.5 -96.999 -136.5s-95.666 -55.5 -156.999 -55.5zM409.994 197.001c21.333 0 43.833 8.33203 67.5 24.999s42.5 33.334 56.5 50.001l34 325
c-148 -76.667 -227.333 -163.667 -238 -261c-1.33301 -10.667 -2 -21 -2 -31c0 -29.333 5.33301 -53 16 -71c14 -24.667 36 -37 66 -37z" />
    <glyph glyph-name="Abreve" unicode="&#x102;" horiz-adv-x="1058" 
d="M668 1799c-102 0 -173.668 26.333 -215.001 79c-34 43.333 -51 98.666 -51 165.999c0 15.333 1 31.333 3 48h140c-1.33301 -12 -2 -23.333 -2 -34c0 -39.333 8.66699 -68.666 26 -87.999c22.667 -25.333 60.334 -38 113.001 -38c52 0 91.667 12.833 119 38.5
s44 66.167 50 121.5h141c-9.33301 -90 -40.333 -161.333 -93 -214s-129.667 -79 -231 -79zM-12.001 0l513 1658h305l165 -1658h-276l-28 388h-291l-110 -388h-278zM428.999 583h227l-42 685z" />
    <glyph glyph-name="abreve" unicode="&#x103;" horiz-adv-x="922" 
d="M552 1324c-102 0 -173.668 26.333 -215.001 79c-34 43.333 -51 98.666 -51 165.999c0 15.333 1 31.333 3 48h140c-1.33301 -12 -2 -23.333 -2 -34c0 -39.333 8.66699 -68.666 26 -87.999c22.667 -25.333 60.334 -38 113.001 -38c52 0 91.667 12.833 119 38.5
s44 66.167 50 121.5h141c-9.33301 -90 -40.333 -161.333 -93 -214s-129.667 -79 -231 -79zM281.999 -18c-74 0.666992 -131.673 29.668 -173.006 87.001c-35.333 48.667 -53 103 -53 163c0 10.667 0.666992 21.334 2 32.001c4.66699 40.667 13.334 78.5 26.001 113.5
s28.167 65.667 46.5 92s40 51 65 74s50.5 42.667 76.5 59s55 32.166 87 47.499s62.167 28.666 90.5 39.999s59.166 23 92.499 35l41 15l10 98c2 22 3 42 3 60v26c-1.33301 24 -8.66602 42.167 -21.999 54.5s-33 18.5 -59 18.5c-65.333 0 -102.666 -44.667 -111.999 -134
l-11 -73l-264 11l3.5 22c1.66699 10.667 2.83398 17.667 3.50098 21c20.667 123.333 66.334 213.833 137.001 271.5s166 86.5 286 86.5c116.667 0 199.667 -31.667 249 -95c39.333 -50.667 59 -118 59 -202c0 -21.333 -1.33301 -44 -4 -68l-57 -540
c-6.66699 -62.667 -10 -133 -10 -211c0 -28 0.333008 -56.667 1 -86h-248c-8 75.333 -12 133.333 -12 174c-21.333 -54 -53.666 -99.5 -96.999 -136.5s-95.666 -55.5 -156.999 -55.5zM409.993 197.001c21.333 0 43.833 8.33203 67.5 24.999s42.5 33.334 56.5 50.001l34 325
c-148 -76.667 -227.333 -163.667 -238 -261c-1.33301 -10.667 -2 -21 -2 -31c0 -29.333 5.33301 -53 16 -71c14 -24.667 36 -37 66 -37z" />
    <glyph glyph-name="Aogonek" unicode="&#x104;" horiz-adv-x="1058" 
d="M871 -490l-45.501 0.00195312h-37.5c-22 0.666992 -47.5 2.16699 -76.5 4.5s-52.833 6 -71.5 11s-37.667 12.333 -57 22s-34 21.167 -44 34.5c-10.667 14.667 -18.667 32 -24 52c-4 14 -6 29 -6 45c0 8 0.333008 16.333 1 25c6 61.333 33.333 121.666 82 180.999
s101.334 101.666 158.001 126.999h132c-4.66699 -7.33301 -24.5 -33.333 -59.5 -78s-61.5 -83.167 -79.5 -115.5s-28.333 -63.5 -31 -93.5c-1.33301 -14 0 -26.167 4 -36.5s11 -18.333 21 -24s20.333 -10.167 31 -13.5s23.834 -5.33301 39.501 -6s29.167 -1 40.5 -1
s25.166 0.333008 41.499 1s27.833 1 34.5 1zM-12.001 0.00195312l513 1658h305l165 -1658h-276l-28 388h-291l-110 -388h-278zM428.999 583.002h227l-42 685z" />
    <glyph glyph-name="aogonek" unicode="&#x105;" horiz-adv-x="922" 
d="M705 -490l-45.501 0.00195312h-37.5c-22 0.666992 -47.5 2.16699 -76.5 4.5s-52.833 6 -71.5 11s-37.667 12.333 -57 22s-34 21.167 -44 34.5c-10.667 14.667 -18.667 32 -24 52c-4 14 -6 29 -6 45c0 8 0.333008 16.333 1 25c6 61.333 33.333 121.666 82 180.999
s101.334 101.666 158.001 126.999h132c-4.66699 -7.33301 -24.5 -33.333 -59.5 -78s-61.5 -83.167 -79.5 -115.5s-28.333 -63.5 -31 -93.5c-1.33301 -14 0 -26.167 4 -36.5s11 -18.333 21 -24s20.333 -10.167 31 -13.5s23.834 -5.33301 39.501 -6s29.167 -1 40.5 -1
s25.166 0.333008 41.499 1s27.833 1 34.5 1zM281.999 -17.998c-74 0.666992 -131.673 29.668 -173.006 87.001c-35.333 48.667 -53 103 -53 163c0 10.667 0.666992 21.334 2 32.001c4.66699 40.667 13.334 78.5 26.001 113.5s28.167 65.667 46.5 92s40 51 65 74
s50.5 42.667 76.5 59s55 32.166 87 47.499s62.167 28.666 90.5 39.999s59.166 23 92.499 35l41 15l10 98c2 22 3 42 3 60v26c-1.33301 24 -8.66602 42.167 -21.999 54.5s-33 18.5 -59 18.5c-65.333 0 -102.666 -44.667 -111.999 -134l-11 -73l-264 11l3.5 22
c1.66699 10.667 2.83398 17.667 3.50098 21c20.667 123.333 66.334 213.833 137.001 271.5s166 86.5 286 86.5c116.667 0 199.667 -31.667 249 -95c39.333 -50.667 59 -118 59 -202c0 -21.333 -1.33301 -44 -4 -68l-57 -540c-6.66699 -62.667 -10 -133 -10 -211
c0 -28 0.333008 -56.667 1 -86h-248c-8 75.333 -12 133.333 -12 174c-21.333 -54 -53.666 -99.5 -96.999 -136.5s-95.666 -55.5 -156.999 -55.5zM409.993 197.003c21.333 0 43.833 8.33203 67.5 24.999s42.5 33.334 56.5 50.001l34 325
c-148 -76.667 -227.333 -163.667 -238 -261c-1.33301 -10.667 -2 -21 -2 -31c0 -29.333 5.33301 -53 16 -71c14 -24.667 36 -37 66 -37z" />
    <glyph glyph-name="Cacute" unicode="&#x106;" horiz-adv-x="1097" 
d="M617 1799l164 409h277l-287 -409h-154zM514 -20c-71.333 0 -133.333 8.99805 -186 26.998s-94.667 43.333 -126 76s-56 72.334 -74 119.001c-17.333 46.667 -27.333 98 -30 154c-0.666992 16 -0.666992 32 0 48c0 42.667 2 87.334 6 134.001l61 577
c9.33301 90 25 168 47 234s53 124.333 93 175s92.333 88.834 157 114.501s141.667 38.5 231 38.5c82 0 151 -11 207 -33s98.667 -54.333 128 -97c29.333 -42 48.666 -91.667 57.999 -149c5.33301 -30.667 8 -64.334 8 -101.001c0 -31.333 -2 -64.333 -6 -99l-15 -142h-285
l15 139c5.33301 52 8 93.333 8 124c0 18.667 -1 33.667 -3 45c-10.667 54 -45.334 84.667 -104.001 92c-10 1.33301 -21 2 -33 2c-31.333 0 -58.333 -5 -81 -15s-40.667 -22.5 -54 -37.5s-24.666 -36 -33.999 -63s-16.166 -52.5 -20.499 -76.5s-8.5 -55.333 -12.5 -94
l-72 -694c-4 -36 -6 -68.333 -6 -97c0 -52 6.66699 -91.333 20 -118c20.667 -42 63.334 -63 128.001 -63c19.333 0 36.666 1.66699 51.999 5s29 9 41 17s22.333 16 31 24s16.167 19.5 22.5 34.5s11.666 28.333 15.999 40s8.33301 27.667 12 48s6.33398 37.5 8.00098 51.5
s3.83398 33.333 6.50098 58l15 144h284l-14 -135c-6.66699 -62 -16.834 -117.833 -30.501 -167.5s-33.334 -96.167 -59.001 -139.5s-56.667 -79.333 -93 -108s-81.166 -51.167 -134.499 -67.5s-114 -24.5 -182 -24.5z" />
    <glyph glyph-name="cacute" unicode="&#x107;" horiz-adv-x="893" 
d="M463 1324l164 409h277l-287 -409h-154zM407 -18c-69.333 0 -127.331 10.334 -173.998 31.001s-81.834 50.167 -105.501 88.5s-39.5 84.833 -47.5 139.5c-4 26.667 -6.33301 55 -7 85c0 31.333 2.33301 64.333 7 99l35 334c15.333 145.333 55.666 255.5 120.999 330.5
s165.333 112.5 300 112.5c126 0 213.667 -29.667 263 -89c38.667 -46.667 58 -113.667 58 -201c0 -24 -1.33301 -49.333 -4 -76l-10 -94h-255l10 98c2.66699 22 4 42 4 60c0 30.667 -4 53.667 -12 69c-12 24.667 -36 37 -72 37c-40.667 0 -69.5 -14.5 -86.5 -43.5
s-29.5 -82.833 -37.5 -161.5l-44 -425c-3.33301 -30.667 -5 -57.334 -5 -80.001c-0.666992 -36 3 -62 11 -78c12 -26.667 37.167 -40 75.5 -40s65.5 13 81.5 39s27 66 33 120l13 124h255l-11 -109c-13.333 -123.333 -51.833 -215.833 -115.5 -277.5
s-157.167 -92.5 -280.5 -92.5z" />
    <glyph glyph-name="Ccircumflex" unicode="&#x108;" horiz-adv-x="1097" 
d="M383 1799l222 370h251l148 -370h-204l-82 240l-132 -240h-203zM514 -20c-71.333 0 -133.333 8.99805 -186 26.998s-94.667 43.333 -126 76s-56 72.334 -74 119.001c-17.333 46.667 -27.333 98 -30 154c-0.666992 16 -0.666992 32 0 48c0 42.667 2 87.334 6 134.001
l61 577c9.33301 90 25 168 47 234s53 124.333 93 175s92.333 88.834 157 114.501s141.667 38.5 231 38.5c82 0 151 -11 207 -33s98.667 -54.333 128 -97c29.333 -42 48.666 -91.667 57.999 -149c5.33301 -30.667 8 -64.334 8 -101.001c0 -31.333 -2 -64.333 -6 -99l-15 -142
h-285l15 139c5.33301 52 8 93.333 8 124c0 18.667 -1 33.667 -3 45c-10.667 54 -45.334 84.667 -104.001 92c-10 1.33301 -21 2 -33 2c-31.333 0 -58.333 -5 -81 -15s-40.667 -22.5 -54 -37.5s-24.666 -36 -33.999 -63s-16.166 -52.5 -20.499 -76.5s-8.5 -55.333 -12.5 -94
l-72 -694c-4 -36 -6 -68.333 -6 -97c0 -52 6.66699 -91.333 20 -118c20.667 -42 63.334 -63 128.001 -63c19.333 0 36.666 1.66699 51.999 5s29 9 41 17s22.333 16 31 24s16.167 19.5 22.5 34.5s11.666 28.333 15.999 40s8.33301 27.667 12 48s6.33398 37.5 8.00098 51.5
s3.83398 33.333 6.50098 58l15 144h284l-14 -135c-6.66699 -62 -16.834 -117.833 -30.501 -167.5s-33.334 -96.167 -59.001 -139.5s-56.667 -79.333 -93 -108s-81.166 -51.167 -134.499 -67.5s-114 -24.5 -182 -24.5z" />
    <glyph glyph-name="ccircumflex" unicode="&#x109;" horiz-adv-x="893" 
d="M229 1324l222 370h251l148 -370h-204l-82 240l-132 -240h-203zM407 -18c-69.333 0 -127.331 10.334 -173.998 31.001s-81.834 50.167 -105.501 88.5s-39.5 84.833 -47.5 139.5c-4 26.667 -6.33301 55 -7 85c0 31.333 2.33301 64.333 7 99l35 334
c15.333 145.333 55.666 255.5 120.999 330.5s165.333 112.5 300 112.5c126 0 213.667 -29.667 263 -89c38.667 -46.667 58 -113.667 58 -201c0 -24 -1.33301 -49.333 -4 -76l-10 -94h-255l10 98c2.66699 22 4 42 4 60c0 30.667 -4 53.667 -12 69c-12 24.667 -36 37 -72 37
c-40.667 0 -69.5 -14.5 -86.5 -43.5s-29.5 -82.833 -37.5 -161.5l-44 -425c-3.33301 -30.667 -5 -57.334 -5 -80.001c-0.666992 -36 3 -62 11 -78c12 -26.667 37.167 -40 75.5 -40s65.5 13 81.5 39s27 66 33 120l13 124h255l-11 -109
c-13.333 -123.333 -51.833 -215.833 -115.5 -277.5s-157.167 -92.5 -280.5 -92.5z" />
    <glyph glyph-name="Cdotaccent" unicode="&#x10a;" horiz-adv-x="1097" 
d="M561 1799l28 274h267l-28 -274h-267zM514 -20c-71.333 0 -133.333 8.99805 -186 26.998s-94.667 43.333 -126 76s-56 72.334 -74 119.001c-17.333 46.667 -27.333 98 -30 154c-0.666992 16 -0.666992 32 0 48c0 42.667 2 87.334 6 134.001l61 577
c9.33301 90 25 168 47 234s53 124.333 93 175s92.333 88.834 157 114.501s141.667 38.5 231 38.5c82 0 151 -11 207 -33s98.667 -54.333 128 -97c29.333 -42 48.666 -91.667 57.999 -149c5.33301 -30.667 8 -64.334 8 -101.001c0 -31.333 -2 -64.333 -6 -99l-15 -142h-285
l15 139c5.33301 52 8 93.333 8 124c0 18.667 -1 33.667 -3 45c-10.667 54 -45.334 84.667 -104.001 92c-10 1.33301 -21 2 -33 2c-31.333 0 -58.333 -5 -81 -15s-40.667 -22.5 -54 -37.5s-24.666 -36 -33.999 -63s-16.166 -52.5 -20.499 -76.5s-8.5 -55.333 -12.5 -94
l-72 -694c-4 -36 -6 -68.333 -6 -97c0 -52 6.66699 -91.333 20 -118c20.667 -42 63.334 -63 128.001 -63c19.333 0 36.666 1.66699 51.999 5s29 9 41 17s22.333 16 31 24s16.167 19.5 22.5 34.5s11.666 28.333 15.999 40s8.33301 27.667 12 48s6.33398 37.5 8.00098 51.5
s3.83398 33.333 6.50098 58l15 144h284l-14 -135c-6.66699 -62 -16.834 -117.833 -30.501 -167.5s-33.334 -96.167 -59.001 -139.5s-56.667 -79.333 -93 -108s-81.166 -51.167 -134.499 -67.5s-114 -24.5 -182 -24.5z" />
    <glyph glyph-name="cdotaccent" unicode="&#x10b;" horiz-adv-x="893" 
d="M407 1324l28 274h267l-28 -274h-267zM407 -18c-69.333 0 -127.331 10.334 -173.998 31.001s-81.834 50.167 -105.501 88.5s-39.5 84.833 -47.5 139.5c-4 26.667 -6.33301 55 -7 85c0 31.333 2.33301 64.333 7 99l35 334c15.333 145.333 55.666 255.5 120.999 330.5
s165.333 112.5 300 112.5c126 0 213.667 -29.667 263 -89c38.667 -46.667 58 -113.667 58 -201c0 -24 -1.33301 -49.333 -4 -76l-10 -94h-255l10 98c2.66699 22 4 42 4 60c0 30.667 -4 53.667 -12 69c-12 24.667 -36 37 -72 37c-40.667 0 -69.5 -14.5 -86.5 -43.5
s-29.5 -82.833 -37.5 -161.5l-44 -425c-3.33301 -30.667 -5 -57.334 -5 -80.001c-0.666992 -36 3 -62 11 -78c12 -26.667 37.167 -40 75.5 -40s65.5 13 81.5 39s27 66 33 120l13 124h255l-11 -109c-13.333 -123.333 -51.833 -215.833 -115.5 -277.5
s-157.167 -92.5 -280.5 -92.5z" />
    <glyph glyph-name="Ccaron" unicode="&#x10c;" horiz-adv-x="1097" 
d="M558 1799l-139 365h200l87 -231l138 231h201l-218 -365h-269zM514 -20c-71.333 0 -133.333 8.99805 -186 26.998s-94.667 43.333 -126 76s-56 72.334 -74 119.001c-17.333 46.667 -27.333 98 -30 154c-0.666992 16 -0.666992 32 0 48c0 42.667 2 87.334 6 134.001l61 577
c9.33301 90 25 168 47 234s53 124.333 93 175s92.333 88.834 157 114.501s141.667 38.5 231 38.5c82 0 151 -11 207 -33s98.667 -54.333 128 -97c29.333 -42 48.666 -91.667 57.999 -149c5.33301 -30.667 8 -64.334 8 -101.001c0 -31.333 -2 -64.333 -6 -99l-15 -142h-285
l15 139c5.33301 52 8 93.333 8 124c0 18.667 -1 33.667 -3 45c-10.667 54 -45.334 84.667 -104.001 92c-10 1.33301 -21 2 -33 2c-31.333 0 -58.333 -5 -81 -15s-40.667 -22.5 -54 -37.5s-24.666 -36 -33.999 -63s-16.166 -52.5 -20.499 -76.5s-8.5 -55.333 -12.5 -94
l-72 -694c-4 -36 -6 -68.333 -6 -97c0 -52 6.66699 -91.333 20 -118c20.667 -42 63.334 -63 128.001 -63c19.333 0 36.666 1.66699 51.999 5s29 9 41 17s22.333 16 31 24s16.167 19.5 22.5 34.5s11.666 28.333 15.999 40s8.33301 27.667 12 48s6.33398 37.5 8.00098 51.5
s3.83398 33.333 6.50098 58l15 144h284l-14 -135c-6.66699 -62 -16.834 -117.833 -30.501 -167.5s-33.334 -96.167 -59.001 -139.5s-56.667 -79.333 -93 -108s-81.166 -51.167 -134.499 -67.5s-114 -24.5 -182 -24.5z" />
    <glyph glyph-name="ccaron" unicode="&#x10d;" horiz-adv-x="893" 
d="M404 1324l-139 365h200l87 -231l138 231h201l-218 -365h-269zM407 -18c-69.333 0 -127.331 10.334 -173.998 31.001s-81.834 50.167 -105.501 88.5s-39.5 84.833 -47.5 139.5c-4 26.667 -6.33301 55 -7 85c0 31.333 2.33301 64.333 7 99l35 334
c15.333 145.333 55.666 255.5 120.999 330.5s165.333 112.5 300 112.5c126 0 213.667 -29.667 263 -89c38.667 -46.667 58 -113.667 58 -201c0 -24 -1.33301 -49.333 -4 -76l-10 -94h-255l10 98c2.66699 22 4 42 4 60c0 30.667 -4 53.667 -12 69c-12 24.667 -36 37 -72 37
c-40.667 0 -69.5 -14.5 -86.5 -43.5s-29.5 -82.833 -37.5 -161.5l-44 -425c-3.33301 -30.667 -5 -57.334 -5 -80.001c-0.666992 -36 3 -62 11 -78c12 -26.667 37.167 -40 75.5 -40s65.5 13 81.5 39s27 66 33 120l13 124h255l-11 -109
c-13.333 -123.333 -51.833 -215.833 -115.5 -277.5s-157.167 -92.5 -280.5 -92.5z" />
    <glyph glyph-name="Dcaron" unicode="&#x10e;" horiz-adv-x="1126" 
d="M579 1799l-139 365h200l87 -231l138 231h201l-218 -365h-269zM392 208l89 -0.00195312c42.667 0 78.667 5.33301 108 16s52.333 23.167 69 37.5s30.5 38.833 41.5 73.5s18.5 65.334 22.5 92.001s9 68.334 15 125.001l63 596c5.33301 46 8 86.333 8 121
c0 18 -0.666992 35 -2 51c-4 44 -21.167 76 -51.5 96s-79.5 30 -147.5 30h-85zM74 -0.00195312l173.999 1658h383c99.333 0 181.333 -10 246 -30s115 -51.667 151 -95s59.333 -96.333 70 -159c6 -33.333 9 -71 9 -113c0 -36.667 -2.33301 -76.334 -7 -119.001l-63 -598
c-10 -94.667 -27.167 -175 -51.5 -241s-58.666 -122.167 -102.999 -168.5s-100.333 -80.333 -168 -102s-149.167 -32.5 -244.5 -32.5h-396z" />
    <glyph glyph-name="dcaron" unicode="&#x10f;" horiz-adv-x="1220" 
d="M1104 1105l58 553h234l-151 -553h-141zM326 -18h-3.00293c-96.667 0 -165 34.333 -205 103c-28.667 49.333 -43 120 -43 212c0 36.667 2.33301 76.667 7 120l34 330c6.66699 64.667 17.334 123 32.001 175s34.834 99.667 60.501 143s58.834 77 99.501 101
s87.667 36 141 36c74 0 140.333 -30.333 199 -91l57 547h274l-174 -1658h-274l9 80c-70.667 -65.333 -142 -98 -214 -98zM439.997 180c34 0 72 10.667 114 32l79 757c-36 24.667 -71.667 37 -107 37c-72 0 -114.667 -62 -128 -186l-44 -424c-2.66699 -33.333 -4 -64 -4 -92
v-16c0.666992 -32 8.5 -58 23.5 -78s37.167 -30 66.5 -30z" />
    <glyph glyph-name="Dcroat" unicode="&#x110;" horiz-adv-x="1133" 
d="M395 208l95 0.000976562c42.667 0 78.667 5.33301 108 16s52.333 23.167 69 37.5s30.5 38.833 41.5 73.5s18.667 65.167 23 91.5s9.5 68.166 15.5 125.499l63 596c5.33301 44.667 8 84 8 118c0 20 -1 38 -3 54c-4.66699 44 -22 76 -52 96s-79 30 -147 30h-91l-54 -515
h107l-16 -152h-107zM81 0.000976562l81.999 779h-99l16 152h99l76 727h382c194.667 0 326.334 -40 395.001 -120c53.333 -62.667 80 -157 80 -283c0 -35.333 -2 -73 -6 -113l-63 -598c-19.333 -189.333 -72 -327.333 -158 -414s-222.333 -130 -409 -130h-395z" />
    <glyph glyph-name="dcroat" unicode="&#x111;" horiz-adv-x="974" 
d="M324 -18h-2.99902c-96.667 0 -165 34.333 -205 103c-29.333 50 -44 121 -44 213c0 36 2.33301 75.667 7 119l35 330c31.333 303.333 142.333 455 333 455c72.667 0 138.667 -30.333 198 -91l29 278h-252l13 131h252l15 138h274l-15 -138h114l-13 -131h-114l-146 -1389
h-274l8 80c-70.667 -65.333 -141.334 -98 -212.001 -98zM438.001 180c34 0 71.332 10.667 111.999 32l80 757c-36 24.667 -71.667 37 -107 37c-71.333 0 -113.666 -62 -126.999 -186l-45 -424c-2.66699 -30.667 -4 -59 -4 -85c0.666992 -8 1 -15.667 1 -23
c1.33301 -32 9.33301 -58 24 -78s36.667 -30 66 -30z" />
    <glyph glyph-name="Emacron" unicode="&#x112;" 
d="M377 1799l16 147h463l-16 -147h-463zM74 0l174 1658h689l-22 -210h-393l-51 -482h312l-21 -209h-312l-59 -552h399l-22 -205h-694z" />
    <glyph glyph-name="emacron" unicode="&#x113;" horiz-adv-x="909" 
d="M313 1324l16 147h463l-16 -147h-463zM412 -18c-136 0 -229.33 37.333 -279.997 112c-38.667 57.333 -57.667 136 -57 236c0 30.667 1.66699 63.334 5 98.001l35 326c15.333 148.667 56.333 260.5 123 335.5s166.667 112.5 300 112.5
c71.333 0 130.166 -10.833 176.499 -32.5s80.166 -52.834 101.499 -93.501c22.667 -41.333 36.667 -91.333 42 -150c2 -22 3 -45.333 3 -70c0 -40 -3 -83.333 -9 -130l-16 -148h-467l-19 -174c-4 -40 -6.66699 -76.667 -8 -110v-11c0 -28.667 6.33301 -52.334 19 -71.001
c14 -21.333 37.333 -31.666 70 -30.999c39.333 0 67.666 13.5 84.999 40.5s28.333 66.5 33 118.5l10 91h261l-8 -70c-12.667 -122.667 -52.5 -216.5 -119.5 -281.5s-160.5 -97.5 -280.5 -97.5zM384.003 717l205 -0.000976562l12 113c2 20.667 3 39.334 3 56.001
c0 33.333 -4 58.666 -12 75.999c-12 26.667 -37.333 40.334 -76 41.001c-40 0 -68.667 -15 -86 -45s-30.333 -85.333 -39 -166z" />
    <glyph glyph-name="Ebreve" unicode="&#x114;" 
d="M609 1799c-102 0 -173.668 26.333 -215.001 79c-34 43.333 -51 98.666 -51 165.999c0 15.333 1 31.333 3 48h140c-1.33301 -12 -2 -23.333 -2 -34c0 -39.333 8.66699 -68.666 26 -87.999c22.667 -25.333 60.334 -38 113.001 -38c52 0 91.667 12.833 119 38.5
s44 66.167 50 121.5h141c-9.33301 -90 -40.333 -161.333 -93 -214s-129.667 -79 -231 -79zM73.999 0l174 1658h689l-22 -210h-393l-51 -482h312l-21 -209h-312l-59 -552h399l-22 -205h-694z" />
    <glyph glyph-name="ebreve" unicode="&#x115;" horiz-adv-x="909" 
d="M545 1324c-102 0 -173.668 26.333 -215.001 79c-34 43.333 -51 98.666 -51 165.999c0 15.333 1 31.333 3 48h140c-1.33301 -12 -2 -23.333 -2 -34c0 -39.333 8.66699 -68.666 26 -87.999c22.667 -25.333 60.334 -38 113.001 -38c52 0 91.667 12.833 119 38.5
s44 66.167 50 121.5h141c-9.33301 -90 -40.333 -161.333 -93 -214s-129.667 -79 -231 -79zM411.999 -18c-136 0 -229.33 37.333 -279.997 112c-38.667 57.333 -57.667 136 -57 236c0 30.667 1.66699 63.334 5 98.001l35 326c15.333 148.667 56.333 260.5 123 335.5
s166.667 112.5 300 112.5c71.333 0 130.166 -10.833 176.499 -32.5s80.166 -52.834 101.499 -93.501c22.667 -41.333 36.667 -91.333 42 -150c2 -22 3 -45.333 3 -70c0 -40 -3 -83.333 -9 -130l-16 -148h-467l-19 -174c-4 -40 -6.66699 -76.667 -8 -110v-11
c0 -28.667 6.33301 -52.334 19 -71.001c14 -21.333 37.333 -31.666 70 -30.999c39.333 0 67.666 13.5 84.999 40.5s28.333 66.5 33 118.5l10 91h261l-8 -70c-12.667 -122.667 -52.5 -216.5 -119.5 -281.5s-160.5 -97.5 -280.5 -97.5zM384.002 717l205 -0.000976562l12 113
c2 20.667 3 39.334 3 56.001c0 33.333 -4 58.666 -12 75.999c-12 26.667 -37.333 40.334 -76 41.001c-40 0 -68.667 -15 -86 -45s-30.333 -85.333 -39 -166z" />
    <glyph glyph-name="Edotaccent" unicode="&#x116;" 
d="M476 1799l28 274h267l-28 -274h-267zM74 0l174 1658h689l-22 -210h-393l-51 -482h312l-21 -209h-312l-59 -552h399l-22 -205h-694z" />
    <glyph glyph-name="edotaccent" unicode="&#x117;" horiz-adv-x="909" 
d="M411 1324l28 274h267l-28 -274h-267zM412 -18c-136 0 -229.33 37.333 -279.997 112c-38.667 57.333 -57.667 136 -57 236c0 30.667 1.66699 63.334 5 98.001l35 326c15.333 148.667 56.333 260.5 123 335.5s166.667 112.5 300 112.5
c71.333 0 130.166 -10.833 176.499 -32.5s80.166 -52.834 101.499 -93.501c22.667 -41.333 36.667 -91.333 42 -150c2 -22 3 -45.333 3 -70c0 -40 -3 -83.333 -9 -130l-16 -148h-467l-19 -174c-4 -40 -6.66699 -76.667 -8 -110v-11c0 -28.667 6.33301 -52.334 19 -71.001
c14 -21.333 37.333 -31.666 70 -30.999c39.333 0 67.666 13.5 84.999 40.5s28.333 66.5 33 118.5l10 91h261l-8 -70c-12.667 -122.667 -52.5 -216.5 -119.5 -281.5s-160.5 -97.5 -280.5 -97.5zM384.003 717l205 -0.000976562l12 113c2 20.667 3 39.334 3 56.001
c0 33.333 -4 58.666 -12 75.999c-12 26.667 -37.333 40.334 -76 41.001c-40 0 -68.667 -15 -86 -45s-30.333 -85.333 -39 -166z" />
    <glyph glyph-name="Eogonek" unicode="&#x118;" 
d="M502 -490l-45.501 0.00195312h-37.5c-22 0.666992 -47.5 2.16699 -76.5 4.5s-52.833 6 -71.5 11s-37.667 12.333 -57 22s-34 21.167 -44 34.5c-10.667 14.667 -18.667 32 -24 52c-4 14 -6 29 -6 45c0 8 0.333008 16.333 1 25c6 61.333 33.333 121.666 82 180.999
s101.334 101.666 158.001 126.999h132c-4.66699 -7.33301 -24.5 -33.333 -59.5 -78s-61.5 -83.167 -79.5 -115.5s-28.333 -63.5 -31 -93.5c-1.33301 -14 0 -26.167 4 -36.5s11 -18.333 21 -24s20.333 -10.167 31 -13.5s23.834 -5.33301 39.501 -6s29.167 -1 40.5 -1
s25.166 0.333008 41.499 1s27.833 1 34.5 1zM73.999 0.00195312l174 1658h689l-22 -210h-393l-51 -482h312l-21 -209h-312l-59 -552h399l-22 -205h-694z" />
    <glyph glyph-name="eogonek" unicode="&#x119;" horiz-adv-x="909" 
d="M509 -490l-45.501 0.00195312h-37.5c-22 0.666992 -47.5 2.16699 -76.5 4.5s-52.833 6 -71.5 11s-37.667 12.333 -57 22s-34 21.167 -44 34.5c-10.667 14.667 -18.667 32 -24 52c-4 14 -6 29 -6 45c0 8 0.333008 16.333 1 25c6 61.333 33.333 121.666 82 180.999
s101.334 101.666 158.001 126.999h132c-4.66699 -7.33301 -24.5 -33.333 -59.5 -78s-61.5 -83.167 -79.5 -115.5s-28.333 -63.5 -31 -93.5c-1.33301 -14 0 -26.167 4 -36.5s11 -18.333 21 -24s20.333 -10.167 31 -13.5s23.834 -5.33301 39.501 -6s29.167 -1 40.5 -1
s25.166 0.333008 41.499 1s27.833 1 34.5 1zM411.999 -17.998c-136 0 -229.33 37.333 -279.997 112c-38.667 57.333 -57.667 136 -57 236c0 30.667 1.66699 63.334 5 98.001l35 326c15.333 148.667 56.333 260.5 123 335.5s166.667 112.5 300 112.5
c71.333 0 130.166 -10.833 176.499 -32.5s80.166 -52.834 101.499 -93.501c22.667 -41.333 36.667 -91.333 42 -150c2 -22 3 -45.333 3 -70c0 -40 -3 -83.333 -9 -130l-16 -148h-467l-19 -174c-4 -40 -6.66699 -76.667 -8 -110v-11c0 -28.667 6.33301 -52.334 19 -71.001
c14 -21.333 37.333 -31.666 70 -30.999c39.333 0 67.666 13.5 84.999 40.5s28.333 66.5 33 118.5l10 91h261l-8 -70c-12.667 -122.667 -52.5 -216.5 -119.5 -281.5s-160.5 -97.5 -280.5 -97.5zM384.002 717.002l205 -0.000976562l12 113c2 20.667 3 39.334 3 56.001
c0 33.333 -4 58.666 -12 75.999c-12 26.667 -37.333 40.334 -76 41.001c-40 0 -68.667 -15 -86 -45s-30.333 -85.333 -39 -166z" />
    <glyph glyph-name="Ecaron" unicode="&#x11a;" 
d="M473 1799l-139 365h200l87 -231l138 231h201l-218 -365h-269zM74 0l174 1658h689l-22 -210h-393l-51 -482h312l-21 -209h-312l-59 -552h399l-22 -205h-694z" />
    <glyph glyph-name="ecaron" unicode="&#x11b;" horiz-adv-x="909" 
d="M409 1324l-139 365h200l87 -231l138 231h201l-218 -365h-269zM412 -18c-136 0 -229.33 37.333 -279.997 112c-38.667 57.333 -57.667 136 -57 236c0 30.667 1.66699 63.334 5 98.001l35 326c15.333 148.667 56.333 260.5 123 335.5s166.667 112.5 300 112.5
c71.333 0 130.166 -10.833 176.499 -32.5s80.166 -52.834 101.499 -93.501c22.667 -41.333 36.667 -91.333 42 -150c2 -22 3 -45.333 3 -70c0 -40 -3 -83.333 -9 -130l-16 -148h-467l-19 -174c-4 -40 -6.66699 -76.667 -8 -110v-11c0 -28.667 6.33301 -52.334 19 -71.001
c14 -21.333 37.333 -31.666 70 -30.999c39.333 0 67.666 13.5 84.999 40.5s28.333 66.5 33 118.5l10 91h261l-8 -70c-12.667 -122.667 -52.5 -216.5 -119.5 -281.5s-160.5 -97.5 -280.5 -97.5zM384.003 717l205 -0.000976562l12 113c2 20.667 3 39.334 3 56.001
c0 33.333 -4 58.666 -12 75.999c-12 26.667 -37.333 40.334 -76 41.001c-40 0 -68.667 -15 -86 -45s-30.333 -85.333 -39 -166z" />
    <glyph glyph-name="Gcircumflex" unicode="&#x11c;" horiz-adv-x="1136" 
d="M393 1799l222 370h251l148 -370h-204l-82 240l-132 -240h-203zM484 -22c-79.333 0 -146.333 12.998 -201 38.998s-96.334 63.667 -125.001 113c-28 50.667 -46.667 111.334 -56 182.001c-4.66699 33.333 -7 68.333 -7 105c0 42.667 3 88 9 136l57 539
c8 76.667 19.667 144.334 35 203.001s36.5 112.5 63.5 161.5s60 89.333 99 121s86.167 56.167 141.5 73.5s119 26 191 26c163.333 -0.666992 276.333 -41 339 -121c49.333 -62.667 74 -151 74 -265c0 -31.333 -2 -65 -6 -101l-9 -78h-282l8 81
c4.66699 42.667 7 80.334 7 113.001c0 10.667 -0.333008 21 -1 31c-2 39.333 -14.667 69.333 -38 90s-60 31 -110 31c-27.333 0 -51.5 -3.33301 -72.5 -10s-38.5 -17.5 -52.5 -32.5s-25.667 -30.333 -35 -46s-17.166 -36.5 -23.499 -62.5s-11 -49.333 -14 -70
s-6.16699 -47.334 -9.5 -80.001l-69 -660c-4 -35.333 -6 -67.333 -6 -96c0.666992 -54.667 7.66699 -97.667 21 -129c20 -47.333 65.333 -71 136 -71c71.333 0 123.333 25.833 156 77.5s54.667 131.167 66 238.5l14 131h-182l20 192h449l-89 -840h-191l-4 171
c-64 -128.667 -165 -193 -303 -193z" />
    <glyph glyph-name="gcircumflex" unicode="&#x11d;" horiz-adv-x="943" 
d="M288 1349l222 370h251l148 -370h-204l-82 240l-132 -240h-203zM425 -359c-35.333 0 -66.166 0.332031 -92.499 0.999023s-56.666 2.5 -90.999 5.5s-63.5 7.16699 -87.5 12.5s-48.5 12.833 -73.5 22.5s-45 21.334 -60 35.001s-26.5 30.834 -34.5 51.501
c-6 15.333 -9 32.333 -9 51c0 6 0.333008 12.333 1 19c11.333 102.667 75.666 186.667 192.999 252c-74 26.667 -111 69.667 -111 129c0 44 13 82.333 39 115c24.667 30.667 64.334 66.667 119.001 108c-40.667 33.333 -69.334 75.333 -86.001 126
c-10.667 32.667 -16 72.334 -16 119.001c0 26 1.66699 54.333 5 85c30 286 166 429 408 429c123.333 0 203.333 -39 240 -117c16 17.333 40.167 38.333 72.5 63s65.833 45 100.5 61l41 18l48 -156c-24 -6 -60.833 -18 -110.5 -36s-82.5 -31.667 -98.5 -41
c9.33301 -23.333 16.333 -56.333 21 -99c2.66699 -22.667 4 -45.334 4 -68.001c0 -19.333 -1 -38.666 -3 -57.999c-29.333 -271.333 -160.666 -407 -393.999 -407c-18.667 0 -44.334 2.66699 -77.001 8s-53.334 10 -62.001 14c-26 -33.333 -39.333 -59 -40 -77
c-0.666992 -14.667 6.83301 -26 22.5 -34s41.167 -13.667 76.5 -17c5.33301 -0.666992 38.5 -4 99.5 -10s97.5 -10 109.5 -12c96.667 -10.667 165.667 -39.334 207 -86.001c33.333 -38 50.333 -89.667 51 -155c0 -14.667 -1 -30.334 -3 -47.001
c-12 -105.333 -49.5 -182.5 -112.5 -231.5s-161.833 -73.5 -296.5 -73.5zM444 -164.001c57.333 0 99.667 7.49902 127 22.499s43.666 39.167 48.999 72.5c1.33301 8 2 15.333 2 22c0 24 -7.33301 42.667 -22 56c-18.667 16.667 -54 27.334 -106 32.001l-187 17
c-47.333 -49.333 -72.666 -93.333 -75.999 -132c-0.666992 -4 -1 -8 -1 -12c0 -16.667 3.66699 -29.667 11 -39c8.66699 -12 29.167 -21.5 61.5 -28.5s79.5 -10.5 141.5 -10.5zM462.001 541.998c47.333 0 80.001 17.3311 98.001 51.998s32 96.334 42 185.001
c5.33301 50 8 92 8 126v11c-0.666992 36 -8.33398 63 -23.001 81s-38.667 27 -72 27c-48 0 -81 -18 -99 -54s-31.667 -99.667 -41 -191c-4.66699 -41.333 -7 -77.666 -7 -108.999v-18c1.33301 -34.667 9.5 -61.667 24.5 -81s38.167 -29 69.5 -29z" />
    <glyph glyph-name="Gbreve" unicode="&#x11e;" horiz-adv-x="1136" 
d="M704 1799c-102 0 -173.668 26.333 -215.001 79c-34 43.333 -51 98.666 -51 165.999c0 15.333 1 31.333 3 48h140c-1.33301 -12 -2 -23.333 -2 -34c0 -39.333 8.66699 -68.666 26 -87.999c22.667 -25.333 60.334 -38 113.001 -38c52 0 91.667 12.833 119 38.5
s44 66.167 50 121.5h141c-9.33301 -90 -40.333 -161.333 -93 -214s-129.667 -79 -231 -79zM483.999 -22c-79.333 0 -146.333 12.998 -201 38.998s-96.334 63.667 -125.001 113c-28 50.667 -46.667 111.334 -56 182.001c-4.66699 33.333 -7 68.333 -7 105
c0 42.667 3 88 9 136l57 539c8 76.667 19.667 144.334 35 203.001s36.5 112.5 63.5 161.5s60 89.333 99 121s86.167 56.167 141.5 73.5s119 26 191 26c163.333 -0.666992 276.333 -41 339 -121c49.333 -62.667 74 -151 74 -265c0 -31.333 -2 -65 -6 -101l-9 -78h-282l8 81
c4.66699 42.667 7 80.334 7 113.001c0 10.667 -0.333008 21 -1 31c-2 39.333 -14.667 69.333 -38 90s-60 31 -110 31c-27.333 0 -51.5 -3.33301 -72.5 -10s-38.5 -17.5 -52.5 -32.5s-25.667 -30.333 -35 -46s-17.166 -36.5 -23.499 -62.5s-11 -49.333 -14 -70
s-6.16699 -47.334 -9.5 -80.001l-69 -660c-4 -35.333 -6 -67.333 -6 -96c0.666992 -54.667 7.66699 -97.667 21 -129c20 -47.333 65.333 -71 136 -71c71.333 0 123.333 25.833 156 77.5s54.667 131.167 66 238.5l14 131h-182l20 192h449l-89 -840h-191l-4 171
c-64 -128.667 -165 -193 -303 -193z" />
    <glyph glyph-name="gbreve" unicode="&#x11f;" horiz-adv-x="943" 
d="M599 1349c-102 0 -173.668 26.333 -215.001 79c-34 43.333 -51 98.666 -51 165.999c0 15.333 1 31.333 3 48h140c-1.33301 -12 -2 -23.333 -2 -34c0 -39.333 8.66699 -68.666 26 -87.999c22.667 -25.333 60.334 -38 113.001 -38c52 0 91.667 12.833 119 38.5
s44 66.167 50 121.5h141c-9.33301 -90 -40.333 -161.333 -93 -214s-129.667 -79 -231 -79zM424.999 -359c-35.333 0 -66.166 0.332031 -92.499 0.999023s-56.666 2.5 -90.999 5.5s-63.5 7.16699 -87.5 12.5s-48.5 12.833 -73.5 22.5s-45 21.334 -60 35.001
s-26.5 30.834 -34.5 51.501c-6 15.333 -9 32.333 -9 51c0 6 0.333008 12.333 1 19c11.333 102.667 75.666 186.667 192.999 252c-74 26.667 -111 69.667 -111 129c0 44 13 82.333 39 115c24.667 30.667 64.334 66.667 119.001 108
c-40.667 33.333 -69.334 75.333 -86.001 126c-10.667 32.667 -16 72.334 -16 119.001c0 26 1.66699 54.333 5 85c30 286 166 429 408 429c123.333 0 203.333 -39 240 -117c16 17.333 40.167 38.333 72.5 63s65.833 45 100.5 61l41 18l48 -156c-24 -6 -60.833 -18 -110.5 -36
s-82.5 -31.667 -98.5 -41c9.33301 -23.333 16.333 -56.333 21 -99c2.66699 -22.667 4 -45.334 4 -68.001c0 -19.333 -1 -38.666 -3 -57.999c-29.333 -271.333 -160.666 -407 -393.999 -407c-18.667 0 -44.334 2.66699 -77.001 8s-53.334 10 -62.001 14
c-26 -33.333 -39.333 -59 -40 -77c-0.666992 -14.667 6.83301 -26 22.5 -34s41.167 -13.667 76.5 -17c5.33301 -0.666992 38.5 -4 99.5 -10s97.5 -10 109.5 -12c96.667 -10.667 165.667 -39.334 207 -86.001c33.333 -38 50.333 -89.667 51 -155
c0 -14.667 -1 -30.334 -3 -47.001c-12 -105.333 -49.5 -182.5 -112.5 -231.5s-161.833 -73.5 -296.5 -73.5zM443.999 -164.001c57.333 0 99.667 7.49902 127 22.499s43.666 39.167 48.999 72.5c1.33301 8 2 15.333 2 22c0 24 -7.33301 42.667 -22 56
c-18.667 16.667 -54 27.334 -106 32.001l-187 17c-47.333 -49.333 -72.666 -93.333 -75.999 -132c-0.666992 -4 -1 -8 -1 -12c0 -16.667 3.66699 -29.667 11 -39c8.66699 -12 29.167 -21.5 61.5 -28.5s79.5 -10.5 141.5 -10.5zM462 541.998
c47.333 0 80.001 17.3311 98.001 51.998s32 96.334 42 185.001c5.33301 50 8 92 8 126v11c-0.666992 36 -8.33398 63 -23.001 81s-38.667 27 -72 27c-48 0 -81 -18 -99 -54s-31.667 -99.667 -41 -191c-4.66699 -41.333 -7 -77.666 -7 -108.999v-18
c1.33301 -34.667 9.5 -61.667 24.5 -81s38.167 -29 69.5 -29z" />
    <glyph glyph-name="Gdotaccent" unicode="&#x120;" horiz-adv-x="1136" 
d="M570 1799l28 274h267l-28 -274h-267zM484 -22c-79.333 0 -146.333 12.998 -201 38.998s-96.334 63.667 -125.001 113c-28 50.667 -46.667 111.334 -56 182.001c-4.66699 33.333 -7 68.333 -7 105c0 42.667 3 88 9 136l57 539c8 76.667 19.667 144.334 35 203.001
s36.5 112.5 63.5 161.5s60 89.333 99 121s86.167 56.167 141.5 73.5s119 26 191 26c163.333 -0.666992 276.333 -41 339 -121c49.333 -62.667 74 -151 74 -265c0 -31.333 -2 -65 -6 -101l-9 -78h-282l8 81c4.66699 42.667 7 80.334 7 113.001c0 10.667 -0.333008 21 -1 31
c-2 39.333 -14.667 69.333 -38 90s-60 31 -110 31c-27.333 0 -51.5 -3.33301 -72.5 -10s-38.5 -17.5 -52.5 -32.5s-25.667 -30.333 -35 -46s-17.166 -36.5 -23.499 -62.5s-11 -49.333 -14 -70s-6.16699 -47.334 -9.5 -80.001l-69 -660c-4 -35.333 -6 -67.333 -6 -96
c0.666992 -54.667 7.66699 -97.667 21 -129c20 -47.333 65.333 -71 136 -71c71.333 0 123.333 25.833 156 77.5s54.667 131.167 66 238.5l14 131h-182l20 192h449l-89 -840h-191l-4 171c-64 -128.667 -165 -193 -303 -193z" />
    <glyph glyph-name="gdotaccent" unicode="&#x121;" horiz-adv-x="943" 
d="M465 1349l28 274h267l-28 -274h-267zM425 -359c-35.333 0 -66.166 0.332031 -92.499 0.999023s-56.666 2.5 -90.999 5.5s-63.5 7.16699 -87.5 12.5s-48.5 12.833 -73.5 22.5s-45 21.334 -60 35.001s-26.5 30.834 -34.5 51.501c-6 15.333 -9 32.333 -9 51
c0 6 0.333008 12.333 1 19c11.333 102.667 75.666 186.667 192.999 252c-74 26.667 -111 69.667 -111 129c0 44 13 82.333 39 115c24.667 30.667 64.334 66.667 119.001 108c-40.667 33.333 -69.334 75.333 -86.001 126c-10.667 32.667 -16 72.334 -16 119.001
c0 26 1.66699 54.333 5 85c30 286 166 429 408 429c123.333 0 203.333 -39 240 -117c16 17.333 40.167 38.333 72.5 63s65.833 45 100.5 61l41 18l48 -156c-24 -6 -60.833 -18 -110.5 -36s-82.5 -31.667 -98.5 -41c9.33301 -23.333 16.333 -56.333 21 -99
c2.66699 -22.667 4 -45.334 4 -68.001c0 -19.333 -1 -38.666 -3 -57.999c-29.333 -271.333 -160.666 -407 -393.999 -407c-18.667 0 -44.334 2.66699 -77.001 8s-53.334 10 -62.001 14c-26 -33.333 -39.333 -59 -40 -77c-0.666992 -14.667 6.83301 -26 22.5 -34
s41.167 -13.667 76.5 -17c5.33301 -0.666992 38.5 -4 99.5 -10s97.5 -10 109.5 -12c96.667 -10.667 165.667 -39.334 207 -86.001c33.333 -38 50.333 -89.667 51 -155c0 -14.667 -1 -30.334 -3 -47.001c-12 -105.333 -49.5 -182.5 -112.5 -231.5
s-161.833 -73.5 -296.5 -73.5zM444 -164.001c57.333 0 99.667 7.49902 127 22.499s43.666 39.167 48.999 72.5c1.33301 8 2 15.333 2 22c0 24 -7.33301 42.667 -22 56c-18.667 16.667 -54 27.334 -106 32.001l-187 17c-47.333 -49.333 -72.666 -93.333 -75.999 -132
c-0.666992 -4 -1 -8 -1 -12c0 -16.667 3.66699 -29.667 11 -39c8.66699 -12 29.167 -21.5 61.5 -28.5s79.5 -10.5 141.5 -10.5zM462.001 541.998c47.333 0 80.001 17.3311 98.001 51.998s32 96.334 42 185.001c5.33301 50 8 92 8 126v11
c-0.666992 36 -8.33398 63 -23.001 81s-38.667 27 -72 27c-48 0 -81 -18 -99 -54s-31.667 -99.667 -41 -191c-4.66699 -41.333 -7 -77.666 -7 -108.999v-18c1.33301 -34.667 9.5 -61.667 24.5 -81s38.167 -29 69.5 -29z" />
    <glyph glyph-name="Gcommaaccent" unicode="&#x122;" horiz-adv-x="1136" 
d="M370 -663l-34.998 116.997c43.333 2.66699 76.666 14.334 99.999 35.001s37.333 54.334 42 101.001h-139l28 266h267l-26 -242c-10 -91.333 -32.833 -160.166 -68.5 -206.499s-91.834 -69.833 -168.501 -70.5zM484.002 -22.0029c-79.333 0 -146.333 12.998 -201 38.998
s-96.334 63.667 -125.001 113c-28 50.667 -46.667 111.334 -56 182.001c-4.66699 33.333 -7 68.333 -7 105c0 42.667 3 88 9 136l57 539c8 76.667 19.667 144.334 35 203.001s36.5 112.5 63.5 161.5s60 89.333 99 121s86.167 56.167 141.5 73.5s119 26 191 26
c163.333 -0.666992 276.333 -41 339 -121c49.333 -62.667 74 -151 74 -265c0 -31.333 -2 -65 -6 -101l-9 -78h-282l8 81c4.66699 42.667 7 80.334 7 113.001c0 10.667 -0.333008 21 -1 31c-2 39.333 -14.667 69.333 -38 90s-60 31 -110 31
c-27.333 0 -51.5 -3.33301 -72.5 -10s-38.5 -17.5 -52.5 -32.5s-25.667 -30.333 -35 -46s-17.166 -36.5 -23.499 -62.5s-11 -49.333 -14 -70s-6.16699 -47.334 -9.5 -80.001l-69 -660c-4 -35.333 -6 -67.333 -6 -96c0.666992 -54.667 7.66699 -97.667 21 -129
c20 -47.333 65.333 -71 136 -71c71.333 0 123.333 25.833 156 77.5s54.667 131.167 66 238.5l14 131h-182l20 192h449l-89 -840h-191l-4 171c-64 -128.667 -165 -193 -303 -193z" />
    <glyph glyph-name="gcommaaccent" unicode="&#x123;" horiz-adv-x="901" 
d="M410 -375c-56.667 0 -109.669 3.49707 -159.002 10.4971s-97 18.5 -143 34.5c-45.333 16 -80.666 40 -105.999 72c-21.333 27.333 -32 59.333 -32 96c0 6.66699 0.333008 13.667 1 21c8.66699 78.667 81 159.667 217 243c-96 36 -145.333 73.333 -148 112v7
c0 69.333 59.333 152.333 178 249c-73.333 55.333 -110 138.333 -110 249c0 18.667 1 38.334 3 59.001c14 130.667 60.333 234.5 139 311.5s181.334 115.5 308.001 115.5c60.667 0 113.5 -11.167 158.5 -33.5s79.833 -51.5 104.5 -87.5c56.667 66 115 112.667 175 140l42 19
l49 -128c-25.333 -7.33301 -57.666 -21.833 -96.999 -43.5s-75.333 -44.5 -108 -68.5c24.667 -47.333 37 -103 37 -167c0 -18 -1 -36.333 -3 -55c-12.667 -125.333 -55 -224.666 -127 -297.999s-170.667 -110 -296 -110c-68.667 0 -130.334 12 -185.001 36
c-47.333 -58 -74.666 -97.667 -81.999 -119c-2.66699 -6.66699 -4 -12.667 -4 -18c0.666992 -13.333 35.334 -26.666 104.001 -39.999c20.667 -4.66699 103.667 -19.667 249 -45c115.333 -22 195.666 -53.667 240.999 -95c38 -35.333 57 -83 57 -143
c0 -10.667 -0.666992 -22 -2 -34c-9.33301 -88.667 -52.833 -159.167 -130.5 -211.5s-187.834 -78.5 -330.501 -78.5zM523.998 1488l23 217c10 92.667 35.667 164.167 77 214.5s100.333 81.5 177 93.5l6 -78c-87.333 -38 -135.333 -99.333 -144 -184h144l-27 -263h-256z
M425.998 -217.003c143.333 0 221.001 36.3311 233.001 108.998c2 10 3 19.667 3 29c0 26 -8.66699 46.667 -26 62c-22.667 20.667 -70.334 38.334 -143.001 53.001l-146 25c-17.333 -14 -30.666 -25.167 -39.999 -33.5s-21.5 -20.166 -36.5 -35.499
s-26.333 -30.833 -34 -46.5s-12.167 -31.5 -13.5 -47.5c-0.666992 -4.66699 -1 -9 -1 -13c0 -31.333 15.667 -55.666 47 -72.999c35.333 -18.667 87.666 -28.334 156.999 -29.001zM493.999 526.995c24.667 0 46.4971 4.99512 65.4971 14.9951s34.333 22.833 46 38.5
s21.667 35.834 30 60.501s14.5 48.334 18.5 71.001s7.66699 49.334 11 80.001c3.33301 26.667 5 52.334 5 77.001v21c-1.33301 30.667 -5.16602 57.834 -11.499 81.501s-19 42.667 -38 57s-43.833 21.5 -74.5 21.5c-24 0 -45.5 -5.5 -64.5 -16.5s-34.167 -24.667 -45.5 -41
s-21.166 -36.666 -29.499 -60.999s-14.5 -47 -18.5 -68s-7.33301 -44.833 -10 -71.5c-4 -26.667 -6 -53 -6 -79v-17c1.33301 -32 5 -60.333 11 -85s18.333 -44.834 37 -60.501s43.334 -23.5 74.001 -23.5z" />
    <glyph glyph-name="Hcircumflex" unicode="&#x124;" horiz-adv-x="1185" 
d="M420 1799l222 370h251l148 -370h-204l-82 240l-132 -240h-203zM74 0l174 1658h296l-73 -695h346l73 695h295l-174 -1658h-295l79 752h-346l-79 -752h-296z" />
    <glyph glyph-name="hcircumflex" unicode="&#x125;" horiz-adv-x="973" 
d="M319 1780l222 370h251l148 -370h-204l-82 240l-132 -240h-203zM62 0l174.001 1658h274l-61 -590c104 89.333 207 134 309 134c46 0 82.5 -13 109.5 -39s44.167 -57 51.5 -93c4 -21.333 6 -44 6 -68c0 -17.333 -1 -35.333 -3 -54l-99 -948h-274l92 885
c1.33301 12.667 2 24.334 2 35.001c-0.666992 20 -3.66699 36 -9 48c-9.33301 18.667 -29.333 28 -60 28c-36.667 -0.666992 -83.334 -20.667 -140.001 -60l-98 -936h-274z" />
    <glyph glyph-name="Hbar" unicode="&#x126;" horiz-adv-x="1137" 
d="M58 0l132 1259h-102l13 124h102l29 275h295l-29 -275h340l28 275h296l-29 -275h93l-13 -124h-93l-132 -1259h-296l80 752h-340l-79 -752h-295zM455 963h339l30 296h-339z" />
    <glyph glyph-name="hbar" unicode="&#x127;" horiz-adv-x="974" 
d="M63 0l145.995 1397h-115l14 140h116l13 121h274l-13 -121h247l-15 -140h-247l-34 -329c104 89.333 207 134 309 134c34.667 0 64.334 -7.33301 89.001 -22s42.334 -34 53.001 -58s18.334 -51.333 23.001 -82c2.66699 -15.333 3.83398 -30.666 3.50098 -45.999
s-1.5 -30.666 -3.5 -45.999l-100 -948h-274l93 885c1.33301 11.333 2 22 2 32c0 22 -3.33301 39 -10 51c-9.33301 18.667 -29.333 28 -60 28c-37.333 -0.666992 -83.666 -20.667 -138.999 -60l-98 -936h-274z" />
    <glyph glyph-name="Itilde" unicode="&#x128;" horiz-adv-x="557" 
d="M578 1799l-3 0.00292969c-28.667 0 -60.334 8 -95.001 24c-36 16 -70.167 32.5 -102.5 49.5s-57.5 25.5 -75.5 25.5c-34 0 -53.667 -27.667 -59 -83h-144c8 80 27.667 142 59 186s79.666 67 144.999 69h7c29.333 0.666992 61 -6.33301 95 -21
c36.667 -16 69.834 -32.333 99.501 -49s51.167 -25.334 64.5 -26.001c17.333 -0.666992 30.333 5.33301 39 18s14.334 33.667 17.001 63h139c-4 -36.667 -9.66699 -69.167 -17 -97.5s-18 -54.833 -32 -79.5s-32.5 -43.834 -55.5 -57.501s-50.167 -20.834 -81.5 -21.501z
M84 0.00292969l174 1658h291l-174 -1658h-291z" />
    <glyph glyph-name="itilde" unicode="&#x129;" horiz-adv-x="512" 
d="M509 1324l-3 0.00292969c-28.667 0 -60.334 8 -95.001 24c-36 16 -70.167 32.5 -102.5 49.5s-57.5 25.5 -75.5 25.5c-34 0 -53.667 -27.667 -59 -83h-144c8 80 27.667 142 59 186s79.666 67 144.999 69h7c29.333 0.666992 61 -6.33301 95 -21
c36.667 -16 69.834 -32.333 99.501 -49s51.167 -25.334 64.5 -26.001c17.333 -0.666992 30.333 5.33301 39 18s14.334 33.667 17.001 63h139c-4 -36.667 -9.66699 -69.167 -17 -97.5s-18 -54.833 -32 -79.5s-32.5 -43.834 -55.5 -57.501s-50.167 -20.834 -81.5 -21.501z
M73 0.00292969l124 1184h274l-124 -1184h-274z" />
    <glyph glyph-name="Imacron" unicode="&#x12a;" horiz-adv-x="557" 
d="M186 1799l16 147h463l-16 -147h-463zM84 0l174 1658h291l-174 -1658h-291z" />
    <glyph glyph-name="imacron" unicode="&#x12b;" horiz-adv-x="512" 
d="M116 1324l16 147h463l-16 -147h-463zM73 0l124 1184h274l-124 -1184h-274z" />
    <glyph glyph-name="Ibreve" unicode="&#x12c;" horiz-adv-x="557" 
d="M418 1799c-102 0 -173.668 26.333 -215.001 79c-34 43.333 -51 98.666 -51 165.999c0 15.333 1 31.333 3 48h140c-1.33301 -12 -2 -23.333 -2 -34c0 -39.333 8.66699 -68.666 26 -87.999c22.667 -25.333 60.334 -38 113.001 -38c52 0 91.667 12.833 119 38.5
s44 66.167 50 121.5h141c-9.33301 -90 -40.333 -161.333 -93 -214s-129.667 -79 -231 -79zM83.999 0l174 1658h291l-174 -1658h-291z" />
    <glyph glyph-name="ibreve" unicode="&#x12d;" horiz-adv-x="512" 
d="M348 1324c-102 0 -173.668 26.333 -215.001 79c-34 43.333 -51 98.666 -51 165.999c0 15.333 1 31.333 3 48h140c-1.33301 -12 -2 -23.333 -2 -34c0 -39.333 8.66699 -68.666 26 -87.999c22.667 -25.333 60.334 -38 113.001 -38c52 0 91.667 12.833 119 38.5
s44 66.167 50 121.5h141c-9.33301 -90 -40.333 -161.333 -93 -214s-129.667 -79 -231 -79zM72.999 0l124 1184h274l-124 -1184h-274z" />
    <glyph glyph-name="Iogonek" unicode="&#x12e;" horiz-adv-x="557" 
d="M211 -490l-45.501 0.00195312h-37.5c-22 0.666992 -47.5 2.16699 -76.5 4.5s-52.833 6 -71.5 11s-37.667 12.333 -57 22s-34 21.167 -44 34.5c-10.667 14.667 -18.667 32 -24 52c-4 14 -6 29 -6 45c0 8 0.333008 16.333 1 25c6 61.333 33.333 121.666 82 180.999
s101.334 101.666 158.001 126.999h132c-4.66699 -7.33301 -24.5 -33.333 -59.5 -78s-61.5 -83.167 -79.5 -115.5s-28.333 -63.5 -31 -93.5c-1.33301 -14 0 -26.167 4 -36.5s11 -18.333 21 -24s20.333 -10.167 31 -13.5s23.834 -5.33301 39.501 -6s29.167 -1 40.5 -1
s25.166 0.333008 41.499 1s27.833 1 34.5 1zM83.999 0.00195312l174 1658h291l-174 -1658h-291z" />
    <glyph glyph-name="iogonek" unicode="&#x12f;" horiz-adv-x="505" 
d="M187 -490l-45.501 0.00195312h-37.5c-22 0.666992 -47.5 2.16699 -76.5 4.5s-52.833 6 -71.5 11s-37.667 12.333 -57 22s-34 21.167 -44 34.5c-10.667 14.667 -18.667 32 -24 52c-4 14 -6 29 -6 45c0 8 0.333008 16.333 1 25c6 61.333 33.333 121.666 82 180.999
s101.334 101.666 158.001 126.999h132c-4.66699 -7.33301 -24.5 -33.333 -59.5 -78s-61.5 -83.167 -79.5 -115.5s-28.333 -63.5 -31 -93.5c-1.33301 -14 0 -26.167 4 -36.5s11 -18.333 21 -24s20.333 -10.167 31 -13.5s23.834 -5.33301 39.501 -6s29.167 -1 40.5 -1
s25.166 0.333008 41.499 1s27.833 1 34.5 1zM66.999 0.00195312l124 1184h274l-124 -1184h-274zM210.999 1370l25 236h275l-25 -236h-275z" />
    <glyph glyph-name="Idotaccent" unicode="&#x130;" horiz-adv-x="557" 
d="M284 1799l28 274h267l-28 -274h-267zM84 0l174 1658h291l-174 -1658h-291z" />
    <glyph glyph-name="dotlessi" unicode="&#x131;" horiz-adv-x="512" 
d="M73 0l124 1184h274l-124 -1184h-274z" />
    <glyph glyph-name="ij" unicode="&#x133;" horiz-adv-x="1018" 
d="M392 -304l19.999 196.999c18.667 -4.66699 38.334 -7 59.001 -7c71.333 0 111.333 40.667 120 122l123 1176h274l-126 -1207c-10 -93.333 -44 -166.666 -102 -219.999s-134 -80 -228 -80c-56 0 -102.667 6.33301 -140 19zM732.999 1370l25 236h277l-25 -236h-277z
M66.999 -0.000976562l124 1184h274l-124 -1184h-274zM210.999 1370l25 236h275l-25 -236h-275z" />
    <glyph glyph-name="Jcircumflex" unicode="&#x134;" horiz-adv-x="662" 
d="M167 1863l222 370h251l148 -370h-204l-82 240l-132 -240h-203zM-35 -35l21 209.002h6c86 0 145 13.333 177 40c32.667 28 53.667 85.667 63 173l133 1271h295l-134 -1279c-8.66699 -72.667 -21.5 -133.834 -38.5 -183.501s-41.5 -92.334 -73.5 -128.001
s-73.167 -61.667 -123.5 -78s-111.833 -24.5 -184.5 -24.5h-141z" />
    <glyph glyph-name="jcircumflex" unicode="&#x135;" horiz-adv-x="508" 
d="M44 1363l222 370h251l148 -370h-204l-82 240l-132 -240h-203zM-117 -325l21.001 196c23.333 -4.66699 42.666 -7 57.999 -7c72 0 112 41 120 123l126 1197h274l-129 -1228c-10 -93.333 -44 -166.833 -102 -220.5s-134 -80.5 -228 -80.5c-57.333 0 -104 6.66699 -140 20z
" />
    <glyph glyph-name="Kcommaaccent" unicode="&#x136;" horiz-adv-x="1077" 
d="M402 -641l-34.998 116.997c43.333 2.66699 76.666 14.334 99.999 35.001s37.333 54.334 42 101.001h-139l28 266h267l-26 -242c-10 -91.333 -32.833 -160.166 -68.5 -206.499s-91.834 -69.833 -168.501 -70.5zM74.002 -0.00292969l174 1658h296l-76 -725l407 725h281
l-396 -741l257 -917h-294l-209 784l-73 -113l-71 -671h-296z" />
    <glyph glyph-name="kcommaaccent" unicode="&#x137;" horiz-adv-x="975" 
d="M351 -641l-34.998 116.997c43.333 2.66699 76.666 14.334 99.999 35.001s37.333 54.334 42 101.001h-139l28 266h267l-26 -242c-10 -91.333 -32.833 -160.166 -68.5 -206.499s-91.834 -69.833 -168.501 -70.5zM61.002 1.99707l174 1658h273l-100 -952l346 475l296 1
l-338 -473l209 -711h-286l-149 584l-105 -130l-47 -452h-273z" />
    <glyph glyph-name="kgreenlandic" unicode="&#x138;" horiz-adv-x="945" 
d="M62 0l124 1184h274l-52 -499l322 499h284l-306 -479l184 -705h-281l-127 562l-102 -133l-46 -429h-274z" />
    <glyph glyph-name="Lacute" unicode="&#x139;" horiz-adv-x="851" 
d="M532 1799l164 409h277l-287 -409h-154zM74 0l174 1658h296l-153 -1453h399l-22 -205h-694z" />
    <glyph glyph-name="lacute" unicode="&#x13a;" horiz-adv-x="514" 
d="M322 1780l164 409h277l-287 -409h-154zM75 0l174 1658h275l-174 -1658h-275z" />
    <glyph glyph-name="Lcommaaccent" unicode="&#x13b;" horiz-adv-x="851" 
d="M278 -641l-34.998 116.997c43.333 2.66699 76.666 14.334 99.999 35.001s37.333 54.334 42 101.001h-139l28 266h267l-26 -242c-10 -91.333 -32.833 -160.166 -68.5 -206.499s-91.834 -69.833 -168.501 -70.5zM74.002 -0.00292969l174 1658h296l-153 -1453h399l-22 -205
h-694z" />
    <glyph glyph-name="lcommaaccent" unicode="&#x13c;" horiz-adv-x="514" 
d="M70 -641l-34.998 116.997c43.333 2.66699 76.666 14.334 99.999 35.001s37.333 54.334 42 101.001h-139l28 266h267l-26 -242c-10 -91.333 -32.833 -160.166 -68.5 -206.499s-91.834 -69.833 -168.501 -70.5zM75.002 -0.00292969l174 1658h275l-174 -1658h-275z" />
    <glyph glyph-name="Lcaron" unicode="&#x13d;" horiz-adv-x="1015" 
d="M723 1124l58 553h234l-151 -553h-141zM74 0l174 1658h296l-153 -1453h399l-22 -205h-694z" />
    <glyph glyph-name="lcaron" unicode="&#x13e;" horiz-adv-x="766" 
d="M649 1105l58 553h234l-151 -553h-141zM75 0l174 1658h275l-174 -1658h-275z" />
    <glyph glyph-name="Ldot" unicode="&#x13f;" horiz-adv-x="964" 
d="M670 706l27 265h267l-27 -265h-267zM89 0l174 1658h296l-153 -1453h399l-22 -205h-694z" />
    <glyph glyph-name="ldot" unicode="&#x140;" horiz-adv-x="908" 
d="M596 638l27 265h267l-27 -265h-267zM75 0l174 1658h275l-174 -1658h-275z" />
    <glyph glyph-name="Lslash" unicode="&#x141;" horiz-adv-x="860" 
d="M80 0l79 751l-141 -71l20 195l142 72l74 711h296l-59 -559l218 110l-20 -196l-218 -110l-73 -698h398l-21 -205h-695z" />
    <glyph glyph-name="lslash" unicode="&#x142;" horiz-adv-x="603" 
d="M122 0l89 840l-146 -64l19 186l146 62l66 634h274l-53 -511l144 61l-19 -184l-145 -62l-101 -962h-274z" />
    <glyph glyph-name="Nacute" unicode="&#x143;" horiz-adv-x="1109" 
d="M615 1799l164 409h277l-287 -409h-154zM74 0l174 1658h203l312 -954l100 954h245l-174 -1658h-192l-312 1000l-105 -1000h-251z" />
    <glyph glyph-name="nacute" unicode="&#x144;" horiz-adv-x="963" 
d="M497 1324l164 409h277l-287 -409h-154zM58 0l123.999 1184h274l-12 -116c105.333 89.333 206.333 134 303 134c34.667 0 64.334 -7.33301 89.001 -22s42.5 -34 53.5 -58s18.833 -51.333 23.5 -82c2 -14 3 -28.333 3 -43c0 -16.667 -1.33301 -33 -4 -49l-99 -948h-274
l92 885c1.33301 12 2 23 2 33c0 21.333 -3 38 -9 50c-8.66699 18.667 -28.667 28 -60 28c-36.667 -0.666992 -81 -19.334 -133 -56.001l-99 -940h-274z" />
    <glyph glyph-name="Ncommaaccent" unicode="&#x145;" horiz-adv-x="1109" 
d="M361 -641l-34.998 116.997c43.333 2.66699 76.666 14.334 99.999 35.001s37.333 54.334 42 101.001h-139l28 266h267l-26 -242c-10 -91.333 -32.833 -160.166 -68.5 -206.499s-91.834 -69.833 -168.501 -70.5zM74.002 -0.00292969l174 1658h203l312 -954l100 954h245
l-174 -1658h-192l-312 1000l-105 -1000h-251z" />
    <glyph glyph-name="ncommaaccent" unicode="&#x146;" horiz-adv-x="963" 
d="M293 -641l-34.998 116.997c43.333 2.66699 76.666 14.334 99.999 35.001s37.333 54.334 42 101.001h-139l28 266h267l-26 -242c-10 -91.333 -32.833 -160.166 -68.5 -206.499s-91.834 -69.833 -168.501 -70.5zM58.002 -0.00292969l123.999 1184h274l-12 -116
c105.333 89.333 206.333 134 303 134c34.667 0 64.334 -7.33301 89.001 -22s42.5 -34 53.5 -58s18.833 -51.333 23.5 -82c2 -14 3 -28.333 3 -43c0 -16.667 -1.33301 -33 -4 -49l-99 -948h-274l92 885c1.33301 12 2 23 2 33c0 21.333 -3 38 -9 50
c-8.66699 18.667 -28.667 28 -60 28c-36.667 -0.666992 -81 -19.334 -133 -56.001l-99 -940h-274z" />
    <glyph glyph-name="Ncaron" unicode="&#x147;" horiz-adv-x="1109" 
d="M556 1799l-139 365h200l87 -231l138 231h201l-218 -365h-269zM74 0l174 1658h203l312 -954l100 954h245l-174 -1658h-192l-312 1000l-105 -1000h-251z" />
    <glyph glyph-name="ncaron" unicode="&#x148;" horiz-adv-x="963" 
d="M439 1324l-139 365h200l87 -231l138 231h201l-218 -365h-269zM58 0l123.999 1184h274l-12 -116c105.333 89.333 206.333 134 303 134c34.667 0 64.334 -7.33301 89.001 -22s42.5 -34 53.5 -58s18.833 -51.333 23.5 -82c2 -14 3 -28.333 3 -43
c0 -16.667 -1.33301 -33 -4 -49l-99 -948h-274l92 885c1.33301 12 2 23 2 33c0 21.333 -3 38 -9 50c-8.66699 18.667 -28.667 28 -60 28c-36.667 -0.666992 -81 -19.334 -133 -56.001l-99 -940h-274z" />
    <glyph glyph-name="napostrophe" unicode="&#x149;" horiz-adv-x="963" 
d="M58 0l123.999 1184h274l-12 -116c105.333 89.333 206.333 134 303 134c34.667 0 64.334 -7.33301 89.001 -22s42.5 -34 53.5 -58s18.833 -51.333 23.5 -82c2 -14 3 -28.333 3 -43c0 -16.667 -1.33301 -33 -4 -49l-99 -948h-274l92 885c1.33301 12 2 23 2 33
c0 21.333 -3 38 -9 50c-8.66699 18.667 -28.667 28 -60 28c-36.667 -0.666992 -81 -19.334 -133 -56.001l-99 -940h-274zM153.999 1372l58 553h234l-151 -553h-141z" />
    <glyph glyph-name="Eng" unicode="&#x14a;" horiz-adv-x="1114" 
d="M432 -404l19.9951 187.998c50.667 0 91.334 3.5 122.001 10.5s55.334 19.833 74.001 38.5s32 40.834 40 66.501s14.333 60.834 19 105.501l11 115l-294 880l-106 -1000h-241l174 1658h203l321 -954l100 954h236l-174 -1658c-7.33301 -70 -18.666 -128.5 -33.999 -175.5
s-37.666 -88.5 -66.999 -124.5s-68.166 -62.333 -116.499 -79s-107.833 -25 -178.5 -25h-109z" />
    <glyph glyph-name="eng" unicode="&#x14b;" horiz-adv-x="863" 
d="M240 -392l19.9951 191c50 0 90.833 3.33301 122.5 10s56.834 18.167 75.501 34.5s32.167 35.666 40.5 57.999s14.5 51.833 18.5 88.5l94 895c1.33301 11.333 2 22 2 32c0.666992 22 -2.33301 39 -9 51c-9.33301 18.667 -29.666 28 -60.999 28
c-36.667 -0.666992 -81 -19.334 -133 -56.001l-99 -940h-274l124 1184h274l-11 -111c101.333 86 202.333 129 303 129c34.667 0 64.334 -7.33301 89.001 -22s42.334 -34 53.001 -58s18.334 -51.333 23.001 -82c2.66699 -15.333 4 -30.666 4 -45.999
s-1.33301 -30.666 -4 -45.999l-101 -960c-26.667 -253.333 -180 -380 -460 -380h-91z" />
    <glyph glyph-name="Omacron" unicode="&#x14c;" horiz-adv-x="1146" 
d="M480 1799l16 147h463l-16 -147h-463zM543 200c30 0 56.333 4.50391 79 13.5039s41 20.5 55 34.5s25.833 32.667 35.5 56s17 46.666 22 69.999s9.16699 51.333 12.5 84l78 748c2.66699 30 4 57.667 4 83c0 16.667 -0.666992 32.667 -2 48
c-2.66699 37.333 -16.334 66.833 -41.001 88.5s-61.334 32.5 -110.001 32.5c-37.333 0 -68.666 -5.83301 -93.999 -17.5s-45.166 -29.834 -59.499 -54.501s-25 -50.667 -32 -78s-12.5 -61.333 -16.5 -102l-78 -748c-2.66699 -32 -4 -61.333 -4 -88
c0 -14.667 0.333008 -29.334 1 -44.001c2.66699 -38.667 16.167 -69.334 40.5 -92.001s60.833 -34 109.5 -34zM520 -19.9961c-86.667 0 -159.5 12.332 -218.5 36.999s-104.333 61.167 -136 109.5s-52.5 105.166 -62.5 170.499c-5.33301 34 -8 70.667 -8 110
c0 37.333 2.33301 77 7 119l65 613c18 177.333 68.667 311.333 152 402s210 136 380 136s287 -45.667 351 -137c50 -70.667 74.667 -167 74 -289c0 -35.333 -2 -72.666 -6 -111.999l-65 -613c-18.667 -177.333 -70 -312.666 -154 -405.999s-210.333 -140 -379 -140z" />
    <glyph glyph-name="omacron" unicode="&#x14d;" horiz-adv-x="923" 
d="M319 1324l16 147h463l-16 -147h-463zM429 176c19.333 0 36.001 3.83008 50.001 11.4971s25.167 17.167 33.5 28.5s15.5 26.833 21.5 46.5s10.167 37.834 12.5 54.501s4.83301 37.667 7.5 63l45 423c2 36.667 3.66699 70.334 5 101.001c0 2 0.333008 3.66699 1 5
c-0.666992 27.333 -7.66699 50.333 -21 69c-14.667 20 -37 30 -67 30c-18.667 0 -35.167 -4 -49.5 -12s-25.666 -17.667 -33.999 -29s-15.333 -27 -21 -47s-9.83398 -38.167 -12.501 -54.5s-5.33398 -37.166 -8.00098 -62.499l-45 -423c-3.33301 -46 -5 -80.667 -5 -104
c0 -28 6.66699 -51.333 20 -70c14 -20 36.333 -30 67 -30zM408.001 -18.0029c-128 0 -218.667 36.002 -272 108.002c-42.667 57.333 -63.667 134 -63 230c0 25.333 1.33301 51.666 4 78.999l40 386c14.667 133.333 56.5 236.166 125.5 308.499s167.167 108.5 294.5 108.5
s218.333 -36 273 -108c43.333 -57.333 65 -133.333 65 -228c0 -25.333 -1.66699 -52.333 -5 -81l-40 -386c-14.667 -134 -56.667 -237 -126 -309s-168 -108 -296 -108z" />
    <glyph glyph-name="Obreve" unicode="&#x14e;" horiz-adv-x="1146" 
d="M712 1799c-102 0 -173.668 26.333 -215.001 79c-34 43.333 -51 98.666 -51 165.999c0 15.333 1 31.333 3 48h140c-1.33301 -12 -2 -23.333 -2 -34c0 -39.333 8.66699 -68.666 26 -87.999c22.667 -25.333 60.334 -38 113.001 -38c52 0 91.667 12.833 119 38.5
s44 66.167 50 121.5h141c-9.33301 -90 -40.333 -161.333 -93 -214s-129.667 -79 -231 -79zM542.999 200c30 0 56.333 4.50391 79 13.5039s41 20.5 55 34.5s25.833 32.667 35.5 56s17 46.666 22 69.999s9.16699 51.333 12.5 84l78 748c2.66699 30 4 57.667 4 83
c0 16.667 -0.666992 32.667 -2 48c-2.66699 37.333 -16.334 66.833 -41.001 88.5s-61.334 32.5 -110.001 32.5c-37.333 0 -68.666 -5.83301 -93.999 -17.5s-45.166 -29.834 -59.499 -54.501s-25 -50.667 -32 -78s-12.5 -61.333 -16.5 -102l-78 -748
c-2.66699 -32 -4 -61.333 -4 -88c0 -14.667 0.333008 -29.334 1 -44.001c2.66699 -38.667 16.167 -69.334 40.5 -92.001s60.833 -34 109.5 -34zM519.999 -19.9961c-86.667 0 -159.5 12.332 -218.5 36.999s-104.333 61.167 -136 109.5s-52.5 105.166 -62.5 170.499
c-5.33301 34 -8 70.667 -8 110c0 37.333 2.33301 77 7 119l65 613c18 177.333 68.667 311.333 152 402s210 136 380 136s287 -45.667 351 -137c50 -70.667 74.667 -167 74 -289c0 -35.333 -2 -72.666 -6 -111.999l-65 -613c-18.667 -177.333 -70 -312.666 -154 -405.999
s-210.333 -140 -379 -140z" />
    <glyph glyph-name="obreve" unicode="&#x14f;" horiz-adv-x="923" 
d="M551 1324c-102 0 -173.668 26.333 -215.001 79c-34 43.333 -51 98.666 -51 165.999c0 15.333 1 31.333 3 48h140c-1.33301 -12 -2 -23.333 -2 -34c0 -39.333 8.66699 -68.666 26 -87.999c22.667 -25.333 60.334 -38 113.001 -38c52 0 91.667 12.833 119 38.5
s44 66.167 50 121.5h141c-9.33301 -90 -40.333 -161.333 -93 -214s-129.667 -79 -231 -79zM428.999 176c19.333 0 36.001 3.83008 50.001 11.4971s25.167 17.167 33.5 28.5s15.5 26.833 21.5 46.5s10.167 37.834 12.5 54.501s4.83301 37.667 7.5 63l45 423
c2 36.667 3.66699 70.334 5 101.001c0 2 0.333008 3.66699 1 5c-0.666992 27.333 -7.66699 50.333 -21 69c-14.667 20 -37 30 -67 30c-18.667 0 -35.167 -4 -49.5 -12s-25.666 -17.667 -33.999 -29s-15.333 -27 -21 -47s-9.83398 -38.167 -12.501 -54.5
s-5.33398 -37.166 -8.00098 -62.499l-45 -423c-3.33301 -46 -5 -80.667 -5 -104c0 -28 6.66699 -51.333 20 -70c14 -20 36.333 -30 67 -30zM408 -18.0029c-128 0 -218.667 36.002 -272 108.002c-42.667 57.333 -63.667 134 -63 230c0 25.333 1.33301 51.666 4 78.999l40 386
c14.667 133.333 56.5 236.166 125.5 308.499s167.167 108.5 294.5 108.5s218.333 -36 273 -108c43.333 -57.333 65 -133.333 65 -228c0 -25.333 -1.66699 -52.333 -5 -81l-40 -386c-14.667 -134 -56.667 -237 -126 -309s-168 -108 -296 -108z" />
    <glyph glyph-name="Ohungarumlaut" unicode="&#x150;" horiz-adv-x="1146" 
d="M488 1799l137 389h221l-220 -389h-138zM794 1799l165 389h258l-282 -389h-141zM543 200c30 0 56.333 4.50391 79 13.5039s41 20.5 55 34.5s25.833 32.667 35.5 56s17 46.666 22 69.999s9.16699 51.333 12.5 84l78 748c2.66699 30 4 57.667 4 83
c0 16.667 -0.666992 32.667 -2 48c-2.66699 37.333 -16.334 66.833 -41.001 88.5s-61.334 32.5 -110.001 32.5c-37.333 0 -68.666 -5.83301 -93.999 -17.5s-45.166 -29.834 -59.499 -54.501s-25 -50.667 -32 -78s-12.5 -61.333 -16.5 -102l-78 -748
c-2.66699 -32 -4 -61.333 -4 -88c0 -14.667 0.333008 -29.334 1 -44.001c2.66699 -38.667 16.167 -69.334 40.5 -92.001s60.833 -34 109.5 -34zM520 -19.9961c-86.667 0 -159.5 12.332 -218.5 36.999s-104.333 61.167 -136 109.5s-52.5 105.166 -62.5 170.499
c-5.33301 34 -8 70.667 -8 110c0 37.333 2.33301 77 7 119l65 613c18 177.333 68.667 311.333 152 402s210 136 380 136s287 -45.667 351 -137c50 -70.667 74.667 -167 74 -289c0 -35.333 -2 -72.666 -6 -111.999l-65 -613c-18.667 -177.333 -70 -312.666 -154 -405.999
s-210.333 -140 -379 -140z" />
    <glyph glyph-name="ohungarumlaut" unicode="&#x151;" horiz-adv-x="923" 
d="M327 1324l137 389h221l-220 -389h-138zM633 1324l165 389h258l-282 -389h-141zM429 176c19.333 0 36.001 3.83008 50.001 11.4971s25.167 17.167 33.5 28.5s15.5 26.833 21.5 46.5s10.167 37.834 12.5 54.501s4.83301 37.667 7.5 63l45 423
c2 36.667 3.66699 70.334 5 101.001c0 2 0.333008 3.66699 1 5c-0.666992 27.333 -7.66699 50.333 -21 69c-14.667 20 -37 30 -67 30c-18.667 0 -35.167 -4 -49.5 -12s-25.666 -17.667 -33.999 -29s-15.333 -27 -21 -47s-9.83398 -38.167 -12.501 -54.5
s-5.33398 -37.166 -8.00098 -62.499l-45 -423c-3.33301 -46 -5 -80.667 -5 -104c0 -28 6.66699 -51.333 20 -70c14 -20 36.333 -30 67 -30zM408.001 -18.0029c-128 0 -218.667 36.002 -272 108.002c-42.667 57.333 -63.667 134 -63 230c0 25.333 1.33301 51.666 4 78.999
l40 386c14.667 133.333 56.5 236.166 125.5 308.499s167.167 108.5 294.5 108.5s218.333 -36 273 -108c43.333 -57.333 65 -133.333 65 -228c0 -25.333 -1.66699 -52.333 -5 -81l-40 -386c-14.667 -134 -56.667 -237 -126 -309s-168 -108 -296 -108z" />
    <glyph glyph-name="OE" unicode="&#x152;" horiz-adv-x="1440" 
d="M550 0c-182.667 0 -307.667 43.668 -375 131.001c-52 68 -78 164 -78 288c0 35.333 2 73.333 6 114l59 558c19.333 185.333 72 325.666 158 420.999s216 143.333 390 144h796l-22 -210h-381l-51 -486h299l-21 -208h-300l-57 -547h384l-21 -205h-786zM575 211.001
l103.002 0.00195312l130 1235h-106c-22.667 0 -43.334 -2 -62.001 -6s-35 -8.66699 -49 -14s-26.833 -14 -38.5 -26s-21.334 -22.833 -29.001 -32.5s-14.834 -24.167 -21.501 -43.5s-12 -35.5 -16 -48.5s-7.83301 -32.333 -11.5 -58s-6.5 -46.334 -8.5 -62.001
s-4.66699 -39.167 -8 -70.5l-59 -560c-5.33301 -52.667 -8 -99 -8 -139c0 -12 0.333008 -23.333 1 -34c2 -46.667 17.333 -81.834 46 -105.501s74.334 -35.5 137.001 -35.5z" />
    <glyph glyph-name="oe" unicode="&#x153;" horiz-adv-x="1431" 
d="M406 -20c-118.667 0 -203.334 35.333 -254.001 106c-40 56 -60 131 -60 225c0 26 1.66699 53 5 81l43 416c13.333 130.667 53.333 230.667 120 300s161.334 104 284.001 104c58 0 108.5 -12.5 151.5 -37.5s72.5 -59.167 88.5 -102.5c24 42.667 61 76.667 111 102
s104 38 162 38c68.667 0 125.334 -11 170.001 -33s77 -53.667 97 -95c20.667 -40 33.667 -89.333 39 -148c2 -21.333 3 -43.666 3 -66.999c0 -40.667 -3 -84.334 -9 -131.001l-16 -155h-465l-12 -115c-6.66699 -69.333 -10 -121.666 -10 -156.999
c0 -12.667 0.333008 -23.334 1 -32.001c7.33301 -62.667 33.333 -95.667 78 -99h9c32 0 55.667 10.333 71 31c16.667 22.667 28 60.667 34 114l12 109h267l-12 -108c-24.667 -231.333 -149.667 -347 -375 -347h-17c-63.333 2 -115.333 15.167 -156 39.5
s-69 57.833 -85 100.5c-58.667 -92.667 -150.334 -139 -275.001 -139zM448 180c22.667 0 41.665 4.83105 56.998 14.498s27.5 24.834 36.5 45.501s15.833 42 20.5 64s9 50 13 84l45 426c2.66699 36.667 4 69.834 4 99.501s-7.16699 53.834 -21.5 72.501
s-36.166 28 -65.499 28c-22 0 -40.667 -5 -56 -15s-27.333 -25 -36 -45s-15.167 -40.5 -19.5 -61.5s-8.16602 -47.167 -11.499 -78.5l-45 -425c-4 -46 -6 -82 -6 -108c0 -28.667 6.66699 -52.334 20 -71.001c14 -20 35.667 -30 65 -30zM890.998 724.998h200l8 78
c2.66699 24.667 4 47 4 67c0 96 -27.333 144 -82 144c-67.333 0 -108 -70.333 -122 -211z" />
    <glyph glyph-name="Racute" unicode="&#x154;" horiz-adv-x="1121" 
d="M650 1799l164 409h277l-287 -409h-154zM74 0l173.999 1658h373c87.333 0 161.5 -7.33301 222.5 -22s112.833 -38.834 155.5 -72.501s72.334 -79.167 89.001 -136.5c10.667 -38 16 -81.333 16 -130c0 -25.333 -1.33301 -52.333 -4 -81
c-22 -209.333 -104.667 -342 -248 -398l153 -818h-291l-127 758h-137l-80 -758h-296zM469.999 950.001h69.998c90.667 0 157.334 18.833 200.001 56.5s69 103.167 79 196.5c2 22 3 42.333 3 61c0 58.667 -11 102.667 -33 132c-29.333 38.667 -88.666 58 -177.999 58h-88z
" />
    <glyph glyph-name="racute" unicode="&#x155;" horiz-adv-x="705" 
d="M407 1324l164 409h277l-287 -409h-154zM62 0l124.001 1184h274l-18 -180c87.333 130 177.333 195 270 195c14 0 28 -1.66699 42 -5l-30 -274c-31.333 12 -64.333 18 -99 18c-39.333 -1.33301 -74.833 -10.833 -106.5 -28.5s-63.834 -48.167 -96.501 -91.5l-86 -818h-274z
" />
    <glyph glyph-name="Rcommaaccent" unicode="&#x156;" horiz-adv-x="1121" 
d="M396 -641l-34.998 116.997c43.333 2.66699 76.666 14.334 99.999 35.001s37.333 54.334 42 101.001h-139l28 266h267l-26 -242c-10 -91.333 -32.833 -160.166 -68.5 -206.499s-91.834 -69.833 -168.501 -70.5zM74.002 -0.00292969l173.999 1658h373
c87.333 0 161.5 -7.33301 222.5 -22s112.833 -38.834 155.5 -72.501s72.334 -79.167 89.001 -136.5c10.667 -38 16 -81.333 16 -130c0 -25.333 -1.33301 -52.333 -4 -81c-22 -209.333 -104.667 -342 -248 -398l153 -818h-291l-127 758h-137l-80 -758h-296zM470.001 949.998
h69.998c90.667 0 157.334 18.833 200.001 56.5s69 103.167 79 196.5c2 22 3 42.333 3 61c0 58.667 -11 102.667 -33 132c-29.333 38.667 -88.666 58 -177.999 58h-88z" />
    <glyph glyph-name="rcommaaccent" unicode="&#x157;" horiz-adv-x="705" 
d="M203 -641l-34.998 116.997c43.333 2.66699 76.666 14.334 99.999 35.001s37.333 54.334 42 101.001h-139l28 266h267l-26 -242c-10 -91.333 -32.833 -160.166 -68.5 -206.499s-91.834 -69.833 -168.501 -70.5zM62.002 -0.00292969l124.001 1184h274l-18 -180
c87.333 130 177.333 195 270 195c14 0 28 -1.66699 42 -5l-30 -274c-31.333 12 -64.333 18 -99 18c-39.333 -1.33301 -74.833 -10.833 -106.5 -28.5s-63.834 -48.167 -96.501 -91.5l-86 -818h-274z" />
    <glyph glyph-name="Rcaron" unicode="&#x158;" horiz-adv-x="1121" 
d="M592 1799l-139 365h200l87 -231l138 231h201l-218 -365h-269zM74 0l173.999 1658h373c87.333 0 161.5 -7.33301 222.5 -22s112.833 -38.834 155.5 -72.501s72.334 -79.167 89.001 -136.5c10.667 -38 16 -81.333 16 -130c0 -25.333 -1.33301 -52.333 -4 -81
c-22 -209.333 -104.667 -342 -248 -398l153 -818h-291l-127 758h-137l-80 -758h-296zM469.999 950.001h69.998c90.667 0 157.334 18.833 200.001 56.5s69 103.167 79 196.5c2 22 3 42.333 3 61c0 58.667 -11 102.667 -33 132c-29.333 38.667 -88.666 58 -177.999 58h-88z
" />
    <glyph glyph-name="rcaron" unicode="&#x159;" horiz-adv-x="705" 
d="M348 1324l-139 365h200l87 -231l138 231h201l-218 -365h-269zM62 0l124.001 1184h274l-18 -180c87.333 130 177.333 195 270 195c14 0 28 -1.66699 42 -5l-30 -274c-31.333 12 -64.333 18 -99 18c-39.333 -1.33301 -74.833 -10.833 -106.5 -28.5
s-63.834 -48.167 -96.501 -91.5l-86 -818h-274z" />
    <glyph glyph-name="Sacute" unicode="&#x15a;" horiz-adv-x="1003" 
d="M578 1799l164 409h277l-287 -409h-154zM486 -20c-271.333 0 -407.004 146.332 -407.004 438.999c0 20.667 0.666992 42.334 2 65.001l264 56c-2 -26.667 -3 -51.667 -3 -75c0 -171.333 53.667 -257 161 -257c47.333 0 83.833 14.167 109.5 42.5
s41.167 67.166 46.5 116.499c1.33301 12.667 2 24.667 2 36c0 32.667 -4.66699 63 -14 91c-12.667 38.667 -28.667 69.834 -48 93.501s-47.666 53.5 -84.999 89.5l-203 195c-56.667 55.333 -97.334 113 -122.001 173c-18 43.333 -27 94.666 -27 153.999
c0 22.667 1.33301 46.334 4 71.001c13.333 128 61.333 227.5 144 298.5s189.334 107.167 320.001 108.5h8c56.667 0.666992 106.334 -6.33301 149.001 -21c44.667 -14.667 80.834 -35.167 108.501 -61.5s49.834 -59.166 66.501 -98.499
c17.333 -38.667 28.666 -79.334 33.999 -122.001c4.66699 -34.667 6.66699 -72.667 6 -114v-30l-258 -52c2 22 3 43 3 63c0.666992 15.333 0.333984 30.333 -0.999023 45c-2.66699 34 -8.16699 64 -16.5 90s-23.166 46 -44.499 60c-18.667 12 -42 18 -70 18h-12
c-46.667 -2.66699 -83.667 -17.667 -111 -45s-43.666 -64.333 -48.999 -111c-1.33301 -12.667 -2 -24.667 -2 -36c-0.666992 -36 5.66602 -67.333 18.999 -94c17.333 -34.667 45.666 -71 84.999 -109l203 -194c68 -67.333 120 -139 156 -215
c27.333 -58 41.333 -123.333 42 -196c0 -22 -1.33301 -44.667 -4 -68c-12.667 -120.667 -61 -218.5 -145 -293.5s-187.667 -112.5 -311 -112.5z" />
    <glyph glyph-name="sacute" unicode="&#x15b;" horiz-adv-x="807" 
d="M415 1324l164 409h277l-287 -409h-154zM359 -18c-98 0 -175.333 27.498 -232 82.498s-90.334 133.833 -101.001 236.5l218 75c14.667 -133.333 60.334 -200 137.001 -200h3c30.667 1.33301 56.667 12.333 78 33s32.666 46.334 33.999 77.001v5
c0 42.667 -31.667 94 -95 154l-150 141c-90.667 84.667 -136 173.667 -136 267c0 12.667 1 25.667 3 39c12 94.667 51.5 170 118.5 226s148.833 84 245.5 84c92 0 163.833 -28.167 215.5 -84.5s80.5 -131.166 86.5 -224.499l-189 -75
c-11.333 123.333 -51.666 185.333 -120.999 186h-3c-28.667 0 -52.667 -9.33301 -72 -28c-20 -18.667 -31.333 -41.334 -34 -68.001v-7c0 -34.667 26 -78 78 -130l153 -154c51.333 -48.667 90.333 -97.667 117 -147c21.333 -39.333 32 -84.666 32 -135.999
c0 -12.667 -0.666992 -25.667 -2 -39c-10.667 -100 -51.667 -177.167 -123 -231.5s-158.333 -81.5 -261 -81.5z" />
    <glyph glyph-name="Scircumflex" unicode="&#x15c;" horiz-adv-x="1003" 
d="M344 1799l222 370h251l148 -370h-204l-82 240l-132 -240h-203zM486 -20c-271.333 0 -407.004 146.332 -407.004 438.999c0 20.667 0.666992 42.334 2 65.001l264 56c-2 -26.667 -3 -51.667 -3 -75c0 -171.333 53.667 -257 161 -257c47.333 0 83.833 14.167 109.5 42.5
s41.167 67.166 46.5 116.499c1.33301 12.667 2 24.667 2 36c0 32.667 -4.66699 63 -14 91c-12.667 38.667 -28.667 69.834 -48 93.501s-47.666 53.5 -84.999 89.5l-203 195c-56.667 55.333 -97.334 113 -122.001 173c-18 43.333 -27 94.666 -27 153.999
c0 22.667 1.33301 46.334 4 71.001c13.333 128 61.333 227.5 144 298.5s189.334 107.167 320.001 108.5h8c56.667 0.666992 106.334 -6.33301 149.001 -21c44.667 -14.667 80.834 -35.167 108.501 -61.5s49.834 -59.166 66.501 -98.499
c17.333 -38.667 28.666 -79.334 33.999 -122.001c4.66699 -34.667 6.66699 -72.667 6 -114v-30l-258 -52c2 22 3 43 3 63c0.666992 15.333 0.333984 30.333 -0.999023 45c-2.66699 34 -8.16699 64 -16.5 90s-23.166 46 -44.499 60c-18.667 12 -42 18 -70 18h-12
c-46.667 -2.66699 -83.667 -17.667 -111 -45s-43.666 -64.333 -48.999 -111c-1.33301 -12.667 -2 -24.667 -2 -36c-0.666992 -36 5.66602 -67.333 18.999 -94c17.333 -34.667 45.666 -71 84.999 -109l203 -194c68 -67.333 120 -139 156 -215
c27.333 -58 41.333 -123.333 42 -196c0 -22 -1.33301 -44.667 -4 -68c-12.667 -120.667 -61 -218.5 -145 -293.5s-187.667 -112.5 -311 -112.5z" />
    <glyph glyph-name="scircumflex" unicode="&#x15d;" horiz-adv-x="807" 
d="M182 1324l222 370h251l148 -370h-204l-82 240l-132 -240h-203zM359 -18c-98 0 -175.333 27.498 -232 82.498s-90.334 133.833 -101.001 236.5l218 75c14.667 -133.333 60.334 -200 137.001 -200h3c30.667 1.33301 56.667 12.333 78 33s32.666 46.334 33.999 77.001v5
c0 42.667 -31.667 94 -95 154l-150 141c-90.667 84.667 -136 173.667 -136 267c0 12.667 1 25.667 3 39c12 94.667 51.5 170 118.5 226s148.833 84 245.5 84c92 0 163.833 -28.167 215.5 -84.5s80.5 -131.166 86.5 -224.499l-189 -75
c-11.333 123.333 -51.666 185.333 -120.999 186h-3c-28.667 0 -52.667 -9.33301 -72 -28c-20 -18.667 -31.333 -41.334 -34 -68.001v-7c0 -34.667 26 -78 78 -130l153 -154c51.333 -48.667 90.333 -97.667 117 -147c21.333 -39.333 32 -84.666 32 -135.999
c0 -12.667 -0.666992 -25.667 -2 -39c-10.667 -100 -51.667 -177.167 -123 -231.5s-158.333 -81.5 -261 -81.5z" />
    <glyph glyph-name="Scedilla" unicode="&#x15e;" horiz-adv-x="1003" 
d="M326 -500l14 127.999c30.667 -9.33301 64 -14.666 100 -15.999c4.66699 0 9 -0.333008 13 -1c30 0.666992 57.667 5.66699 83 15c29.333 10.667 45.333 28 48 52c2 16 0 30.167 -6 42.5s-13.833 22.5 -23.5 30.5s-23.5 15.333 -41.5 22s-33.5 11.667 -46.5 15
s-30.167 7 -51.5 11l21 201h121l-13 -125c68 -7.33301 124.667 -27.333 170 -60c42.667 -30.667 64 -70 64 -118v-11c-3.33301 -47.333 -19.5 -87.5 -48.5 -120.5s-65.167 -56.167 -108.5 -69.5c-41.333 -13.333 -86.333 -20 -135 -20h-8
c-52 0.666992 -102.667 8.66699 -152 24zM486 -20.001c-271.333 0 -407.004 146.332 -407.004 438.999c0 20.667 0.666992 42.334 2 65.001l264 56c-2 -26.667 -3 -51.667 -3 -75c0 -171.333 53.667 -257 161 -257c47.333 0 83.833 14.167 109.5 42.5
s41.167 67.166 46.5 116.499c1.33301 12.667 2 24.667 2 36c0 32.667 -4.66699 63 -14 91c-12.667 38.667 -28.667 69.834 -48 93.501s-47.666 53.5 -84.999 89.5l-203 195c-56.667 55.333 -97.334 113 -122.001 173c-18 43.333 -27 94.666 -27 153.999
c0 22.667 1.33301 46.334 4 71.001c13.333 128 61.333 227.5 144 298.5s189.334 107.167 320.001 108.5h8c56.667 0.666992 106.334 -6.33301 149.001 -21c44.667 -14.667 80.834 -35.167 108.501 -61.5s49.834 -59.166 66.501 -98.499
c17.333 -38.667 28.666 -79.334 33.999 -122.001c4.66699 -34.667 6.66699 -72.667 6 -114v-30l-258 -52c2 22 3 43 3 63c0.666992 15.333 0.333984 30.333 -0.999023 45c-2.66699 34 -8.16699 64 -16.5 90s-23.166 46 -44.499 60c-18.667 12 -42 18 -70 18h-12
c-46.667 -2.66699 -83.667 -17.667 -111 -45s-43.666 -64.333 -48.999 -111c-1.33301 -12.667 -2 -24.667 -2 -36c-0.666992 -36 5.66602 -67.333 18.999 -94c17.333 -34.667 45.666 -71 84.999 -109l203 -194c68 -67.333 120 -139 156 -215
c27.333 -58 41.333 -123.333 42 -196c0 -22 -1.33301 -44.667 -4 -68c-12.667 -120.667 -61 -218.5 -145 -293.5s-187.667 -112.5 -311 -112.5z" />
    <glyph glyph-name="scedilla" unicode="&#x15f;" horiz-adv-x="807" 
d="M226 -500l14 127.999c30.667 -9.33301 64 -14.666 100 -15.999c4.66699 0 9 -0.333008 13 -1c30 0.666992 57.667 5.66699 83 15c29.333 10.667 45.333 28 48 52c2 16 0 30.167 -6 42.5s-13.833 22.5 -23.5 30.5s-23.5 15.333 -41.5 22s-33.5 11.667 -46.5 15
s-30.167 7 -51.5 11l21 201h121l-13 -125c68 -7.33301 124.667 -27.333 170 -60c42.667 -30.667 64 -70 64 -118v-11c-3.33301 -47.333 -19.5 -87.5 -48.5 -120.5s-65.167 -56.167 -108.5 -69.5c-41.333 -13.333 -86.333 -20 -135 -20h-8
c-52 0.666992 -102.667 8.66699 -152 24zM359 -18.001c-98 0 -175.333 27.498 -232 82.498s-90.334 133.833 -101.001 236.5l218 75c14.667 -133.333 60.334 -200 137.001 -200h3c30.667 1.33301 56.667 12.333 78 33s32.666 46.334 33.999 77.001v5
c0 42.667 -31.667 94 -95 154l-150 141c-90.667 84.667 -136 173.667 -136 267c0 12.667 1 25.667 3 39c12 94.667 51.5 170 118.5 226s148.833 84 245.5 84c92 0 163.833 -28.167 215.5 -84.5s80.5 -131.166 86.5 -224.499l-189 -75
c-11.333 123.333 -51.666 185.333 -120.999 186h-3c-28.667 0 -52.667 -9.33301 -72 -28c-20 -18.667 -31.333 -41.334 -34 -68.001v-7c0 -34.667 26 -78 78 -130l153 -154c51.333 -48.667 90.333 -97.667 117 -147c21.333 -39.333 32 -84.666 32 -135.999
c0 -12.667 -0.666992 -25.667 -2 -39c-10.667 -100 -51.667 -177.167 -123 -231.5s-158.333 -81.5 -261 -81.5z" />
    <glyph glyph-name="Scaron" unicode="&#x160;" horiz-adv-x="1003" 
d="M519 1799l-139 365h200l87 -231l138 231h201l-218 -365h-269zM486 -20c-271.333 0 -407.004 146.332 -407.004 438.999c0 20.667 0.666992 42.334 2 65.001l264 56c-2 -26.667 -3 -51.667 -3 -75c0 -171.333 53.667 -257 161 -257c47.333 0 83.833 14.167 109.5 42.5
s41.167 67.166 46.5 116.499c1.33301 12.667 2 24.667 2 36c0 32.667 -4.66699 63 -14 91c-12.667 38.667 -28.667 69.834 -48 93.501s-47.666 53.5 -84.999 89.5l-203 195c-56.667 55.333 -97.334 113 -122.001 173c-18 43.333 -27 94.666 -27 153.999
c0 22.667 1.33301 46.334 4 71.001c13.333 128 61.333 227.5 144 298.5s189.334 107.167 320.001 108.5h8c56.667 0.666992 106.334 -6.33301 149.001 -21c44.667 -14.667 80.834 -35.167 108.501 -61.5s49.834 -59.166 66.501 -98.499
c17.333 -38.667 28.666 -79.334 33.999 -122.001c4.66699 -34.667 6.66699 -72.667 6 -114v-30l-258 -52c2 22 3 43 3 63c0.666992 15.333 0.333984 30.333 -0.999023 45c-2.66699 34 -8.16699 64 -16.5 90s-23.166 46 -44.499 60c-18.667 12 -42 18 -70 18h-12
c-46.667 -2.66699 -83.667 -17.667 -111 -45s-43.666 -64.333 -48.999 -111c-1.33301 -12.667 -2 -24.667 -2 -36c-0.666992 -36 5.66602 -67.333 18.999 -94c17.333 -34.667 45.666 -71 84.999 -109l203 -194c68 -67.333 120 -139 156 -215
c27.333 -58 41.333 -123.333 42 -196c0 -22 -1.33301 -44.667 -4 -68c-12.667 -120.667 -61 -218.5 -145 -293.5s-187.667 -112.5 -311 -112.5z" />
    <glyph glyph-name="scaron" unicode="&#x161;" horiz-adv-x="807" 
d="M357 1324l-139 365h200l87 -231l138 231h201l-218 -365h-269zM359 -18c-98 0 -175.333 27.498 -232 82.498s-90.334 133.833 -101.001 236.5l218 75c14.667 -133.333 60.334 -200 137.001 -200h3c30.667 1.33301 56.667 12.333 78 33s32.666 46.334 33.999 77.001v5
c0 42.667 -31.667 94 -95 154l-150 141c-90.667 84.667 -136 173.667 -136 267c0 12.667 1 25.667 3 39c12 94.667 51.5 170 118.5 226s148.833 84 245.5 84c92 0 163.833 -28.167 215.5 -84.5s80.5 -131.166 86.5 -224.499l-189 -75
c-11.333 123.333 -51.666 185.333 -120.999 186h-3c-28.667 0 -52.667 -9.33301 -72 -28c-20 -18.667 -31.333 -41.334 -34 -68.001v-7c0 -34.667 26 -78 78 -130l153 -154c51.333 -48.667 90.333 -97.667 117 -147c21.333 -39.333 32 -84.666 32 -135.999
c0 -12.667 -0.666992 -25.667 -2 -39c-10.667 -100 -51.667 -177.167 -123 -231.5s-158.333 -81.5 -261 -81.5z" />
    <glyph glyph-name="Tcommaaccent" unicode="&#x162;" horiz-adv-x="860" 
d="M236 -500l14 127.999c30.667 -9.33301 64 -14.666 100 -15.999c4.66699 0 9 -0.333008 13 -1c30 0.666992 57.667 5.66699 83 15c29.333 10.667 45.333 28 48 52c2 16 0 30.167 -6 42.5s-13.833 22.5 -23.5 30.5s-23.5 15.333 -41.5 22s-33.5 11.667 -46.5 15
s-30.167 7 -51.5 11l21 201h121l-13 -125c68 -7.33301 124.667 -27.333 170 -60c42.667 -30.667 64 -70 64 -118v-11c-3.33301 -47.333 -19.5 -87.5 -48.5 -120.5s-65.167 -56.167 -108.5 -69.5c-41.333 -13.333 -86.333 -20 -135 -20h-8
c-52 0.666992 -102.667 8.66699 -152 24zM237 -0.000976562l151 1440h-280l23 218h847l-23 -218h-272l-151 -1440h-295z" />
    <glyph glyph-name="tcommaaccent" unicode="&#x163;" horiz-adv-x="676" 
d="M196 -500l14 127.999c30.667 -9.33301 64 -14.666 100 -15.999c4.66699 0 9 -0.333008 13 -1c30 0.666992 57.667 5.66699 83 15c29.333 10.667 45.333 28 48 52c2 16 0 30.167 -6 42.5s-13.833 22.5 -23.5 30.5s-23.5 15.333 -41.5 22s-33.5 11.667 -46.5 15
s-30.167 7 -51.5 11l21 201h121l-13 -125c68 -7.33301 124.667 -27.333 170 -60c42.667 -30.667 64 -70 64 -118v-11c-3.33301 -47.333 -19.5 -87.5 -48.5 -120.5s-65.167 -56.167 -108.5 -69.5c-41.333 -13.333 -86.333 -20 -135 -20h-8
c-52 0.666992 -102.667 8.66699 -152 24zM385 -16.001c-53.333 0.666992 -97.8311 9.66699 -133.498 27s-61.834 40.833 -78.501 70.5s-27.667 65.167 -33 106.5c-2.66699 20 -4.33398 41.333 -5.00098 64c0 23.333 1.66699 48 5 74l72 676h-117l19 182h116l37 347h275
l-36 -347h181l-19 -182h-181l-73 -689c-0.666992 -8 -1 -15.667 -1 -23c-0.666992 -26.667 5 -47.334 17 -62.001c14.667 -17.333 41.334 -26.666 80.001 -27.999c25.333 0 53.666 2.33301 84.999 7l-22 -210c-80.667 -8.66699 -140.667 -13 -180 -13h-8z" />
    <glyph glyph-name="Tcaron" unicode="&#x164;" horiz-adv-x="860" 
d="M433 1799l-139 365h200l87 -231l138 231h201l-218 -365h-269zM237 0l151 1440h-280l23 218h847l-23 -218h-272l-151 -1440h-295z" />
    <glyph glyph-name="tcaron" unicode="&#x165;" horiz-adv-x="937" 
d="M787 978l58 553h234l-151 -553h-141zM385 -16c-53.333 0.666992 -97.8311 9.66699 -133.498 27s-61.834 40.833 -78.501 70.5s-27.667 65.167 -33 106.5c-2.66699 20 -4.33398 41.333 -5.00098 64c0 23.333 1.66699 48 5 74l72 676h-117l19 182h116l37 347h275l-36 -347
h181l-19 -182h-181l-73 -689c-0.666992 -8 -1 -15.667 -1 -23c-0.666992 -26.667 5 -47.334 17 -62.001c14.667 -17.333 41.334 -26.666 80.001 -27.999c25.333 0 53.666 2.33301 84.999 7l-22 -210c-80.667 -8.66699 -140.667 -13 -180 -13h-8z" />
    <glyph glyph-name="Tbar" unicode="&#x166;" horiz-adv-x="860" 
d="M113 778l16 155h195l53 507h-280l23 218h847l-23 -218h-272l-53 -507h199l-17 -155h-198l-82 -778h-295l82 778h-195z" />
    <glyph glyph-name="tbar" unicode="&#x167;" horiz-adv-x="571" 
d="M33 663l13.001 129.001h131l22 210h-117l19 182h116l37 347h275l-36 -347h181l-19 -182h-181l-22 -210h177l-13 -129h-178l-37 -350c-0.666992 -8 -1 -15.667 -1 -23c0 -26.667 6 -47.334 18 -62.001c14.667 -17.333 41 -26.666 79 -27.999
c25.333 0 53.666 2.33301 84.999 7l-22 -210c-80.667 -8.66699 -140.667 -13 -180 -13h-8c-53.333 0.666992 -97.833 9.66699 -133.5 27s-61.834 41 -78.501 71c-17.333 29.333 -28.666 64.666 -33.999 105.999c-2.66699 20 -4 41.333 -4 64c0 23.333 1.66699 48 5 74
l36 337h-130z" />
    <glyph glyph-name="Utilde" unicode="&#x168;" horiz-adv-x="1149" 
d="M873 1799l-3 0.00292969c-28.667 0 -60.334 8 -95.001 24c-36 16 -70.167 32.5 -102.5 49.5s-57.5 25.5 -75.5 25.5c-34 0 -53.667 -27.667 -59 -83h-144c8 80 27.667 142 59 186s79.666 67 144.999 69h7c29.333 0.666992 61 -6.33301 95 -21
c36.667 -16 69.834 -32.333 99.501 -49s51.167 -25.334 64.5 -26.001c17.333 -0.666992 30.333 5.33301 39 18s14.334 33.667 17.001 63h139c-4 -36.667 -9.66699 -69.167 -17 -97.5s-18 -54.833 -32 -79.5s-32.5 -43.834 -55.5 -57.501s-50.167 -20.834 -81.5 -21.501z
M523 -19.9971c-91.333 0 -166.498 13.334 -225.498 40.001s-102.333 65 -130 115s-45.5 111 -53.5 183c-3.33301 28.667 -4.66602 59 -3.99902 91c0 47.333 3.33301 97.666 10 150.999l115 1098h286l-118 -1126c-4 -40 -6.66699 -74 -8 -102
c-0.666992 -7.33301 -1 -14.666 -1 -21.999c0 -22 1.66699 -44.333 5 -67c4 -30.667 11.167 -55.334 21.5 -74.001s26.166 -34 47.499 -46s47.666 -18 78.999 -18s58.666 6.16699 81.999 18.5s42.166 27.666 56.499 45.999s26.5 42.833 36.5 73.5s17.333 60 22 88
s9.33398 62.333 14.001 103l118 1126h286l-116 -1098c-8 -76 -19 -142.5 -33 -199.5s-34 -110.167 -60 -159.5s-57.833 -89.666 -95.5 -120.999s-84.5 -55.833 -140.5 -73.5s-120.667 -26.5 -194 -26.5z" />
    <glyph glyph-name="utilde" unicode="&#x169;" horiz-adv-x="960" 
d="M724 1324l-3 0.00292969c-28.667 0 -60.334 8 -95.001 24c-36 16 -70.167 32.5 -102.5 49.5s-57.5 25.5 -75.5 25.5c-34 0 -53.667 -27.667 -59 -83h-144c8 80 27.667 142 59 186s79.666 67 144.999 69h7c29.333 0.666992 61 -6.33301 95 -21
c36.667 -16 69.834 -32.333 99.501 -49s51.167 -25.334 64.5 -26.001c17.333 -0.666992 30.333 5.33301 39 18s14.334 33.667 17.001 63h139c-4 -36.667 -9.66699 -69.167 -17 -97.5s-18 -54.833 -32 -79.5s-32.5 -43.834 -55.5 -57.501s-50.167 -20.834 -81.5 -21.501z
M239 -17.9971c-34.667 0 -64.168 7.16797 -88.501 21.501s-42.166 34.166 -53.499 59.499c-11.333 26 -19 53 -23 81c-2 14.667 -2.66699 30 -2 46c0 14.667 0.666992 30 2 46l99 948h274l-93 -889c-1.33301 -10.667 -2 -20.667 -2 -30c0 -22 3.33301 -39.667 10 -53
c9.33301 -18 29 -27 59 -27h3c34 0 76.333 17.333 127 52l100 947h274l-124 -1184h-274l11 111c-103.333 -86 -203 -129 -299 -129z" />
    <glyph glyph-name="Umacron" unicode="&#x16a;" horiz-adv-x="1149" 
d="M481 1799l16 147h463l-16 -147h-463zM523 -20c-91.333 0 -166.498 13.334 -225.498 40.001s-102.333 65 -130 115s-45.5 111 -53.5 183c-3.33301 28.667 -4.66602 59 -3.99902 91c0 47.333 3.33301 97.666 10 150.999l115 1098h286l-118 -1126
c-4 -40 -6.66699 -74 -8 -102c-0.666992 -7.33301 -1 -14.666 -1 -21.999c0 -22 1.66699 -44.333 5 -67c4 -30.667 11.167 -55.334 21.5 -74.001s26.166 -34 47.499 -46s47.666 -18 78.999 -18s58.666 6.16699 81.999 18.5s42.166 27.666 56.499 45.999
s26.5 42.833 36.5 73.5s17.333 60 22 88s9.33398 62.333 14.001 103l118 1126h286l-116 -1098c-8 -76 -19 -142.5 -33 -199.5s-34 -110.167 -60 -159.5s-57.833 -89.666 -95.5 -120.999s-84.5 -55.833 -140.5 -73.5s-120.667 -26.5 -194 -26.5z" />
    <glyph glyph-name="umacron" unicode="&#x16b;" horiz-adv-x="960" 
d="M331 1324l16 147h463l-16 -147h-463zM239 -18c-34.667 0 -64.168 7.16797 -88.501 21.501s-42.166 34.166 -53.499 59.499c-11.333 26 -19 53 -23 81c-2 14.667 -2.66699 30 -2 46c0 14.667 0.666992 30 2 46l99 948h274l-93 -889c-1.33301 -10.667 -2 -20.667 -2 -30
c0 -22 3.33301 -39.667 10 -53c9.33301 -18 29 -27 59 -27h3c34 0 76.333 17.333 127 52l100 947h274l-124 -1184h-274l11 111c-103.333 -86 -203 -129 -299 -129z" />
    <glyph glyph-name="Ubreve" unicode="&#x16c;" horiz-adv-x="1149" 
d="M713 1799c-102 0 -173.668 26.333 -215.001 79c-34 43.333 -51 98.666 -51 165.999c0 15.333 1 31.333 3 48h140c-1.33301 -12 -2 -23.333 -2 -34c0 -39.333 8.66699 -68.666 26 -87.999c22.667 -25.333 60.334 -38 113.001 -38c52 0 91.667 12.833 119 38.5
s44 66.167 50 121.5h141c-9.33301 -90 -40.333 -161.333 -93 -214s-129.667 -79 -231 -79zM522.999 -20c-91.333 0 -166.498 13.334 -225.498 40.001s-102.333 65 -130 115s-45.5 111 -53.5 183c-3.33301 28.667 -4.66602 59 -3.99902 91
c0 47.333 3.33301 97.666 10 150.999l115 1098h286l-118 -1126c-4 -40 -6.66699 -74 -8 -102c-0.666992 -7.33301 -1 -14.666 -1 -21.999c0 -22 1.66699 -44.333 5 -67c4 -30.667 11.167 -55.334 21.5 -74.001s26.166 -34 47.499 -46s47.666 -18 78.999 -18
s58.666 6.16699 81.999 18.5s42.166 27.666 56.499 45.999s26.5 42.833 36.5 73.5s17.333 60 22 88s9.33398 62.333 14.001 103l118 1126h286l-116 -1098c-8 -76 -19 -142.5 -33 -199.5s-34 -110.167 -60 -159.5s-57.833 -89.666 -95.5 -120.999s-84.5 -55.833 -140.5 -73.5
s-120.667 -26.5 -194 -26.5z" />
    <glyph glyph-name="ubreve" unicode="&#x16d;" horiz-adv-x="960" 
d="M563 1324c-102 0 -173.668 26.333 -215.001 79c-34 43.333 -51 98.666 -51 165.999c0 15.333 1 31.333 3 48h140c-1.33301 -12 -2 -23.333 -2 -34c0 -39.333 8.66699 -68.666 26 -87.999c22.667 -25.333 60.334 -38 113.001 -38c52 0 91.667 12.833 119 38.5
s44 66.167 50 121.5h141c-9.33301 -90 -40.333 -161.333 -93 -214s-129.667 -79 -231 -79zM238.999 -18c-34.667 0 -64.168 7.16797 -88.501 21.501s-42.166 34.166 -53.499 59.499c-11.333 26 -19 53 -23 81c-2 14.667 -2.66699 30 -2 46c0 14.667 0.666992 30 2 46l99 948
h274l-93 -889c-1.33301 -10.667 -2 -20.667 -2 -30c0 -22 3.33301 -39.667 10 -53c9.33301 -18 29 -27 59 -27h3c34 0 76.333 17.333 127 52l100 947h274l-124 -1184h-274l11 111c-103.333 -86 -203 -129 -299 -129z" />
    <glyph glyph-name="Uring" unicode="&#x16e;" horiz-adv-x="1149" 
d="M724 1918c34.667 0 63 10.499 85 31.499s35 48.833 39 83.5c0.666992 5.33301 1 10.666 1 15.999c0 27.333 -7.33301 49.666 -22 67c-17.333 21.333 -43.666 31.666 -78.999 31c-36 0 -64.833 -10.5 -86.5 -31.5s-34.167 -48.5 -37.5 -82.5
c-0.666992 -5.33301 -1 -10.666 -1 -15.999c0 -27.333 7.33301 -49.666 22 -66.999c17.333 -21.333 43.666 -32 78.999 -32zM711 1799c-70.667 -0.666992 -125.667 20.333 -165 63c-32.667 35.333 -49 80.666 -49 135.999c0 11.333 0.666992 23 2 35
c6.66699 71.333 34.167 128 82.5 170s107.833 63 178.5 63c70 0 125 -21 165 -63c34 -36 51 -82.667 51 -140c0 -9.33301 -0.333008 -19.333 -1 -30c-7.33301 -71.333 -35.5 -128.166 -84.5 -170.499s-108.833 -63.5 -179.5 -63.5zM523 -20.001
c-91.333 0 -166.498 13.334 -225.498 40.001s-102.333 65 -130 115s-45.5 111 -53.5 183c-3.33301 28.667 -4.66602 59 -3.99902 91c0 47.333 3.33301 97.666 10 150.999l115 1098h286l-118 -1126c-4 -40 -6.66699 -74 -8 -102c-0.666992 -7.33301 -1 -14.666 -1 -21.999
c0 -22 1.66699 -44.333 5 -67c4 -30.667 11.167 -55.334 21.5 -74.001s26.166 -34 47.499 -46s47.666 -18 78.999 -18s58.666 6.16699 81.999 18.5s42.166 27.666 56.499 45.999s26.5 42.833 36.5 73.5s17.333 60 22 88s9.33398 62.333 14.001 103l118 1126h286l-116 -1098
c-8 -76 -19 -142.5 -33 -199.5s-34 -110.167 -60 -159.5s-57.833 -89.666 -95.5 -120.999s-84.5 -55.833 -140.5 -73.5s-120.667 -26.5 -194 -26.5z" />
    <glyph glyph-name="uring" unicode="&#x16f;" horiz-adv-x="960" 
d="M575 1443c34.667 0 63 10.501 85 31.501s35 48.833 39 83.5c0.666992 5.33301 1 10.666 1 15.999c0 27.333 -7.33301 49.666 -22 66.999c-17.333 21.333 -43.666 31.666 -78.999 30.999c-36 0 -64.833 -10.5 -86.5 -31.5s-34.167 -48.5 -37.5 -82.5
c-0.666992 -5.33301 -1 -10.666 -1 -15.999c0 -27.333 7.33301 -49.666 22 -66.999c17.333 -21.333 43.666 -32 78.999 -32zM562 1324c-70.667 -0.666992 -125.667 20.333 -165 63c-32.667 35.333 -49 80.666 -49 135.999c0 11.333 0.666992 23 2 35
c6.66699 71.333 34.167 128 82.5 170s107.833 63 178.5 63c70 0 125 -21 165 -63c34 -36 51 -82.667 51 -140c0 -9.33301 -0.333008 -19.333 -1 -30c-7.33301 -71.333 -35.5 -128.166 -84.5 -170.499s-108.833 -63.5 -179.5 -63.5zM239 -17.999
c-34.667 0 -64.168 7.16797 -88.501 21.501s-42.166 34.166 -53.499 59.499c-11.333 26 -19 53 -23 81c-2 14.667 -2.66699 30 -2 46c0 14.667 0.666992 30 2 46l99 948h274l-93 -889c-1.33301 -10.667 -2 -20.667 -2 -30c0 -22 3.33301 -39.667 10 -53
c9.33301 -18 29 -27 59 -27h3c34 0 76.333 17.333 127 52l100 947h274l-124 -1184h-274l11 111c-103.333 -86 -203 -129 -299 -129z" />
    <glyph glyph-name="Uhungarumlaut" unicode="&#x170;" horiz-adv-x="1149" 
d="M489 1799l137 389h221l-220 -389h-138zM795 1799l165 389h258l-282 -389h-141zM523 -20c-91.333 0 -166.498 13.334 -225.498 40.001s-102.333 65 -130 115s-45.5 111 -53.5 183c-3.33301 28.667 -4.66602 59 -3.99902 91c0 47.333 3.33301 97.666 10 150.999l115 1098
h286l-118 -1126c-4 -40 -6.66699 -74 -8 -102c-0.666992 -7.33301 -1 -14.666 -1 -21.999c0 -22 1.66699 -44.333 5 -67c4 -30.667 11.167 -55.334 21.5 -74.001s26.166 -34 47.499 -46s47.666 -18 78.999 -18s58.666 6.16699 81.999 18.5s42.166 27.666 56.499 45.999
s26.5 42.833 36.5 73.5s17.333 60 22 88s9.33398 62.333 14.001 103l118 1126h286l-116 -1098c-8 -76 -19 -142.5 -33 -199.5s-34 -110.167 -60 -159.5s-57.833 -89.666 -95.5 -120.999s-84.5 -55.833 -140.5 -73.5s-120.667 -26.5 -194 -26.5z" />
    <glyph glyph-name="uhungarumlaut" unicode="&#x171;" horiz-adv-x="960" 
d="M339 1324l137 389h221l-220 -389h-138zM645 1324l165 389h258l-282 -389h-141zM239 -18c-34.667 0 -64.168 7.16797 -88.501 21.501s-42.166 34.166 -53.499 59.499c-11.333 26 -19 53 -23 81c-2 14.667 -2.66699 30 -2 46c0 14.667 0.666992 30 2 46l99 948h274
l-93 -889c-1.33301 -10.667 -2 -20.667 -2 -30c0 -22 3.33301 -39.667 10 -53c9.33301 -18 29 -27 59 -27h3c34 0 76.333 17.333 127 52l100 947h274l-124 -1184h-274l11 111c-103.333 -86 -203 -129 -299 -129z" />
    </font>
</defs>
</svg>
