<svg xmlns="http://www.w3.org/2000/svg" width="248" height="68" viewBox="0 0 248 68"><defs><linearGradient id="l7rka" x1="34.79" x2="34.79" y1="1.52" y2="14.58" gradientUnits="userSpaceOnUse"><stop offset="0" stop-color="#fefefe"/><stop offset="1" stop-color="#fff" stop-opacity="0"/></linearGradient><linearGradient id="l7rkb" x1="36.29" x2="36.29" y1="89.38" y2="54.62" gradientUnits="userSpaceOnUse"><stop offset="0" stop-color="#fefefe"/><stop offset="1" stop-color="#fff" stop-opacity="0"/></linearGradient><linearGradient id="l7rkc" x1="34.93" x2="34.93" y1="16.04" y2="41.84" gradientUnits="userSpaceOnUse"><stop offset="0" stop-color="#fefefe"/><stop offset="1" stop-color="#fff" stop-opacity="0"/></linearGradient></defs><g><g><g><g><g><g><g><path fill="#fefefe" d="M34.968 67.794c31.007-8.117 34.967-33.279 34.967-41.58 0-8.303-2.654-17.047-9.649-26.124-5.264 1.994-16.765 2.878-25.318 0-8.556 2.878-20.055 1.994-25.32 0C2.653 9.167 0 17.911 0 26.214c0 8.301 3.96 33.463 34.968 41.58"/></g></g><g><path fill="#ec1d24" d="M67.23 16.804c-1.353-5.129-3.845-10.112-7.516-15.053-3.177.992-7.6 1.572-12.123 1.572-3.275 0-8.084-.31-12.66-1.763-4.576 1.452-9.386 1.763-12.663 1.763-4.52 0-8.944-.58-12.122-1.572-3.672 4.941-6.162 9.924-7.516 15.053z"/></g><g><path fill="#0051a4" d="M1.41 26.215c0 2.452.41 11.156 5.671 20.179 5.73 9.822 15.097 16.536 27.846 19.957 12.748-3.42 22.116-10.135 27.845-19.957 5.262-9.022 5.67-17.726 5.67-20.179 0-2.773-.302-5.49-.91-8.165H2.32a36.738 36.738 0 0 0-.91 8.165"/></g><g><g opacity=".5"><path fill="url(#l7rka)" d="M47.592 5.067c-3.242 0-8.016-.296-12.662-1.677-4.645 1.38-9.419 1.677-12.662 1.677-4.108 0-8.168-.465-11.38-1.29-1.743 2.457-3.172 4.906-4.308 7.376.692.147 1.348.31 1.942.495 5.103 1.58 8.481-.148 15.232.168 6.75.316 19.346.092 22.804-.856 4.838-1.327 10.615-.75 16.44-.408-1.088-2.266-2.424-4.516-4.025-6.774-3.213.824-7.274 1.29-11.381 1.29"/></g></g></g><g><g opacity=".9"><path fill="url(#l7rkb)" d="M44.577 38.505c-.937.002-1.871 0-2.797-.003-5.407-.016-10.524-.032-13.998.798-5.142 1.228-8.732 2.256-14.486 2.681-1.608.12-2.979.543-6.646-.397a39.523 39.523 0 0 0 2.018 3.959C14.079 54.82 22.913 61.21 34.93 64.54c12.017-3.33 20.85-9.719 26.262-18.997 2.678-4.591 4.046-9.09 4.74-12.653-7.083 4.96-14.64 5.604-21.355 5.615"/></g></g><g><g><g opacity=".5"><path fill="url(#l7rkc)" d="M66.039 19.79H3.807a35.347 35.347 0 0 0-.587 6.424c0 1.984.282 8.249 3.424 15.37 3.667.94 5.038.517 6.645.398 5.754-.425 9.345-1.453 14.487-2.682 4.068-.971 10.392-.783 16.794-.794 6.716-.012 14.273-.656 21.356-5.615.614-3.154.7-5.576.7-6.677 0-2.162-.197-4.317-.587-6.424"/></g></g><g><path fill="#fefefe" d="M12.73 6.76h3.406v.807h-1.203V13.7h-1.001V7.567H12.73z"/></g><g><path fill="#fefefe" d="M16.77 6.76h1.552c1.463 0 1.613.375 1.613 1.894 0 .932-.13 1.336-.952 1.576v.02c.681.066.912.403.912 1.056v1.51c0 .25 0 .595.06.884h-.941c-.1-.173-.12-.346-.12-.625v-1.567c0-.653-.12-.826-.782-.826h-.34V13.7H16.77zm1.001 3.105h.26c.793 0 .903-.144.903-1.178 0-1.024-.06-1.12-.681-1.12h-.482z"/></g><g><path fill="#fefefe" d="M22.192 6.76h1.162l1.472 6.94h-1.001l-.33-1.769H21.93l-.33 1.769H20.6zm-.11 4.364h1.272l-.621-3.345h-.02z"/></g><g><path fill="#fefefe" d="M25.48 13.7h1.001V6.76H25.48z"/></g><g><path fill="#fefefe" d="M27.39 6.76h1.002v6.132h1.682v.808H27.39z"/></g><g><path fill="#fefefe" d="M30.75 6.76h2.724v.807h-1.723V9.74h1.623v.807h-1.623v2.345h1.723v.808H30.75z"/></g><g><path fill="#fefefe" d="M34.1 6.76h1.552c1.463 0 1.613.375 1.613 1.894 0 .932-.13 1.336-.952 1.576v.02c.681.066.912.403.912 1.056v1.51c0 .25 0 .595.06.884h-.942c-.1-.173-.12-.346-.12-.625v-1.567c0-.653-.12-.826-.781-.826h-.34V13.7H34.1zm1.001 3.105h.26c.792 0 .902-.144.902-1.178 0-1.024-.06-1.12-.68-1.12H35.1z"/></g><g><path fill="#fefefe" d="M38.09 11.69h1.002v.566c0 .462.18.75.58.75.531 0 .662-.346.662-.798 0-.586-.03-.778-1.072-1.768-.642-.616-1.172-1.173-1.172-2.115 0-1.135.55-1.625 1.643-1.625.54 0 .931.173 1.172.385.17.154.29.394.29.884v.654h-.942v-.548c0-.394-.17-.625-.56-.625-.411 0-.601.221-.601.76 0 .47.1.759 1.021 1.681.981.981 1.162 1.317 1.162 2.154 0 1.086-.44 1.71-1.633 1.71-.92 0-1.552-.375-1.552-1.24z"/></g><g><path fill="#fefefe" d="M42.1 6.76h1.653c1.362 0 1.623.355 1.623 1.961 0 1.605-.261 1.96-1.623 1.96h-.651V13.7H42.1zm1.002 3.105h.52c.682 0 .751-.106.751-1.149s-.07-1.149-.75-1.149h-.521z"/></g><g><path fill="#fefefe" d="M46.2 6.76h1.002v6.132h1.682v.808H46.2z"/></g><g><path fill="#fefefe" d="M52.916 12.133c0 .808-.331 1.625-1.693 1.625-1.372 0-1.703-.817-1.703-1.625V6.76h1.002v5.537c0 .47.18.711.701.711.511 0 .691-.24.691-.711V6.76h1.002z"/></g><g><path fill="#fefefe" d="M53.72 11.69h1.002v.566c0 .462.18.75.58.75.531 0 .661-.346.661-.798 0-.586-.03-.778-1.07-1.768-.642-.616-1.173-1.173-1.173-2.115 0-1.135.55-1.625 1.643-1.625.54 0 .93.173 1.172.385.17.154.29.394.29.884v.654h-.942v-.548c0-.394-.17-.625-.561-.625-.41 0-.6.221-.6.76 0 .47.1.759 1.021 1.681.982.981 1.162 1.317 1.162 2.154 0 1.086-.441 1.71-1.633 1.71-.921 0-1.552-.375-1.552-1.24z"/></g><g><path fill="#fefefe" d="M22.6 23.658h24.3c1.118 0 2.047-.136 2.787-.408h.684l.19 7.842H49.9c-.347-2.297-.933-3.758-1.76-4.385-.826-.628-1.838-.94-3.034-.94h-6.494v26.311c0 .877.102 1.62.306 2.233.206.611.622 1.11 1.252 1.496.63.385 1.55.577 2.763.577v.658H26.568v-.658c1.81 0 2.983-.392 3.519-1.178.534-.786.802-1.827.802-3.128V25.766h-6.494c-1.102 0-2 .336-2.692 1.009-.693.672-1.37 2.111-2.03 4.317h-.733l.19-7.842h.684c.74.272 1.669.408 2.786.408"/></g></g></g><g><path fill="#fff" d="M233.2 38.263h4.04l-.33 1.848c-.27 1.505.29 2.444 1.906 2.444 2.141 0 2.868-1.127 3.133-2.6.341-1.911.333-2.538-3.293-5.765-2.226-2.006-4.042-3.824-3.492-6.894.661-3.698 3.17-5.296 7.574-5.296 2.184 0 3.659.564 4.504 1.253.597.502.942 1.285.656 2.883l-.381 2.131h-3.799l.32-1.786c.23-1.284-.323-2.037-1.899-2.037-1.656 0-2.552.721-2.867 2.475-.275 1.536-.04 2.476 3.14 5.484 3.388 3.196 3.918 4.293 3.43 7.02-.633 3.54-2.776 5.577-7.584 5.577-3.718 0-6.046-1.222-5.54-4.043zm-1.874 1.441c-.472 2.633-2.282 5.296-7.777 5.296-5.537 0-6.393-2.663-5.922-5.296l3.137-17.516h4.04l-3.231 18.049c-.275 1.535.312 2.318 2.413 2.318 2.061 0 2.93-.783 3.203-2.318l3.231-18.05h4.042zm-22.361-17.516h4.04l-3.579 19.992h6.789l-.472 2.632h-10.829zM196.278 32.34h2.1c2.749 0 3.093-.344 3.705-3.76.612-3.415.39-3.76-2.358-3.76h-2.101zm-2.224-10.152h6.668c5.496 0 6.34 1.16 5.401 6.392-.937 5.233-2.194 6.393-7.69 6.393h-2.627l-1.762 9.84h-4.04zM176.59 38.263h4.04l-.33 1.848c-.27 1.505.289 2.444 1.906 2.444 2.14 0 2.868-1.127 3.131-2.6.343-1.911.334-2.538-3.29-5.765-2.228-2.006-4.043-3.824-3.494-6.894.662-3.698 3.17-5.296 7.575-5.296 2.182 0 3.657.564 4.504 1.253.597.502.941 1.285.655 2.883l-.381 2.131h-3.799l.32-1.786c.23-1.284-.322-2.037-1.898-2.037-1.657 0-2.554.721-2.868 2.475-.275 1.536-.04 2.476 3.14 5.484 3.387 3.196 3.92 4.293 3.431 7.02-.635 3.54-2.777 5.577-7.585 5.577-3.718 0-6.045-1.222-5.54-4.043zm-9.365-5.923h1.05c3.192 0 3.72-.47 4.328-3.854.599-3.353.413-3.666-2.092-3.666h-1.94zm-2.223-10.152h6.263c5.9 0 6.287 1.222 5.4 6.173-.544 3.04-1.304 4.355-4.758 5.139l-.012.063c2.708.219 3.441 1.316 3.06 3.446l-.88 4.92c-.147.814-.349 1.943-.274 2.883h-3.798c-.304-.564-.283-1.128-.12-2.037l.914-5.108c.381-2.13-.003-2.694-2.67-2.694h-1.374l-1.76 9.84h-4.043zm-11.92 0h10.991l-.471 2.632h-6.95l-1.268 7.082h6.545l-.47 2.632h-6.547l-1.369 7.646h6.95l-.471 2.632h-10.99zm-11.92 0h4.04l-3.579 19.992h6.79l-.472 2.632h-10.83zm-6.102 0h4.041l-4.05 22.624h-4.041zm-14.628 14.226h5.131l-.552-10.904h-.08zm2.992-14.226h4.686L130 44.812h-4.04l-.302-5.766h-6.303l-2.365 5.766h-4.042zM105.362 32.34h1.051c3.192 0 3.72-.47 4.326-3.854.601-3.353.415-3.666-2.09-3.666h-1.94zm-2.224-10.152h6.264c5.9 0 6.288 1.222 5.4 6.173-.543 3.04-1.304 4.355-4.758 5.139l-.01.063c2.707.219 3.44 1.316 3.059 3.446l-.881 4.92c-.146.814-.348 1.943-.274 2.883h-3.799c-.302-.564-.282-1.128-.12-2.037l.915-5.108c.381-2.13-.003-2.694-2.67-2.694h-1.373l-1.762 9.84h-4.04zm-.928 0l-.47 2.632h-4.85l-3.58 19.992h-4.04l3.579-19.992H88l.471-2.632z"/></g></g></g></g></svg>